M48
; DRILL file {KiCad 9.0.3} date 2025-08-22T13:27:41-0600
; FORMAT={-:-/ absolute / metric / decimal}
; #@! TF.CreationDate,2025-08-22T13:27:41-06:00
; #@! TF.GenerationSoftware,Kicad,Pcbnew,9.0.3
; #@! TF.FileFunction,Plated,1,4,PTH
FMAT,2
METRIC
; #@! TA.AperFunction,Plated,PTH,ViaDrill
T1C0.400
; #@! TA.AperFunction,Plated,PTH,ComponentDrill
T2C0.550
; #@! TA.AperFunction,Plated,PTH,ComponentDrill
T3C0.850
; #@! TA.AperFunction,Plated,PTH,ComponentDrill
T4C0.914
; #@! TA.AperFunction,Plated,PTH,ComponentDrill
T5C1.000
%
G90
G05
T1
X77.673Y-89.662
X80.783Y-102.36
X83.342Y-90.132
X83.439Y-104.013
X83.515Y-101.092
X86.309Y-90.132
X88.189Y-90.119
X88.519Y-103.886
X88.803Y-100.781
X89.172Y-90.132
X90.172Y-90.132
X90.729Y-100.988
X91.171Y-90.132
X92.171Y-90.132
X92.812Y-93.675
X93.17Y-90.132
X93.364Y-98.231
X93.599Y-104.013
X93.675Y-97.282
X94.17Y-90.132
X95.316Y-97.923
X95.633Y-91.525
X96.52Y-101.092
X96.926Y-98.45
X98.679Y-104.013
X98.99Y-101.022
X101.088Y-97.852
X101.785Y-97.136
X103.505Y-99.06
X103.632Y-104.013
T4
X82.188Y-100.056
X82.188Y-107.676
X84.728Y-100.056
X84.728Y-107.676
X87.269Y-100.056
X87.269Y-107.676
X89.808Y-100.056
X89.808Y-107.676
X92.349Y-100.056
X92.349Y-107.676
X94.888Y-100.056
X94.888Y-107.676
X97.428Y-100.056
X97.428Y-107.676
X99.968Y-100.056
X99.968Y-107.676
X102.508Y-100.056
X102.508Y-107.676
X105.048Y-100.056
X105.048Y-107.676
T5
X78.435Y-97.79
X78.435Y-100.33
X78.435Y-102.87
X78.435Y-105.41
X78.435Y-107.95
X96.0Y-96.65
X97.3Y-92.7
X101.8Y-91.45
T2
G00X105.654Y-97.326
M15
G01X106.304Y-97.326
M16
G05
T3
G00X103.104Y-90.426
M15
G01X103.254Y-90.426
M16
G05
G00X103.104Y-97.026
M15
G01X103.254Y-97.026
M16
G05
G00X105.654Y-90.126
M15
G01X106.304Y-90.126
M16
G05
M30
