%TF.GenerationSoftware,KiCad,Pcbnew,9.0.3*%
%TF.CreationDate,2025-08-22T13:27:39-06:00*%
%TF.ProjectId,SWAG_BAR_LED_ARM,53574147-5f42-4415-925f-4c45445f4152,rev?*%
%TF.SameCoordinates,Original*%
%TF.FileFunction,Soldermask,Top*%
%TF.FilePolarity,Negative*%
%FSLAX46Y46*%
G04 Gerber Fmt 4.6, Leading zero omitted, Abs format (unit mm)*
G04 Created by KiCad (PCBNEW 9.0.3) date 2025-08-22 13:27:39*
%MOMM*%
%LPD*%
G01*
G04 APERTURE LIST*
G04 Aperture macros list*
%AMRoundRect*
0 Rectangle with rounded corners*
0 $1 Rounding radius*
0 $2 $3 $4 $5 $6 $7 $8 $9 X,Y pos of 4 corners*
0 Add a 4 corners polygon primitive as box body*
4,1,4,$2,$3,$4,$5,$6,$7,$8,$9,$2,$3,0*
0 Add four circle primitives for the rounded corners*
1,1,$1+$1,$2,$3*
1,1,$1+$1,$4,$5*
1,1,$1+$1,$6,$7*
1,1,$1+$1,$8,$9*
0 Add four rect primitives between the rounded corners*
20,1,$1+$1,$2,$3,$4,$5,0*
20,1,$1+$1,$4,$5,$6,$7,0*
20,1,$1+$1,$6,$7,$8,$9,0*
20,1,$1+$1,$8,$9,$2,$3,0*%
%AMRotRect*
0 Rectangle, with rotation*
0 The origin of the aperture is its center*
0 $1 length*
0 $2 width*
0 $3 Rotation angle, in degrees counterclockwise*
0 Add horizontal line*
21,1,$1,$2,0,0,$3*%
G04 Aperture macros list end*
%ADD10C,1.400000*%
%ADD11RoundRect,0.225000X-0.225000X-0.250000X0.225000X-0.250000X0.225000X0.250000X-0.225000X0.250000X0*%
%ADD12RoundRect,0.200000X0.200000X0.275000X-0.200000X0.275000X-0.200000X-0.275000X0.200000X-0.275000X0*%
%ADD13O,0.800000X0.800000*%
%ADD14R,1.750000X0.450000*%
%ADD15O,1.800000X1.150000*%
%ADD16O,1.600000X1.200000*%
%ADD17R,1.900000X1.900000*%
%ADD18O,2.200000X1.300000*%
%ADD19R,0.838200X0.355600*%
%ADD20RoundRect,0.200000X0.275000X-0.200000X0.275000X0.200000X-0.275000X0.200000X-0.275000X-0.200000X0*%
%ADD21RoundRect,0.062500X-0.282843X0.194454X0.194454X-0.282843X0.282843X-0.194454X-0.194454X0.282843X0*%
%ADD22RoundRect,0.062500X-0.282843X-0.194454X-0.194454X-0.282843X0.282843X0.194454X0.194454X0.282843X0*%
%ADD23RotRect,3.600000X3.600000X315.000000*%
%ADD24R,1.700000X1.700000*%
%ADD25O,1.700000X1.700000*%
%ADD26RotRect,2.006600X1.498600X225.000000*%
%ADD27R,0.650000X1.220000*%
%ADD28R,1.200000X1.200000*%
%ADD29C,1.200000*%
G04 APERTURE END LIST*
D10*
%TO.C,TP3*%
X96000000Y-96650000D03*
%TD*%
%TO.C,TP2*%
X101800000Y-91450000D03*
%TD*%
%TO.C,TP1*%
X97300000Y-92700000D03*
%TD*%
D11*
%TO.C,C1*%
X98806000Y-94386400D03*
X100356000Y-94386400D03*
%TD*%
D12*
%TO.C,R12*%
X79666600Y-91846400D03*
X78016600Y-91846400D03*
%TD*%
D13*
%TO.C,J3*%
X104079000Y-95676000D03*
X104079000Y-91776000D03*
D14*
X103129000Y-95026000D03*
X103129000Y-94376000D03*
X103129000Y-93726000D03*
X103129000Y-93076000D03*
X103129000Y-92426000D03*
D15*
X105979000Y-97326000D03*
D16*
X103179000Y-97026000D03*
D17*
X105979000Y-95026000D03*
X105979000Y-92426000D03*
D16*
X103179000Y-90426000D03*
D18*
X105979000Y-90126000D03*
%TD*%
D19*
%TO.C,U9*%
X84480400Y-103011999D03*
X84480400Y-102362000D03*
X84480400Y-101712001D03*
X82397600Y-101712001D03*
X82397600Y-102362000D03*
X82397600Y-103011999D03*
%TD*%
%TO.C,U4*%
X99720400Y-103011999D03*
X99720400Y-102362000D03*
X99720400Y-101712001D03*
X97637600Y-101712001D03*
X97637600Y-102362000D03*
X97637600Y-103011999D03*
%TD*%
D20*
%TO.C,R2*%
X89789000Y-106108000D03*
X89789000Y-104458000D03*
%TD*%
D11*
%TO.C,C3*%
X95745000Y-90220800D03*
X97295000Y-90220800D03*
%TD*%
D20*
%TO.C,R7*%
X82042000Y-106108000D03*
X82042000Y-104458000D03*
%TD*%
%TO.C,R10*%
X102489000Y-106108000D03*
X102489000Y-104458000D03*
%TD*%
D21*
%TO.C,U5*%
X92316625Y-90705352D03*
X91963072Y-91058905D03*
X91609518Y-91412458D03*
X91255965Y-91766012D03*
X90902412Y-92119565D03*
X90548858Y-92473118D03*
X90195305Y-92826672D03*
X89841752Y-93180225D03*
D22*
X89841752Y-94170175D03*
X90195305Y-94523728D03*
X90548858Y-94877282D03*
X90902412Y-95230835D03*
X91255965Y-95584388D03*
X91609518Y-95937942D03*
X91963072Y-96291495D03*
X92316625Y-96645048D03*
D21*
X93306575Y-96645048D03*
X93660128Y-96291495D03*
X94013682Y-95937942D03*
X94367235Y-95584388D03*
X94720788Y-95230835D03*
X95074342Y-94877282D03*
X95427895Y-94523728D03*
X95781448Y-94170175D03*
D22*
X95781448Y-93180225D03*
X95427895Y-92826672D03*
X95074342Y-92473118D03*
X94720788Y-92119565D03*
X94367235Y-91766012D03*
X94013682Y-91412458D03*
X93660128Y-91058905D03*
X93306575Y-90705352D03*
D23*
X92811600Y-93675200D03*
%TD*%
D24*
%TO.C,J1*%
X78435200Y-97790000D03*
D25*
X78435200Y-100330000D03*
X78435200Y-102870000D03*
X78435200Y-105410000D03*
X78435200Y-107950000D03*
%TD*%
D20*
%TO.C,R8*%
X97409000Y-106108000D03*
X97409000Y-104458000D03*
%TD*%
%TO.C,R4*%
X92329000Y-106108000D03*
X92329000Y-104458000D03*
%TD*%
%TO.C,R11*%
X84709000Y-106108000D03*
X84709000Y-104458000D03*
%TD*%
%TO.C,R9*%
X105029000Y-106108000D03*
X105029000Y-104458000D03*
%TD*%
D26*
%TO.C,SW1*%
X86820737Y-90979263D03*
X81022463Y-96777537D03*
%TD*%
D19*
%TO.C,U2*%
X104673400Y-102884999D03*
X104673400Y-102235000D03*
X104673400Y-101585001D03*
X102590600Y-101585001D03*
X102590600Y-102235000D03*
X102590600Y-102884999D03*
%TD*%
%TO.C,U10*%
X89560400Y-103011999D03*
X89560400Y-102362000D03*
X89560400Y-101712001D03*
X87477600Y-101712001D03*
X87477600Y-102362000D03*
X87477600Y-103011999D03*
%TD*%
D11*
%TO.C,C2*%
X98742200Y-95656400D03*
X100292200Y-95656400D03*
%TD*%
D20*
%TO.C,R5*%
X94869000Y-106108000D03*
X94869000Y-104458000D03*
%TD*%
%TO.C,R6*%
X87249000Y-106108000D03*
X87249000Y-104458000D03*
%TD*%
D27*
%TO.C,U1*%
X100772000Y-90384000D03*
X98872000Y-90384000D03*
X99822000Y-93004000D03*
%TD*%
D20*
%TO.C,R3*%
X99949000Y-106108000D03*
X99949000Y-104458000D03*
%TD*%
D19*
%TO.C,U8*%
X94640400Y-103138999D03*
X94640400Y-102489000D03*
X94640400Y-101839001D03*
X92557600Y-101839001D03*
X92557600Y-102489000D03*
X92557600Y-103138999D03*
%TD*%
D28*
%TO.C,BAR1*%
X105048500Y-100056500D03*
D29*
X102508500Y-100056500D03*
X99968500Y-100056500D03*
X97428500Y-100056500D03*
X94888500Y-100056500D03*
X92348500Y-100056500D03*
X89808500Y-100056500D03*
X87268500Y-100056500D03*
X84728500Y-100056500D03*
X82188500Y-100056500D03*
X82188500Y-107676500D03*
X84728500Y-107676500D03*
X87268500Y-107676500D03*
X89808500Y-107676500D03*
X92348500Y-107676500D03*
X94888500Y-107676500D03*
X97428500Y-107676500D03*
X99968500Y-107676500D03*
X102508500Y-107676500D03*
X105048500Y-107676500D03*
%TD*%
M02*
