%TF.GenerationSoftware,KiCad,Pcbnew,9.0.3*%
%TF.CreationDate,2025-08-22T13:27:39-06:00*%
%TF.ProjectId,SWAG_BAR_LED_ARM,53574147-5f42-4415-925f-4c45445f4152,rev?*%
%TF.SameCoordinates,Original*%
%TF.FileFunction,Soldermask,Bot*%
%TF.FilePolarity,Negative*%
%FSLAX46Y46*%
G04 Gerber Fmt 4.6, Leading zero omitted, Abs format (unit mm)*
G04 Created by KiCad (PCBNEW 9.0.3) date 2025-08-22 13:27:39*
%MOMM*%
%LPD*%
G01*
G04 APERTURE LIST*
%ADD10C,0.000000*%
%ADD11C,1.400000*%
%ADD12O,0.800000X0.800000*%
%ADD13O,1.800000X1.150000*%
%ADD14O,1.600000X1.200000*%
%ADD15O,2.200000X1.300000*%
%ADD16R,1.700000X1.700000*%
%ADD17O,1.700000X1.700000*%
%ADD18R,1.200000X1.200000*%
%ADD19C,1.200000*%
G04 APERTURE END LIST*
D10*
%TO.C,*%
G36*
X101603484Y-90590333D02*
G01*
X100819584Y-90595096D01*
X100035685Y-90599859D01*
X99963549Y-90641157D01*
X99894516Y-90696021D01*
X99847415Y-90757290D01*
X99803418Y-90832126D01*
X99795123Y-91387906D01*
X99786828Y-91943687D01*
X99685100Y-91752896D01*
X99641924Y-91671512D01*
X99599995Y-91591768D01*
X99564163Y-91522927D01*
X99539654Y-91475006D01*
X99495936Y-91387906D01*
X99133906Y-91387906D01*
X98987539Y-91671976D01*
X98841171Y-91956046D01*
X98824581Y-90832126D01*
X98779192Y-90754914D01*
X98727367Y-90687744D01*
X98658481Y-90640634D01*
X98654763Y-90638781D01*
X98575724Y-90599859D01*
X97024516Y-90590321D01*
X97024516Y-90093850D01*
X101603484Y-90093850D01*
X101603484Y-90590333D01*
G37*
G36*
X99319732Y-93271847D02*
G01*
X99341570Y-93310198D01*
X99373889Y-93371926D01*
X99414983Y-93453654D01*
X99463146Y-93552003D01*
X99516673Y-93663595D01*
X99558709Y-93752661D01*
X99795123Y-94256947D01*
X99795123Y-95253484D01*
X101985064Y-95253484D01*
X101985064Y-94490323D01*
X102797997Y-94490323D01*
X102797997Y-95834150D01*
X95830002Y-95834150D01*
X95830002Y-94490323D01*
X96642935Y-94490323D01*
X96642935Y-95253484D01*
X98832876Y-95253484D01*
X98832876Y-94261818D01*
X99065371Y-93766972D01*
X99121575Y-93647761D01*
X99173621Y-93538163D01*
X99219759Y-93441798D01*
X99258241Y-93362288D01*
X99287319Y-93303255D01*
X99305244Y-93268318D01*
X99310080Y-93260251D01*
X99319732Y-93271847D01*
G37*
G36*
X98252210Y-91217780D02*
G01*
X98168022Y-91225869D01*
X98080360Y-91246321D01*
X98017011Y-91288913D01*
X97976942Y-91354371D01*
X97974228Y-91362045D01*
X97970393Y-91380593D01*
X97967072Y-91412944D01*
X97964245Y-91460881D01*
X97961893Y-91526188D01*
X97959995Y-91610650D01*
X97958531Y-91716051D01*
X97957482Y-91844175D01*
X97956827Y-91996806D01*
X97956547Y-92175728D01*
X97956622Y-92382727D01*
X97957032Y-92619585D01*
X97957637Y-92848709D01*
X97961877Y-94273157D01*
X98591867Y-92988603D01*
X99221856Y-91704048D01*
X99291777Y-91693563D01*
X99339622Y-91688396D01*
X99374393Y-91688198D01*
X99380512Y-91689350D01*
X99390588Y-91704873D01*
X99414112Y-91747967D01*
X99449955Y-91816396D01*
X99496988Y-91907923D01*
X99554081Y-92020314D01*
X99620106Y-92151331D01*
X99693932Y-92298738D01*
X99774432Y-92460300D01*
X99860476Y-92633779D01*
X99950934Y-92816941D01*
X99991249Y-92898814D01*
X100084249Y-93087847D01*
X100173863Y-93269983D01*
X100258888Y-93442777D01*
X100338121Y-93603786D01*
X100410358Y-93750563D01*
X100474396Y-93880666D01*
X100529032Y-93991648D01*
X100573063Y-94081065D01*
X100605285Y-94146473D01*
X100624496Y-94185427D01*
X100627980Y-94192475D01*
X100672789Y-94282942D01*
X100669456Y-92812275D01*
X100668865Y-92557862D01*
X100668285Y-92334544D01*
X100667665Y-92140233D01*
X100666956Y-91972843D01*
X100666106Y-91830288D01*
X100665064Y-91710481D01*
X100663782Y-91611335D01*
X100662207Y-91530764D01*
X100660289Y-91466681D01*
X100657979Y-91417000D01*
X100655224Y-91379634D01*
X100651976Y-91352496D01*
X100648182Y-91333500D01*
X100643794Y-91320560D01*
X100638759Y-91311588D01*
X100633029Y-91304498D01*
X100632942Y-91304400D01*
X100572320Y-91258018D01*
X100494450Y-91228965D01*
X100434389Y-91222002D01*
X100375789Y-91222002D01*
X100375789Y-90906783D01*
X101603484Y-90906783D01*
X101603484Y-91222002D01*
X101532974Y-91222366D01*
X101447636Y-91233860D01*
X101373177Y-91264637D01*
X101317640Y-91310502D01*
X101295597Y-91346177D01*
X101291014Y-91373697D01*
X101286944Y-91431163D01*
X101283379Y-91515705D01*
X101280309Y-91624450D01*
X101277728Y-91754527D01*
X101275625Y-91903064D01*
X101273994Y-92067191D01*
X101272824Y-92244035D01*
X101272107Y-92430725D01*
X101271836Y-92624389D01*
X101272001Y-92822157D01*
X101272595Y-93021155D01*
X101273608Y-93218514D01*
X101275031Y-93411361D01*
X101276858Y-93596825D01*
X101279078Y-93772034D01*
X101281684Y-93934117D01*
X101284666Y-94080202D01*
X101288018Y-94207418D01*
X101291729Y-94312893D01*
X101295791Y-94393757D01*
X101300197Y-94447136D01*
X101304855Y-94470042D01*
X101346446Y-94509834D01*
X101411649Y-94545426D01*
X101490898Y-94572281D01*
X101541866Y-94582408D01*
X101621267Y-94593812D01*
X101616523Y-94745301D01*
X101611779Y-94896789D01*
X100407844Y-94896789D01*
X99866825Y-93772785D01*
X99779823Y-93592336D01*
X99696858Y-93420847D01*
X99619065Y-93260631D01*
X99547580Y-93113997D01*
X99483539Y-92983257D01*
X99428077Y-92870722D01*
X99382329Y-92778704D01*
X99347431Y-92709513D01*
X99324519Y-92665460D01*
X99314728Y-92648856D01*
X99314562Y-92648781D01*
X99305747Y-92663361D01*
X99283742Y-92705559D01*
X99249683Y-92773063D01*
X99204704Y-92863561D01*
X99149939Y-92974742D01*
X99086523Y-93104295D01*
X99015591Y-93249906D01*
X98938278Y-93409265D01*
X98855718Y-93580059D01*
X98769045Y-93759977D01*
X98762886Y-93772785D01*
X98222453Y-94896789D01*
X97016220Y-94896789D01*
X97011481Y-94745664D01*
X97006742Y-94594538D01*
X97083494Y-94584018D01*
X97149988Y-94569774D01*
X97217538Y-94547821D01*
X97230447Y-94542445D01*
X97251463Y-94533759D01*
X97270008Y-94526093D01*
X97286236Y-94517436D01*
X97300301Y-94505777D01*
X97312357Y-94489105D01*
X97322558Y-94465411D01*
X97331058Y-94432682D01*
X97338011Y-94388909D01*
X97343570Y-94332081D01*
X97347891Y-94260188D01*
X97351126Y-94171218D01*
X97353431Y-94063161D01*
X97354958Y-93934006D01*
X97355862Y-93781742D01*
X97356296Y-93604360D01*
X97356416Y-93399848D01*
X97356374Y-93166196D01*
X97356325Y-92901392D01*
X97356325Y-92898746D01*
X97356365Y-92633570D01*
X97356388Y-92399565D01*
X97356247Y-92194719D01*
X97355796Y-92017024D01*
X97354889Y-91864468D01*
X97353379Y-91735041D01*
X97351120Y-91626733D01*
X97347966Y-91537534D01*
X97343770Y-91465432D01*
X97338386Y-91408419D01*
X97331668Y-91364484D01*
X97323469Y-91331616D01*
X97313643Y-91307805D01*
X97302043Y-91291040D01*
X97288524Y-91279313D01*
X97272938Y-91270611D01*
X97255141Y-91262925D01*
X97236669Y-91255015D01*
X97175299Y-91234417D01*
X97110579Y-91223093D01*
X97095025Y-91222366D01*
X97024516Y-91222002D01*
X97024516Y-90906783D01*
X98252210Y-90906783D01*
X98252210Y-91217780D01*
G37*
%TD*%
D11*
%TO.C,TP3*%
X96000000Y-96650000D03*
%TD*%
%TO.C,TP2*%
X101800000Y-91450000D03*
%TD*%
%TO.C,TP1*%
X97300000Y-92700000D03*
%TD*%
D12*
%TO.C,J3*%
X104079000Y-95676000D03*
X104079000Y-91776000D03*
D13*
X105979000Y-97326000D03*
D14*
X103179000Y-97026000D03*
X103179000Y-90426000D03*
D15*
X105979000Y-90126000D03*
%TD*%
D16*
%TO.C,J1*%
X78435200Y-97790000D03*
D17*
X78435200Y-100330000D03*
X78435200Y-102870000D03*
X78435200Y-105410000D03*
X78435200Y-107950000D03*
%TD*%
D18*
%TO.C,BAR1*%
X105048500Y-100056500D03*
D19*
X102508500Y-100056500D03*
X99968500Y-100056500D03*
X97428500Y-100056500D03*
X94888500Y-100056500D03*
X92348500Y-100056500D03*
X89808500Y-100056500D03*
X87268500Y-100056500D03*
X84728500Y-100056500D03*
X82188500Y-100056500D03*
X82188500Y-107676500D03*
X84728500Y-107676500D03*
X87268500Y-107676500D03*
X89808500Y-107676500D03*
X92348500Y-107676500D03*
X94888500Y-107676500D03*
X97428500Y-107676500D03*
X99968500Y-107676500D03*
X102508500Y-107676500D03*
X105048500Y-107676500D03*
%TD*%
M02*
