%TF.GenerationSoftware,KiCad,Pcbnew,9.0.3*%
%TF.CreationDate,2025-08-22T13:27:39-06:00*%
%TF.ProjectId,SWAG_BAR_LED_ARM,53574147-5f42-4415-925f-4c45445f4152,rev?*%
%TF.SameCoordinates,Original*%
%TF.FileFunction,Copper,L3,Inr*%
%TF.FilePolarity,Positive*%
%FSLAX46Y46*%
G04 Gerber Fmt 4.6, Leading zero omitted, Abs format (unit mm)*
G04 Created by KiCad (PCBNEW 9.0.3) date 2025-08-22 13:27:39*
%MOMM*%
%LPD*%
G01*
G04 APERTURE LIST*
%TA.AperFunction,ComponentPad*%
%ADD10C,1.400000*%
%TD*%
%TA.AperFunction,ComponentPad*%
%ADD11O,1.800000X1.150000*%
%TD*%
%TA.AperFunction,ComponentPad*%
%ADD12O,1.600000X1.200000*%
%TD*%
%TA.AperFunction,ComponentPad*%
%ADD13O,2.200000X1.300000*%
%TD*%
%TA.AperFunction,ComponentPad*%
%ADD14R,1.700000X1.700000*%
%TD*%
%TA.AperFunction,ComponentPad*%
%ADD15O,1.700000X1.700000*%
%TD*%
%TA.AperFunction,ComponentPad*%
%ADD16R,1.200000X1.200000*%
%TD*%
%TA.AperFunction,ComponentPad*%
%ADD17C,1.200000*%
%TD*%
%TA.AperFunction,ViaPad*%
%ADD18C,0.800000*%
%TD*%
%TA.AperFunction,Conductor*%
%ADD19C,0.200000*%
%TD*%
%TA.AperFunction,Conductor*%
%ADD20C,0.250000*%
%TD*%
G04 APERTURE END LIST*
D10*
%TO.N,/D-*%
%TO.C,TP3*%
X96000000Y-96650000D03*
%TD*%
%TO.N,+5V*%
%TO.C,TP2*%
X101800000Y-91450000D03*
%TD*%
%TO.N,/D+*%
%TO.C,TP1*%
X97300000Y-92700000D03*
%TD*%
D11*
%TO.N,GND*%
%TO.C,J3*%
X105979000Y-97326000D03*
D12*
X103179000Y-97026000D03*
X103179000Y-90426000D03*
D13*
X105979000Y-90126000D03*
%TD*%
D14*
%TO.N,/SWDIO*%
%TO.C,J1*%
X78435200Y-97790000D03*
D15*
%TO.N,/SWCLK*%
X78435200Y-100330000D03*
%TO.N,/RST*%
X78435200Y-102870000D03*
%TO.N,+3V3*%
X78435200Y-105410000D03*
%TO.N,GND*%
X78435200Y-107950000D03*
%TD*%
D16*
%TO.N,+3V3*%
%TO.C,BAR1*%
X105048500Y-100056500D03*
D17*
X102508500Y-100056500D03*
X99968500Y-100056500D03*
X97428500Y-100056500D03*
X94888500Y-100056500D03*
X92348500Y-100056500D03*
X89808500Y-100056500D03*
X87268500Y-100056500D03*
X84728500Y-100056500D03*
X82188500Y-100056500D03*
%TO.N,/L9*%
X82188500Y-107676500D03*
%TO.N,/L8*%
X84728500Y-107676500D03*
%TO.N,/L7*%
X87268500Y-107676500D03*
%TO.N,/L6*%
X89808500Y-107676500D03*
%TO.N,/L5*%
X92348500Y-107676500D03*
%TO.N,/L4*%
X94888500Y-107676500D03*
%TO.N,/L3*%
X97428500Y-107676500D03*
%TO.N,/L2*%
X99968500Y-107676500D03*
%TO.N,/L1*%
X102508500Y-107676500D03*
%TO.N,/L0*%
X105048500Y-107676500D03*
%TD*%
D18*
%TO.N,+5V*%
X101784553Y-97135995D03*
%TO.N,/SWDIO*%
X93170397Y-90132500D03*
%TO.N,/SWCLK*%
X77673200Y-89662000D03*
X94169900Y-90132500D03*
%TO.N,GND*%
X88519000Y-103886000D03*
X92811600Y-93675200D03*
X83439000Y-104013000D03*
X103632000Y-104013000D03*
X98679000Y-104013000D03*
X93599000Y-104013000D03*
%TO.N,/RST*%
X95632674Y-91525171D03*
%TO.N,/Sig_L1*%
X103505000Y-99060000D03*
X91171391Y-90132500D03*
%TO.N,/Sig_L0*%
X92170894Y-90132500D03*
X101087601Y-97852418D03*
%TO.N,/Sig_L8*%
X88803124Y-100780607D03*
X80782949Y-102359649D03*
%TO.N,/SW_1*%
X93675200Y-97282000D03*
X86309200Y-90132000D03*
%TO.N,/Sig_L9*%
X90728800Y-100987501D03*
X83515200Y-101092000D03*
%TO.N,/Sig_L2*%
X90171888Y-90132500D03*
X96520000Y-101092000D03*
X96926400Y-98450400D03*
%TO.N,/Sig_L3*%
X89172385Y-90132500D03*
X98990102Y-101021797D03*
%TO.N,/Sig_L4*%
X93364044Y-98231352D03*
X88188800Y-90119200D03*
%TO.N,/Sig_L5*%
X83341586Y-90132500D03*
X95315818Y-97923465D03*
%TD*%
D19*
%TO.N,GND*%
X94376200Y-98729000D02*
X94350000Y-98755200D01*
X94376200Y-97487636D02*
X94376200Y-98729000D01*
X94350000Y-98755200D02*
X93827600Y-98755200D01*
X94900000Y-96963836D02*
X94376200Y-97487636D01*
X94900000Y-95763600D02*
X94900000Y-96963836D01*
X92811600Y-93675200D02*
X94900000Y-95763600D01*
X93599000Y-98983800D02*
X93599000Y-104013000D01*
X93827600Y-98755200D02*
X93599000Y-98983800D01*
X92811600Y-93675200D02*
X92811600Y-93953950D01*
D20*
%TO.N,+5V*%
X101790948Y-97129600D02*
X101784553Y-97135995D01*
X101854000Y-97129600D02*
X101790948Y-97129600D01*
X101854000Y-92151998D02*
X101854000Y-97129600D01*
X102404500Y-91601498D02*
X101854000Y-92151998D01*
%TO.N,/SWCLK*%
X79610200Y-99155000D02*
X79610200Y-96679000D01*
X94169900Y-90132500D02*
X94169900Y-90106698D01*
X93470702Y-89407500D02*
X77927700Y-89407500D01*
X78435200Y-100330000D02*
X79610200Y-99155000D01*
X94169900Y-90106698D02*
X93470702Y-89407500D01*
X77673200Y-94742000D02*
X77673200Y-89662000D01*
X79610200Y-96679000D02*
X77673200Y-94742000D01*
X77927700Y-89407500D02*
X77673200Y-89662000D01*
%TO.N,/Sig_L1*%
X103251000Y-99060000D02*
X103505000Y-99060000D01*
D19*
%TO.N,/Sig_L8*%
X85715993Y-97231200D02*
X81229200Y-97231200D01*
X88803124Y-100780607D02*
X88803124Y-100318331D01*
X80035200Y-99060000D02*
X80035200Y-101611900D01*
X88803124Y-100318331D02*
X85715993Y-97231200D01*
X80035200Y-101611900D02*
X80782949Y-102359649D01*
X80035200Y-98425200D02*
X80035200Y-99060000D01*
X81229200Y-97231200D02*
X80035200Y-98425200D01*
D20*
%TO.N,/Sig_L2*%
X96520000Y-101092000D02*
X96503500Y-101075500D01*
%TO.N,/Sig_L3*%
X91622483Y-92608400D02*
X94183200Y-92608400D01*
X94183200Y-92608400D02*
X98990102Y-97415302D01*
X89172385Y-90132500D02*
X89172385Y-90158302D01*
X98990102Y-97415302D02*
X98990102Y-101021797D01*
X89172385Y-90158302D02*
X91622483Y-92608400D01*
X98990102Y-101021797D02*
X98990102Y-100133102D01*
%TO.N,/Sig_L4*%
X91334622Y-93675200D02*
X88188800Y-90529378D01*
X92456000Y-94691200D02*
X91440000Y-93675200D01*
X93364044Y-98231352D02*
X92456000Y-97323308D01*
X91440000Y-93675200D02*
X91334622Y-93675200D01*
X92456000Y-97323308D02*
X92456000Y-94691200D01*
X88188800Y-90529378D02*
X88188800Y-90119200D01*
%TD*%
%TA.AperFunction,Conductor*%
%TO.N,GND*%
G36*
X102616735Y-89174185D02*
G01*
X102662490Y-89226989D01*
X102672434Y-89296147D01*
X102643409Y-89359703D01*
X102588014Y-89396431D01*
X102556744Y-89406591D01*
X102402475Y-89485195D01*
X102262397Y-89586967D01*
X102139967Y-89709397D01*
X102038195Y-89849475D01*
X101959591Y-90003744D01*
X101910180Y-90155818D01*
X101870743Y-90213493D01*
X101806384Y-90240692D01*
X101792249Y-90241500D01*
X101704884Y-90241500D01*
X101517008Y-90271256D01*
X101336092Y-90330040D01*
X101166607Y-90416398D01*
X101122931Y-90448131D01*
X101012715Y-90528208D01*
X101012713Y-90528210D01*
X101012712Y-90528210D01*
X100878210Y-90662712D01*
X100878210Y-90662713D01*
X100878208Y-90662715D01*
X100842663Y-90711638D01*
X100766398Y-90816607D01*
X100680040Y-90986092D01*
X100621256Y-91167008D01*
X100591500Y-91354883D01*
X100591500Y-91545116D01*
X100621256Y-91732991D01*
X100680040Y-91913907D01*
X100747854Y-92046998D01*
X100766398Y-92083392D01*
X100878208Y-92237285D01*
X101012715Y-92371792D01*
X101166608Y-92483602D01*
X101169386Y-92485620D01*
X101212051Y-92540950D01*
X101220500Y-92585938D01*
X101220500Y-96363872D01*
X101200815Y-96430911D01*
X101184181Y-96451553D01*
X101078877Y-96556856D01*
X101078874Y-96556860D01*
X100979454Y-96705652D01*
X100979449Y-96705662D01*
X100910965Y-96870996D01*
X100910963Y-96871002D01*
X100908310Y-96884340D01*
X100875922Y-96946250D01*
X100827872Y-96975638D01*
X100828229Y-96976500D01*
X100822757Y-96978766D01*
X100822704Y-96978799D01*
X100822609Y-96978827D01*
X100657268Y-97047314D01*
X100657258Y-97047319D01*
X100508466Y-97146739D01*
X100508462Y-97146742D01*
X100381925Y-97273279D01*
X100381922Y-97273283D01*
X100282502Y-97422075D01*
X100282497Y-97422085D01*
X100214014Y-97587417D01*
X100214012Y-97587425D01*
X100179101Y-97762934D01*
X100179101Y-97941901D01*
X100214012Y-98117410D01*
X100214014Y-98117418D01*
X100282497Y-98282750D01*
X100282502Y-98282760D01*
X100381922Y-98431552D01*
X100381925Y-98431556D01*
X100508464Y-98558095D01*
X100657258Y-98657516D01*
X100657262Y-98657518D01*
X100657265Y-98657520D01*
X100822601Y-98726005D01*
X100998117Y-98760917D01*
X100998121Y-98760918D01*
X100998122Y-98760918D01*
X101177081Y-98760918D01*
X101177082Y-98760917D01*
X101352601Y-98726005D01*
X101517937Y-98657520D01*
X101562135Y-98627988D01*
X101666738Y-98558095D01*
X101666739Y-98558093D01*
X101793276Y-98431556D01*
X101793279Y-98431553D01*
X101892703Y-98282754D01*
X101961188Y-98117418D01*
X101963841Y-98104080D01*
X101967063Y-98097918D01*
X101967203Y-98090961D01*
X101983045Y-98067361D01*
X101996221Y-98042171D01*
X102003203Y-98037333D01*
X102006146Y-98032951D01*
X102021375Y-98024745D01*
X102036213Y-98014467D01*
X102045757Y-98010337D01*
X102049553Y-98009582D01*
X102214889Y-97941097D01*
X102231656Y-97929893D01*
X102241962Y-97925434D01*
X102265938Y-97922474D01*
X102288993Y-97915256D01*
X102299989Y-97918272D01*
X102311305Y-97916876D01*
X102333073Y-97927348D01*
X102356373Y-97933740D01*
X102364091Y-97938917D01*
X102402474Y-97966803D01*
X102402476Y-97966804D01*
X102556742Y-98045408D01*
X102721415Y-98098913D01*
X102882771Y-98124470D01*
X102945905Y-98154399D01*
X102982837Y-98213710D01*
X102981839Y-98283573D01*
X102943229Y-98341806D01*
X102932270Y-98350041D01*
X102925867Y-98354319D01*
X102925861Y-98354324D01*
X102799324Y-98480861D01*
X102799321Y-98480865D01*
X102699901Y-98629657D01*
X102699896Y-98629667D01*
X102631413Y-98794999D01*
X102631411Y-98795007D01*
X102620832Y-98848191D01*
X102588447Y-98910102D01*
X102527731Y-98944677D01*
X102499215Y-98948000D01*
X102421259Y-98948000D01*
X102363814Y-98957098D01*
X102248924Y-98975295D01*
X102082986Y-99029210D01*
X102082983Y-99029211D01*
X101927515Y-99108428D01*
X101786367Y-99210977D01*
X101786362Y-99210981D01*
X101662981Y-99334362D01*
X101662977Y-99334367D01*
X101560428Y-99475515D01*
X101481211Y-99630983D01*
X101481210Y-99630986D01*
X101427295Y-99796924D01*
X101416497Y-99865102D01*
X101400000Y-99969259D01*
X101400000Y-100143741D01*
X101413647Y-100229907D01*
X101427295Y-100316075D01*
X101481210Y-100482013D01*
X101481211Y-100482016D01*
X101560428Y-100637484D01*
X101662977Y-100778632D01*
X101662981Y-100778637D01*
X101786362Y-100902018D01*
X101786367Y-100902022D01*
X101864702Y-100958935D01*
X101927519Y-101004574D01*
X102021229Y-101052322D01*
X102082983Y-101083788D01*
X102082986Y-101083789D01*
X102165955Y-101110746D01*
X102248926Y-101137705D01*
X102421259Y-101165000D01*
X102421260Y-101165000D01*
X102595740Y-101165000D01*
X102595741Y-101165000D01*
X102768074Y-101137705D01*
X102934016Y-101083788D01*
X103089481Y-101004574D01*
X103230639Y-100902017D01*
X103354017Y-100778639D01*
X103456574Y-100637481D01*
X103535788Y-100482016D01*
X103589705Y-100316074D01*
X103617000Y-100143741D01*
X103617000Y-100065784D01*
X103625491Y-100036866D01*
X103631629Y-100007355D01*
X103635235Y-100003682D01*
X103636685Y-99998745D01*
X103659458Y-99979011D01*
X103680580Y-99957500D01*
X103687019Y-99955130D01*
X103689489Y-99952990D01*
X103713535Y-99944864D01*
X103715153Y-99944496D01*
X103770000Y-99933587D01*
X103778274Y-99930159D01*
X103788535Y-99927829D01*
X103813312Y-99929373D01*
X103838000Y-99926716D01*
X103847579Y-99931509D01*
X103858269Y-99932176D01*
X103878278Y-99946871D01*
X103900484Y-99957983D01*
X103905951Y-99967194D01*
X103914583Y-99973534D01*
X103923471Y-99996715D01*
X103936144Y-100018067D01*
X103938330Y-100035467D01*
X103939598Y-100038772D01*
X103939066Y-100041325D01*
X103940000Y-100048749D01*
X103940000Y-100705154D01*
X103946511Y-100765702D01*
X103946511Y-100765704D01*
X103978506Y-100851483D01*
X103997611Y-100902704D01*
X104085239Y-101019761D01*
X104202296Y-101107389D01*
X104339299Y-101158489D01*
X104366550Y-101161418D01*
X104399845Y-101164999D01*
X104399862Y-101165000D01*
X105697138Y-101165000D01*
X105697154Y-101164999D01*
X105724192Y-101162091D01*
X105757701Y-101158489D01*
X105894704Y-101107389D01*
X106011761Y-101019761D01*
X106099389Y-100902704D01*
X106150489Y-100765701D01*
X106154091Y-100732192D01*
X106156999Y-100705154D01*
X106157000Y-100705137D01*
X106157000Y-99407862D01*
X106156999Y-99407845D01*
X106153108Y-99371658D01*
X106150489Y-99347299D01*
X106145664Y-99334364D01*
X106116250Y-99255502D01*
X106099389Y-99210296D01*
X106011761Y-99093239D01*
X105894704Y-99005611D01*
X105757703Y-98954511D01*
X105697154Y-98948000D01*
X105697138Y-98948000D01*
X104510784Y-98948000D01*
X104443745Y-98928315D01*
X104397990Y-98875511D01*
X104389168Y-98848197D01*
X104378587Y-98795000D01*
X104310102Y-98629664D01*
X104310100Y-98629661D01*
X104310098Y-98629657D01*
X104210678Y-98480865D01*
X104210675Y-98480861D01*
X104084138Y-98354324D01*
X104084134Y-98354321D01*
X103935342Y-98254901D01*
X103935332Y-98254896D01*
X103883096Y-98233259D01*
X103828693Y-98189418D01*
X103806628Y-98123123D01*
X103823908Y-98055424D01*
X103874255Y-98008213D01*
X103955522Y-97966805D01*
X104095602Y-97865032D01*
X104218032Y-97742602D01*
X104319805Y-97602522D01*
X104367466Y-97508982D01*
X104415440Y-97458186D01*
X104483261Y-97441390D01*
X104549396Y-97463927D01*
X104592848Y-97518642D01*
X104600424Y-97545875D01*
X104605470Y-97577728D01*
X104657760Y-97738659D01*
X104734578Y-97889423D01*
X104834038Y-98026316D01*
X104834038Y-98026317D01*
X104953682Y-98145961D01*
X105090576Y-98245421D01*
X105241340Y-98322239D01*
X105402273Y-98374530D01*
X105569391Y-98401000D01*
X105729000Y-98401000D01*
X105729000Y-97601000D01*
X106229000Y-97601000D01*
X106229000Y-98401000D01*
X106388609Y-98401000D01*
X106555726Y-98374530D01*
X106716659Y-98322239D01*
X106867423Y-98245421D01*
X107004316Y-98145961D01*
X107004317Y-98145961D01*
X107123961Y-98026317D01*
X107123966Y-98026311D01*
X107189217Y-97936502D01*
X107244547Y-97893836D01*
X107314160Y-97887857D01*
X107375955Y-97920463D01*
X107410312Y-97981301D01*
X107413535Y-98009078D01*
X107431199Y-105091882D01*
X107441331Y-109155062D01*
X107441499Y-109222191D01*
X107421981Y-109289279D01*
X107369292Y-109335166D01*
X107317499Y-109346500D01*
X84393767Y-109346500D01*
X84393354Y-109346499D01*
X79214779Y-109329264D01*
X79147806Y-109309357D01*
X79102227Y-109256401D01*
X79092514Y-109187210D01*
X79121750Y-109123751D01*
X79142307Y-109104946D01*
X79314666Y-108979721D01*
X79464923Y-108829464D01*
X79464927Y-108829459D01*
X79589820Y-108657557D01*
X79686295Y-108468217D01*
X79751957Y-108266129D01*
X79751957Y-108266126D01*
X79762431Y-108200000D01*
X78868212Y-108200000D01*
X78901125Y-108142993D01*
X78935200Y-108015826D01*
X78935200Y-107884174D01*
X78901125Y-107757007D01*
X78868212Y-107700000D01*
X79762431Y-107700000D01*
X79751957Y-107633873D01*
X79751956Y-107633867D01*
X79748330Y-107622707D01*
X79748329Y-107622705D01*
X79737462Y-107589259D01*
X81080000Y-107589259D01*
X81080000Y-107763740D01*
X81107295Y-107936075D01*
X81161210Y-108102013D01*
X81161211Y-108102016D01*
X81211138Y-108200000D01*
X81240184Y-108257007D01*
X81240428Y-108257484D01*
X81342977Y-108398632D01*
X81342981Y-108398637D01*
X81466362Y-108522018D01*
X81466367Y-108522022D01*
X81589484Y-108611471D01*
X81607519Y-108624574D01*
X81683715Y-108663398D01*
X81762983Y-108703788D01*
X81762986Y-108703789D01*
X81845955Y-108730746D01*
X81928926Y-108757705D01*
X82101259Y-108785000D01*
X82101260Y-108785000D01*
X82275740Y-108785000D01*
X82275741Y-108785000D01*
X82448074Y-108757705D01*
X82614016Y-108703788D01*
X82769481Y-108624574D01*
X82910639Y-108522017D01*
X83034017Y-108398639D01*
X83136574Y-108257481D01*
X83215788Y-108102016D01*
X83269705Y-107936074D01*
X83297000Y-107763741D01*
X83297000Y-107589259D01*
X83620000Y-107589259D01*
X83620000Y-107763740D01*
X83647295Y-107936075D01*
X83701210Y-108102013D01*
X83701211Y-108102016D01*
X83751138Y-108200000D01*
X83780184Y-108257007D01*
X83780428Y-108257484D01*
X83882977Y-108398632D01*
X83882981Y-108398637D01*
X84006362Y-108522018D01*
X84006367Y-108522022D01*
X84129484Y-108611471D01*
X84147519Y-108624574D01*
X84223715Y-108663398D01*
X84302983Y-108703788D01*
X84302986Y-108703789D01*
X84385955Y-108730746D01*
X84468926Y-108757705D01*
X84641259Y-108785000D01*
X84641260Y-108785000D01*
X84815740Y-108785000D01*
X84815741Y-108785000D01*
X84988074Y-108757705D01*
X85154016Y-108703788D01*
X85309481Y-108624574D01*
X85450639Y-108522017D01*
X85574017Y-108398639D01*
X85676574Y-108257481D01*
X85755788Y-108102016D01*
X85809705Y-107936074D01*
X85837000Y-107763741D01*
X85837000Y-107589259D01*
X86160000Y-107589259D01*
X86160000Y-107763740D01*
X86187295Y-107936075D01*
X86241210Y-108102013D01*
X86241211Y-108102016D01*
X86291138Y-108200000D01*
X86320184Y-108257007D01*
X86320428Y-108257484D01*
X86422977Y-108398632D01*
X86422981Y-108398637D01*
X86546362Y-108522018D01*
X86546367Y-108522022D01*
X86669484Y-108611471D01*
X86687519Y-108624574D01*
X86763715Y-108663398D01*
X86842983Y-108703788D01*
X86842986Y-108703789D01*
X86925955Y-108730746D01*
X87008926Y-108757705D01*
X87181259Y-108785000D01*
X87181260Y-108785000D01*
X87355740Y-108785000D01*
X87355741Y-108785000D01*
X87528074Y-108757705D01*
X87694016Y-108703788D01*
X87849481Y-108624574D01*
X87990639Y-108522017D01*
X88114017Y-108398639D01*
X88216574Y-108257481D01*
X88295788Y-108102016D01*
X88349705Y-107936074D01*
X88377000Y-107763741D01*
X88377000Y-107589259D01*
X88700000Y-107589259D01*
X88700000Y-107763740D01*
X88727295Y-107936075D01*
X88781210Y-108102013D01*
X88781211Y-108102016D01*
X88831138Y-108200000D01*
X88860184Y-108257007D01*
X88860428Y-108257484D01*
X88962977Y-108398632D01*
X88962981Y-108398637D01*
X89086362Y-108522018D01*
X89086367Y-108522022D01*
X89209484Y-108611471D01*
X89227519Y-108624574D01*
X89303715Y-108663398D01*
X89382983Y-108703788D01*
X89382986Y-108703789D01*
X89465955Y-108730746D01*
X89548926Y-108757705D01*
X89721259Y-108785000D01*
X89721260Y-108785000D01*
X89895740Y-108785000D01*
X89895741Y-108785000D01*
X90068074Y-108757705D01*
X90234016Y-108703788D01*
X90389481Y-108624574D01*
X90530639Y-108522017D01*
X90654017Y-108398639D01*
X90756574Y-108257481D01*
X90835788Y-108102016D01*
X90889705Y-107936074D01*
X90917000Y-107763741D01*
X90917000Y-107589259D01*
X91240000Y-107589259D01*
X91240000Y-107763740D01*
X91267295Y-107936075D01*
X91321210Y-108102013D01*
X91321211Y-108102016D01*
X91371138Y-108200000D01*
X91400184Y-108257007D01*
X91400428Y-108257484D01*
X91502977Y-108398632D01*
X91502981Y-108398637D01*
X91626362Y-108522018D01*
X91626367Y-108522022D01*
X91749484Y-108611471D01*
X91767519Y-108624574D01*
X91843715Y-108663398D01*
X91922983Y-108703788D01*
X91922986Y-108703789D01*
X92005955Y-108730746D01*
X92088926Y-108757705D01*
X92261259Y-108785000D01*
X92261260Y-108785000D01*
X92435740Y-108785000D01*
X92435741Y-108785000D01*
X92608074Y-108757705D01*
X92774016Y-108703788D01*
X92929481Y-108624574D01*
X93070639Y-108522017D01*
X93194017Y-108398639D01*
X93296574Y-108257481D01*
X93375788Y-108102016D01*
X93429705Y-107936074D01*
X93457000Y-107763741D01*
X93457000Y-107589259D01*
X93780000Y-107589259D01*
X93780000Y-107763740D01*
X93807295Y-107936075D01*
X93861210Y-108102013D01*
X93861211Y-108102016D01*
X93911138Y-108200000D01*
X93940184Y-108257007D01*
X93940428Y-108257484D01*
X94042977Y-108398632D01*
X94042981Y-108398637D01*
X94166362Y-108522018D01*
X94166367Y-108522022D01*
X94289484Y-108611471D01*
X94307519Y-108624574D01*
X94383715Y-108663398D01*
X94462983Y-108703788D01*
X94462986Y-108703789D01*
X94545955Y-108730746D01*
X94628926Y-108757705D01*
X94801259Y-108785000D01*
X94801260Y-108785000D01*
X94975740Y-108785000D01*
X94975741Y-108785000D01*
X95148074Y-108757705D01*
X95314016Y-108703788D01*
X95469481Y-108624574D01*
X95610639Y-108522017D01*
X95734017Y-108398639D01*
X95836574Y-108257481D01*
X95915788Y-108102016D01*
X95969705Y-107936074D01*
X95997000Y-107763741D01*
X95997000Y-107589259D01*
X96320000Y-107589259D01*
X96320000Y-107763740D01*
X96347295Y-107936075D01*
X96401210Y-108102013D01*
X96401211Y-108102016D01*
X96451138Y-108200000D01*
X96480184Y-108257007D01*
X96480428Y-108257484D01*
X96582977Y-108398632D01*
X96582981Y-108398637D01*
X96706362Y-108522018D01*
X96706367Y-108522022D01*
X96829484Y-108611471D01*
X96847519Y-108624574D01*
X96923715Y-108663398D01*
X97002983Y-108703788D01*
X97002986Y-108703789D01*
X97085955Y-108730746D01*
X97168926Y-108757705D01*
X97341259Y-108785000D01*
X97341260Y-108785000D01*
X97515740Y-108785000D01*
X97515741Y-108785000D01*
X97688074Y-108757705D01*
X97854016Y-108703788D01*
X98009481Y-108624574D01*
X98150639Y-108522017D01*
X98274017Y-108398639D01*
X98376574Y-108257481D01*
X98455788Y-108102016D01*
X98509705Y-107936074D01*
X98537000Y-107763741D01*
X98537000Y-107589259D01*
X98860000Y-107589259D01*
X98860000Y-107763740D01*
X98887295Y-107936075D01*
X98941210Y-108102013D01*
X98941211Y-108102016D01*
X98991138Y-108200000D01*
X99020184Y-108257007D01*
X99020428Y-108257484D01*
X99122977Y-108398632D01*
X99122981Y-108398637D01*
X99246362Y-108522018D01*
X99246367Y-108522022D01*
X99369484Y-108611471D01*
X99387519Y-108624574D01*
X99463715Y-108663398D01*
X99542983Y-108703788D01*
X99542986Y-108703789D01*
X99625955Y-108730746D01*
X99708926Y-108757705D01*
X99881259Y-108785000D01*
X99881260Y-108785000D01*
X100055740Y-108785000D01*
X100055741Y-108785000D01*
X100228074Y-108757705D01*
X100394016Y-108703788D01*
X100549481Y-108624574D01*
X100690639Y-108522017D01*
X100814017Y-108398639D01*
X100916574Y-108257481D01*
X100995788Y-108102016D01*
X101049705Y-107936074D01*
X101077000Y-107763741D01*
X101077000Y-107589259D01*
X101400000Y-107589259D01*
X101400000Y-107763740D01*
X101427295Y-107936075D01*
X101481210Y-108102013D01*
X101481211Y-108102016D01*
X101531138Y-108200000D01*
X101560184Y-108257007D01*
X101560428Y-108257484D01*
X101662977Y-108398632D01*
X101662981Y-108398637D01*
X101786362Y-108522018D01*
X101786367Y-108522022D01*
X101909484Y-108611471D01*
X101927519Y-108624574D01*
X102003715Y-108663398D01*
X102082983Y-108703788D01*
X102082986Y-108703789D01*
X102165955Y-108730746D01*
X102248926Y-108757705D01*
X102421259Y-108785000D01*
X102421260Y-108785000D01*
X102595740Y-108785000D01*
X102595741Y-108785000D01*
X102768074Y-108757705D01*
X102934016Y-108703788D01*
X103089481Y-108624574D01*
X103230639Y-108522017D01*
X103354017Y-108398639D01*
X103456574Y-108257481D01*
X103535788Y-108102016D01*
X103589705Y-107936074D01*
X103617000Y-107763741D01*
X103617000Y-107589259D01*
X103940000Y-107589259D01*
X103940000Y-107763740D01*
X103967295Y-107936075D01*
X104021210Y-108102013D01*
X104021211Y-108102016D01*
X104071138Y-108200000D01*
X104100184Y-108257007D01*
X104100428Y-108257484D01*
X104202977Y-108398632D01*
X104202981Y-108398637D01*
X104326362Y-108522018D01*
X104326367Y-108522022D01*
X104449484Y-108611471D01*
X104467519Y-108624574D01*
X104543715Y-108663398D01*
X104622983Y-108703788D01*
X104622986Y-108703789D01*
X104705955Y-108730746D01*
X104788926Y-108757705D01*
X104961259Y-108785000D01*
X104961260Y-108785000D01*
X105135740Y-108785000D01*
X105135741Y-108785000D01*
X105308074Y-108757705D01*
X105474016Y-108703788D01*
X105629481Y-108624574D01*
X105770639Y-108522017D01*
X105894017Y-108398639D01*
X105996574Y-108257481D01*
X106075788Y-108102016D01*
X106129705Y-107936074D01*
X106157000Y-107763741D01*
X106157000Y-107589259D01*
X106129705Y-107416926D01*
X106075788Y-107250984D01*
X106075788Y-107250983D01*
X106025298Y-107151893D01*
X105996574Y-107095519D01*
X105978422Y-107070535D01*
X105894022Y-106954367D01*
X105894018Y-106954362D01*
X105770637Y-106830981D01*
X105770632Y-106830977D01*
X105629484Y-106728428D01*
X105629483Y-106728427D01*
X105629481Y-106728426D01*
X105579675Y-106703048D01*
X105474016Y-106649211D01*
X105474013Y-106649210D01*
X105308075Y-106595295D01*
X105221907Y-106581647D01*
X105135741Y-106568000D01*
X104961259Y-106568000D01*
X104903814Y-106577098D01*
X104788924Y-106595295D01*
X104622986Y-106649210D01*
X104622983Y-106649211D01*
X104467515Y-106728428D01*
X104326367Y-106830977D01*
X104326362Y-106830981D01*
X104202981Y-106954362D01*
X104202977Y-106954367D01*
X104100428Y-107095515D01*
X104021211Y-107250983D01*
X104021210Y-107250986D01*
X103967295Y-107416924D01*
X103940000Y-107589259D01*
X103617000Y-107589259D01*
X103589705Y-107416926D01*
X103535788Y-107250984D01*
X103535788Y-107250983D01*
X103485298Y-107151893D01*
X103456574Y-107095519D01*
X103438422Y-107070535D01*
X103354022Y-106954367D01*
X103354018Y-106954362D01*
X103230637Y-106830981D01*
X103230632Y-106830977D01*
X103089484Y-106728428D01*
X103089483Y-106728427D01*
X103089481Y-106728426D01*
X103039675Y-106703048D01*
X102934016Y-106649211D01*
X102934013Y-106649210D01*
X102768075Y-106595295D01*
X102681907Y-106581647D01*
X102595741Y-106568000D01*
X102421259Y-106568000D01*
X102363814Y-106577098D01*
X102248924Y-106595295D01*
X102082986Y-106649210D01*
X102082983Y-106649211D01*
X101927515Y-106728428D01*
X101786367Y-106830977D01*
X101786362Y-106830981D01*
X101662981Y-106954362D01*
X101662977Y-106954367D01*
X101560428Y-107095515D01*
X101481211Y-107250983D01*
X101481210Y-107250986D01*
X101427295Y-107416924D01*
X101400000Y-107589259D01*
X101077000Y-107589259D01*
X101049705Y-107416926D01*
X100995788Y-107250984D01*
X100995788Y-107250983D01*
X100945298Y-107151893D01*
X100916574Y-107095519D01*
X100898422Y-107070535D01*
X100814022Y-106954367D01*
X100814018Y-106954362D01*
X100690637Y-106830981D01*
X100690632Y-106830977D01*
X100549484Y-106728428D01*
X100549483Y-106728427D01*
X100549481Y-106728426D01*
X100499675Y-106703048D01*
X100394016Y-106649211D01*
X100394013Y-106649210D01*
X100228075Y-106595295D01*
X100141907Y-106581647D01*
X100055741Y-106568000D01*
X99881259Y-106568000D01*
X99823814Y-106577098D01*
X99708924Y-106595295D01*
X99542986Y-106649210D01*
X99542983Y-106649211D01*
X99387515Y-106728428D01*
X99246367Y-106830977D01*
X99246362Y-106830981D01*
X99122981Y-106954362D01*
X99122977Y-106954367D01*
X99020428Y-107095515D01*
X98941211Y-107250983D01*
X98941210Y-107250986D01*
X98887295Y-107416924D01*
X98860000Y-107589259D01*
X98537000Y-107589259D01*
X98509705Y-107416926D01*
X98455788Y-107250984D01*
X98455788Y-107250983D01*
X98405298Y-107151893D01*
X98376574Y-107095519D01*
X98358422Y-107070535D01*
X98274022Y-106954367D01*
X98274018Y-106954362D01*
X98150637Y-106830981D01*
X98150632Y-106830977D01*
X98009484Y-106728428D01*
X98009483Y-106728427D01*
X98009481Y-106728426D01*
X97959675Y-106703048D01*
X97854016Y-106649211D01*
X97854013Y-106649210D01*
X97688075Y-106595295D01*
X97601907Y-106581647D01*
X97515741Y-106568000D01*
X97341259Y-106568000D01*
X97283814Y-106577098D01*
X97168924Y-106595295D01*
X97002986Y-106649210D01*
X97002983Y-106649211D01*
X96847515Y-106728428D01*
X96706367Y-106830977D01*
X96706362Y-106830981D01*
X96582981Y-106954362D01*
X96582977Y-106954367D01*
X96480428Y-107095515D01*
X96401211Y-107250983D01*
X96401210Y-107250986D01*
X96347295Y-107416924D01*
X96320000Y-107589259D01*
X95997000Y-107589259D01*
X95969705Y-107416926D01*
X95915788Y-107250984D01*
X95915788Y-107250983D01*
X95865298Y-107151893D01*
X95836574Y-107095519D01*
X95818422Y-107070535D01*
X95734022Y-106954367D01*
X95734018Y-106954362D01*
X95610637Y-106830981D01*
X95610632Y-106830977D01*
X95469484Y-106728428D01*
X95469483Y-106728427D01*
X95469481Y-106728426D01*
X95419675Y-106703048D01*
X95314016Y-106649211D01*
X95314013Y-106649210D01*
X95148075Y-106595295D01*
X95061907Y-106581647D01*
X94975741Y-106568000D01*
X94801259Y-106568000D01*
X94743814Y-106577098D01*
X94628924Y-106595295D01*
X94462986Y-106649210D01*
X94462983Y-106649211D01*
X94307515Y-106728428D01*
X94166367Y-106830977D01*
X94166362Y-106830981D01*
X94042981Y-106954362D01*
X94042977Y-106954367D01*
X93940428Y-107095515D01*
X93861211Y-107250983D01*
X93861210Y-107250986D01*
X93807295Y-107416924D01*
X93780000Y-107589259D01*
X93457000Y-107589259D01*
X93429705Y-107416926D01*
X93375788Y-107250984D01*
X93375788Y-107250983D01*
X93325298Y-107151893D01*
X93296574Y-107095519D01*
X93278422Y-107070535D01*
X93194022Y-106954367D01*
X93194018Y-106954362D01*
X93070637Y-106830981D01*
X93070632Y-106830977D01*
X92929484Y-106728428D01*
X92929483Y-106728427D01*
X92929481Y-106728426D01*
X92879675Y-106703048D01*
X92774016Y-106649211D01*
X92774013Y-106649210D01*
X92608075Y-106595295D01*
X92521907Y-106581647D01*
X92435741Y-106568000D01*
X92261259Y-106568000D01*
X92203814Y-106577098D01*
X92088924Y-106595295D01*
X91922986Y-106649210D01*
X91922983Y-106649211D01*
X91767515Y-106728428D01*
X91626367Y-106830977D01*
X91626362Y-106830981D01*
X91502981Y-106954362D01*
X91502977Y-106954367D01*
X91400428Y-107095515D01*
X91321211Y-107250983D01*
X91321210Y-107250986D01*
X91267295Y-107416924D01*
X91240000Y-107589259D01*
X90917000Y-107589259D01*
X90889705Y-107416926D01*
X90835788Y-107250984D01*
X90835788Y-107250983D01*
X90785298Y-107151893D01*
X90756574Y-107095519D01*
X90738422Y-107070535D01*
X90654022Y-106954367D01*
X90654018Y-106954362D01*
X90530637Y-106830981D01*
X90530632Y-106830977D01*
X90389484Y-106728428D01*
X90389483Y-106728427D01*
X90389481Y-106728426D01*
X90339675Y-106703048D01*
X90234016Y-106649211D01*
X90234013Y-106649210D01*
X90068075Y-106595295D01*
X89981907Y-106581647D01*
X89895741Y-106568000D01*
X89721259Y-106568000D01*
X89663814Y-106577098D01*
X89548924Y-106595295D01*
X89382986Y-106649210D01*
X89382983Y-106649211D01*
X89227515Y-106728428D01*
X89086367Y-106830977D01*
X89086362Y-106830981D01*
X88962981Y-106954362D01*
X88962977Y-106954367D01*
X88860428Y-107095515D01*
X88781211Y-107250983D01*
X88781210Y-107250986D01*
X88727295Y-107416924D01*
X88700000Y-107589259D01*
X88377000Y-107589259D01*
X88349705Y-107416926D01*
X88295788Y-107250984D01*
X88295788Y-107250983D01*
X88245298Y-107151893D01*
X88216574Y-107095519D01*
X88198422Y-107070535D01*
X88114022Y-106954367D01*
X88114018Y-106954362D01*
X87990637Y-106830981D01*
X87990632Y-106830977D01*
X87849484Y-106728428D01*
X87849483Y-106728427D01*
X87849481Y-106728426D01*
X87799675Y-106703048D01*
X87694016Y-106649211D01*
X87694013Y-106649210D01*
X87528075Y-106595295D01*
X87441907Y-106581647D01*
X87355741Y-106568000D01*
X87181259Y-106568000D01*
X87123814Y-106577098D01*
X87008924Y-106595295D01*
X86842986Y-106649210D01*
X86842983Y-106649211D01*
X86687515Y-106728428D01*
X86546367Y-106830977D01*
X86546362Y-106830981D01*
X86422981Y-106954362D01*
X86422977Y-106954367D01*
X86320428Y-107095515D01*
X86241211Y-107250983D01*
X86241210Y-107250986D01*
X86187295Y-107416924D01*
X86160000Y-107589259D01*
X85837000Y-107589259D01*
X85809705Y-107416926D01*
X85755788Y-107250984D01*
X85755788Y-107250983D01*
X85705298Y-107151893D01*
X85676574Y-107095519D01*
X85658422Y-107070535D01*
X85574022Y-106954367D01*
X85574018Y-106954362D01*
X85450637Y-106830981D01*
X85450632Y-106830977D01*
X85309484Y-106728428D01*
X85309483Y-106728427D01*
X85309481Y-106728426D01*
X85259675Y-106703048D01*
X85154016Y-106649211D01*
X85154013Y-106649210D01*
X84988075Y-106595295D01*
X84901907Y-106581647D01*
X84815741Y-106568000D01*
X84641259Y-106568000D01*
X84583814Y-106577098D01*
X84468924Y-106595295D01*
X84302986Y-106649210D01*
X84302983Y-106649211D01*
X84147515Y-106728428D01*
X84006367Y-106830977D01*
X84006362Y-106830981D01*
X83882981Y-106954362D01*
X83882977Y-106954367D01*
X83780428Y-107095515D01*
X83701211Y-107250983D01*
X83701210Y-107250986D01*
X83647295Y-107416924D01*
X83620000Y-107589259D01*
X83297000Y-107589259D01*
X83269705Y-107416926D01*
X83215788Y-107250984D01*
X83215788Y-107250983D01*
X83165298Y-107151893D01*
X83136574Y-107095519D01*
X83118422Y-107070535D01*
X83034022Y-106954367D01*
X83034018Y-106954362D01*
X82910637Y-106830981D01*
X82910632Y-106830977D01*
X82769484Y-106728428D01*
X82769483Y-106728427D01*
X82769481Y-106728426D01*
X82719675Y-106703048D01*
X82614016Y-106649211D01*
X82614013Y-106649210D01*
X82448075Y-106595295D01*
X82361907Y-106581647D01*
X82275741Y-106568000D01*
X82101259Y-106568000D01*
X82043814Y-106577098D01*
X81928924Y-106595295D01*
X81762986Y-106649210D01*
X81762983Y-106649211D01*
X81607515Y-106728428D01*
X81466367Y-106830977D01*
X81466362Y-106830981D01*
X81342981Y-106954362D01*
X81342977Y-106954367D01*
X81240428Y-107095515D01*
X81161211Y-107250983D01*
X81161210Y-107250986D01*
X81107295Y-107416924D01*
X81080000Y-107589259D01*
X79737462Y-107589259D01*
X79686295Y-107431782D01*
X79589820Y-107242442D01*
X79464927Y-107070540D01*
X79464923Y-107070535D01*
X79314664Y-106920276D01*
X79314659Y-106920272D01*
X79142753Y-106795376D01*
X79142754Y-106795376D01*
X79142508Y-106795251D01*
X79142431Y-106795178D01*
X79138602Y-106792832D01*
X79139095Y-106792027D01*
X79091715Y-106747274D01*
X79074924Y-106679451D01*
X79097466Y-106613318D01*
X79142519Y-106574283D01*
X79147209Y-106571894D01*
X79320204Y-106446206D01*
X79471406Y-106295004D01*
X79597094Y-106122009D01*
X79694172Y-105931483D01*
X79760249Y-105728116D01*
X79793700Y-105516916D01*
X79793700Y-105303084D01*
X79760249Y-105091884D01*
X79694172Y-104888517D01*
X79694172Y-104888516D01*
X79597093Y-104697990D01*
X79503627Y-104569345D01*
X79471406Y-104524996D01*
X79320204Y-104373794D01*
X79147209Y-104248106D01*
X79147205Y-104248103D01*
X79143332Y-104245730D01*
X79096454Y-104193920D01*
X79085029Y-104124991D01*
X79112683Y-104060827D01*
X79143332Y-104034270D01*
X79147205Y-104031896D01*
X79147204Y-104031896D01*
X79147209Y-104031894D01*
X79320204Y-103906206D01*
X79471406Y-103755004D01*
X79597094Y-103582009D01*
X79694172Y-103391483D01*
X79760249Y-103188116D01*
X79793700Y-102976916D01*
X79793700Y-102923163D01*
X79813385Y-102856124D01*
X79866189Y-102810369D01*
X79935347Y-102800425D01*
X79998903Y-102829450D01*
X80020802Y-102854273D01*
X80077267Y-102938779D01*
X80077273Y-102938787D01*
X80203810Y-103065324D01*
X80203814Y-103065327D01*
X80352606Y-103164747D01*
X80352610Y-103164749D01*
X80352613Y-103164751D01*
X80517949Y-103233236D01*
X80693465Y-103268148D01*
X80693469Y-103268149D01*
X80693470Y-103268149D01*
X80872429Y-103268149D01*
X80872430Y-103268148D01*
X81047949Y-103233236D01*
X81213285Y-103164751D01*
X81362084Y-103065327D01*
X81488627Y-102938784D01*
X81588051Y-102789985D01*
X81656536Y-102624649D01*
X81691449Y-102449128D01*
X81691449Y-102270170D01*
X81656536Y-102094649D01*
X81588051Y-101929313D01*
X81588049Y-101929310D01*
X81588047Y-101929306D01*
X81488627Y-101780514D01*
X81488624Y-101780510D01*
X81362087Y-101653973D01*
X81362083Y-101653970D01*
X81213291Y-101554550D01*
X81213281Y-101554545D01*
X81047949Y-101486062D01*
X81047941Y-101486060D01*
X80872432Y-101451149D01*
X80872428Y-101451149D01*
X80786360Y-101451149D01*
X80756919Y-101442504D01*
X80726933Y-101435981D01*
X80721917Y-101432226D01*
X80719321Y-101431464D01*
X80698679Y-101414830D01*
X80680019Y-101396170D01*
X80646534Y-101334847D01*
X80643700Y-101308489D01*
X80643700Y-99969259D01*
X81080000Y-99969259D01*
X81080000Y-100143741D01*
X81093647Y-100229907D01*
X81107295Y-100316075D01*
X81161210Y-100482013D01*
X81161211Y-100482016D01*
X81240428Y-100637484D01*
X81342977Y-100778632D01*
X81342981Y-100778637D01*
X81466362Y-100902018D01*
X81466367Y-100902022D01*
X81544702Y-100958935D01*
X81607519Y-101004574D01*
X81701229Y-101052322D01*
X81762983Y-101083788D01*
X81762986Y-101083789D01*
X81845955Y-101110746D01*
X81928926Y-101137705D01*
X82101259Y-101165000D01*
X82101260Y-101165000D01*
X82275740Y-101165000D01*
X82275741Y-101165000D01*
X82448074Y-101137705D01*
X82456174Y-101135072D01*
X82526013Y-101133074D01*
X82585848Y-101169151D01*
X82616114Y-101228811D01*
X82641611Y-101356992D01*
X82641613Y-101357000D01*
X82710096Y-101522332D01*
X82710101Y-101522342D01*
X82809521Y-101671134D01*
X82809524Y-101671138D01*
X82936061Y-101797675D01*
X82936065Y-101797678D01*
X83084857Y-101897098D01*
X83084861Y-101897100D01*
X83084864Y-101897102D01*
X83250200Y-101965587D01*
X83425716Y-102000499D01*
X83425720Y-102000500D01*
X83425721Y-102000500D01*
X83604680Y-102000500D01*
X83604681Y-102000499D01*
X83780200Y-101965587D01*
X83945536Y-101897102D01*
X84094335Y-101797678D01*
X84220878Y-101671135D01*
X84320302Y-101522336D01*
X84388787Y-101357000D01*
X84410263Y-101249027D01*
X84442647Y-101187120D01*
X84503362Y-101152545D01*
X84551276Y-101150748D01*
X84641259Y-101165000D01*
X84641260Y-101165000D01*
X84815740Y-101165000D01*
X84815741Y-101165000D01*
X84988074Y-101137705D01*
X85154016Y-101083788D01*
X85309481Y-101004574D01*
X85450639Y-100902017D01*
X85574017Y-100778639D01*
X85676574Y-100637481D01*
X85755788Y-100482016D01*
X85809705Y-100316074D01*
X85837000Y-100143741D01*
X85837000Y-99969259D01*
X85809705Y-99796926D01*
X85755788Y-99630984D01*
X85755788Y-99630983D01*
X85720756Y-99562231D01*
X85676574Y-99475519D01*
X85638884Y-99423643D01*
X85574022Y-99334367D01*
X85574018Y-99334362D01*
X85450637Y-99210981D01*
X85450632Y-99210977D01*
X85309484Y-99108428D01*
X85309483Y-99108427D01*
X85309481Y-99108426D01*
X85215846Y-99060716D01*
X85154016Y-99029211D01*
X85154013Y-99029210D01*
X84988075Y-98975295D01*
X84887477Y-98959362D01*
X84815741Y-98948000D01*
X84641259Y-98948000D01*
X84583814Y-98957098D01*
X84468924Y-98975295D01*
X84302986Y-99029210D01*
X84302983Y-99029211D01*
X84147515Y-99108428D01*
X84006367Y-99210977D01*
X84006362Y-99210981D01*
X83882981Y-99334362D01*
X83882977Y-99334367D01*
X83780428Y-99475515D01*
X83701211Y-99630983D01*
X83701210Y-99630986D01*
X83647295Y-99796924D01*
X83620000Y-99969259D01*
X83620000Y-100059500D01*
X83617449Y-100068185D01*
X83618738Y-100077147D01*
X83607759Y-100101187D01*
X83600315Y-100126539D01*
X83593474Y-100132466D01*
X83589713Y-100140703D01*
X83567478Y-100154992D01*
X83547511Y-100172294D01*
X83536996Y-100174581D01*
X83530935Y-100178477D01*
X83496000Y-100183500D01*
X83421000Y-100183500D01*
X83353961Y-100163815D01*
X83308206Y-100111011D01*
X83297000Y-100059500D01*
X83297000Y-99969259D01*
X83291350Y-99933587D01*
X83269705Y-99796926D01*
X83215788Y-99630984D01*
X83215788Y-99630983D01*
X83180756Y-99562231D01*
X83136574Y-99475519D01*
X83098884Y-99423643D01*
X83034022Y-99334367D01*
X83034018Y-99334362D01*
X82910637Y-99210981D01*
X82910632Y-99210977D01*
X82769484Y-99108428D01*
X82769483Y-99108427D01*
X82769481Y-99108426D01*
X82675846Y-99060716D01*
X82614016Y-99029211D01*
X82614013Y-99029210D01*
X82448075Y-98975295D01*
X82347477Y-98959362D01*
X82275741Y-98948000D01*
X82101259Y-98948000D01*
X82043814Y-98957098D01*
X81928924Y-98975295D01*
X81762986Y-99029210D01*
X81762983Y-99029211D01*
X81607515Y-99108428D01*
X81466367Y-99210977D01*
X81466362Y-99210981D01*
X81342981Y-99334362D01*
X81342977Y-99334367D01*
X81240428Y-99475515D01*
X81161211Y-99630983D01*
X81161210Y-99630986D01*
X81107295Y-99796924D01*
X81096497Y-99865102D01*
X81080000Y-99969259D01*
X80643700Y-99969259D01*
X80643700Y-98728611D01*
X80663385Y-98661572D01*
X80680019Y-98640930D01*
X81444930Y-97876019D01*
X81506253Y-97842534D01*
X81532611Y-97839700D01*
X85412582Y-97839700D01*
X85479621Y-97859385D01*
X85500263Y-97876019D01*
X86611008Y-98986764D01*
X86644493Y-99048087D01*
X86639509Y-99117779D01*
X86597637Y-99173712D01*
X86596212Y-99174763D01*
X86546367Y-99210977D01*
X86546362Y-99210981D01*
X86422981Y-99334362D01*
X86422977Y-99334367D01*
X86320428Y-99475515D01*
X86241211Y-99630983D01*
X86241210Y-99630986D01*
X86187295Y-99796924D01*
X86176497Y-99865102D01*
X86160000Y-99969259D01*
X86160000Y-100143741D01*
X86173647Y-100229907D01*
X86187295Y-100316075D01*
X86241210Y-100482013D01*
X86241211Y-100482016D01*
X86320428Y-100637484D01*
X86422977Y-100778632D01*
X86422981Y-100778637D01*
X86546362Y-100902018D01*
X86546367Y-100902022D01*
X86624702Y-100958935D01*
X86687519Y-101004574D01*
X86781229Y-101052322D01*
X86842983Y-101083788D01*
X86842986Y-101083789D01*
X86925955Y-101110746D01*
X87008926Y-101137705D01*
X87181259Y-101165000D01*
X87181260Y-101165000D01*
X87355740Y-101165000D01*
X87355741Y-101165000D01*
X87528074Y-101137705D01*
X87694016Y-101083788D01*
X87695620Y-101082971D01*
X87755771Y-101052322D01*
X87782028Y-101038942D01*
X87850697Y-101026046D01*
X87915438Y-101052322D01*
X87952885Y-101101974D01*
X87998020Y-101210939D01*
X87998025Y-101210949D01*
X88097445Y-101359741D01*
X88097448Y-101359745D01*
X88223985Y-101486282D01*
X88223989Y-101486285D01*
X88372781Y-101585705D01*
X88372785Y-101585707D01*
X88372788Y-101585709D01*
X88538124Y-101654194D01*
X88713640Y-101689106D01*
X88713644Y-101689107D01*
X88713645Y-101689107D01*
X88892604Y-101689107D01*
X88892605Y-101689106D01*
X89068124Y-101654194D01*
X89233460Y-101585709D01*
X89382259Y-101486285D01*
X89508802Y-101359742D01*
X89602705Y-101219205D01*
X89610189Y-101212950D01*
X89614501Y-101204195D01*
X89636560Y-101190911D01*
X89656314Y-101174403D01*
X89667591Y-101172226D01*
X89674357Y-101168152D01*
X89693629Y-101167199D01*
X89709423Y-101164151D01*
X89717361Y-101164382D01*
X89721259Y-101165000D01*
X89738507Y-101165000D01*
X89740323Y-101165053D01*
X89771898Y-101175334D01*
X89803744Y-101184685D01*
X89804972Y-101186103D01*
X89806760Y-101186685D01*
X89827770Y-101212412D01*
X89849499Y-101237489D01*
X89850577Y-101240340D01*
X89850954Y-101240802D01*
X89851041Y-101241568D01*
X89854779Y-101251454D01*
X89923696Y-101417833D01*
X89923701Y-101417843D01*
X90023121Y-101566635D01*
X90023124Y-101566639D01*
X90149661Y-101693176D01*
X90149665Y-101693179D01*
X90298457Y-101792599D01*
X90298461Y-101792601D01*
X90298464Y-101792603D01*
X90463800Y-101861088D01*
X90636214Y-101895383D01*
X90639316Y-101896000D01*
X90639320Y-101896001D01*
X90639321Y-101896001D01*
X90818280Y-101896001D01*
X90818281Y-101896000D01*
X90993800Y-101861088D01*
X91159136Y-101792603D01*
X91307935Y-101693179D01*
X91434478Y-101566636D01*
X91533902Y-101417837D01*
X91602387Y-101252501D01*
X91630403Y-101111654D01*
X91662787Y-101049743D01*
X91723503Y-101015169D01*
X91793272Y-101018908D01*
X91808312Y-101025359D01*
X91840989Y-101042009D01*
X91922979Y-101083786D01*
X91922986Y-101083789D01*
X92005955Y-101110746D01*
X92088926Y-101137705D01*
X92261259Y-101165000D01*
X92261260Y-101165000D01*
X92435740Y-101165000D01*
X92435741Y-101165000D01*
X92608074Y-101137705D01*
X92774016Y-101083788D01*
X92929481Y-101004574D01*
X93070639Y-100902017D01*
X93194017Y-100778639D01*
X93296574Y-100637481D01*
X93375788Y-100482016D01*
X93429705Y-100316074D01*
X93457000Y-100143741D01*
X93457000Y-99969259D01*
X93429705Y-99796926D01*
X93375788Y-99630984D01*
X93375788Y-99630983D01*
X93340756Y-99562231D01*
X93296574Y-99475519D01*
X93258884Y-99423643D01*
X93195744Y-99336737D01*
X93172264Y-99270931D01*
X93188090Y-99202877D01*
X93238195Y-99154182D01*
X93296062Y-99139852D01*
X93453524Y-99139852D01*
X93453525Y-99139851D01*
X93629044Y-99104939D01*
X93794380Y-99036454D01*
X93943179Y-98937030D01*
X94069722Y-98810487D01*
X94169146Y-98661688D01*
X94237631Y-98496352D01*
X94265634Y-98355566D01*
X94298018Y-98293658D01*
X94358734Y-98259084D01*
X94428503Y-98262823D01*
X94485175Y-98303689D01*
X94501811Y-98332305D01*
X94510713Y-98353795D01*
X94510719Y-98353807D01*
X94610139Y-98502599D01*
X94610142Y-98502603D01*
X94736682Y-98629143D01*
X94874004Y-98720898D01*
X94918809Y-98774510D01*
X94927516Y-98843835D01*
X94897362Y-98906862D01*
X94837919Y-98943582D01*
X94805113Y-98948000D01*
X94801259Y-98948000D01*
X94743814Y-98957098D01*
X94628924Y-98975295D01*
X94462986Y-99029210D01*
X94462983Y-99029211D01*
X94307515Y-99108428D01*
X94166367Y-99210977D01*
X94166362Y-99210981D01*
X94042981Y-99334362D01*
X94042977Y-99334367D01*
X93940428Y-99475515D01*
X93861211Y-99630983D01*
X93861210Y-99630986D01*
X93807295Y-99796924D01*
X93796497Y-99865102D01*
X93780000Y-99969259D01*
X93780000Y-100143741D01*
X93793647Y-100229907D01*
X93807295Y-100316075D01*
X93861210Y-100482013D01*
X93861211Y-100482016D01*
X93940428Y-100637484D01*
X94042977Y-100778632D01*
X94042981Y-100778637D01*
X94166362Y-100902018D01*
X94166367Y-100902022D01*
X94244702Y-100958935D01*
X94307519Y-101004574D01*
X94401229Y-101052322D01*
X94462983Y-101083788D01*
X94462986Y-101083789D01*
X94545955Y-101110746D01*
X94628926Y-101137705D01*
X94801259Y-101165000D01*
X94801260Y-101165000D01*
X94975740Y-101165000D01*
X94975741Y-101165000D01*
X95148074Y-101137705D01*
X95314016Y-101083788D01*
X95315620Y-101082971D01*
X95375771Y-101052322D01*
X95431204Y-101024076D01*
X95499873Y-101011180D01*
X95564614Y-101037456D01*
X95604871Y-101094562D01*
X95611500Y-101134561D01*
X95611500Y-101181483D01*
X95646411Y-101356992D01*
X95646413Y-101357000D01*
X95714896Y-101522332D01*
X95714901Y-101522342D01*
X95814321Y-101671134D01*
X95814324Y-101671138D01*
X95940861Y-101797675D01*
X95940865Y-101797678D01*
X96089657Y-101897098D01*
X96089661Y-101897100D01*
X96089664Y-101897102D01*
X96255000Y-101965587D01*
X96430516Y-102000499D01*
X96430520Y-102000500D01*
X96430521Y-102000500D01*
X96609480Y-102000500D01*
X96609481Y-102000499D01*
X96785000Y-101965587D01*
X96950336Y-101897102D01*
X97099135Y-101797678D01*
X97225678Y-101671135D01*
X97325102Y-101522336D01*
X97393587Y-101357000D01*
X97412187Y-101263489D01*
X97444570Y-101201583D01*
X97505285Y-101167008D01*
X97514406Y-101165211D01*
X97515738Y-101165000D01*
X97515741Y-101165000D01*
X97688074Y-101137705D01*
X97769415Y-101111276D01*
X97854013Y-101083789D01*
X97854013Y-101083788D01*
X97854016Y-101083788D01*
X97855620Y-101082971D01*
X97909738Y-101055396D01*
X97978407Y-101042499D01*
X98043148Y-101068775D01*
X98083405Y-101125880D01*
X98087651Y-101141689D01*
X98116513Y-101286789D01*
X98116515Y-101286797D01*
X98184998Y-101452129D01*
X98185003Y-101452139D01*
X98284423Y-101600931D01*
X98284426Y-101600935D01*
X98410963Y-101727472D01*
X98410967Y-101727475D01*
X98559759Y-101826895D01*
X98559763Y-101826897D01*
X98559766Y-101826899D01*
X98725102Y-101895384D01*
X98895641Y-101929306D01*
X98900618Y-101930296D01*
X98900622Y-101930297D01*
X98900623Y-101930297D01*
X99079582Y-101930297D01*
X99079583Y-101930296D01*
X99255102Y-101895384D01*
X99420438Y-101826899D01*
X99569237Y-101727475D01*
X99695780Y-101600932D01*
X99795204Y-101452133D01*
X99863689Y-101286797D01*
X99868062Y-101264808D01*
X99900447Y-101202898D01*
X99961163Y-101168324D01*
X99989680Y-101165000D01*
X100055740Y-101165000D01*
X100055741Y-101165000D01*
X100228074Y-101137705D01*
X100394016Y-101083788D01*
X100549481Y-101004574D01*
X100690639Y-100902017D01*
X100814017Y-100778639D01*
X100916574Y-100637481D01*
X100995788Y-100482016D01*
X101049705Y-100316074D01*
X101077000Y-100143741D01*
X101077000Y-99969259D01*
X101049705Y-99796926D01*
X100995788Y-99630984D01*
X100995788Y-99630983D01*
X100960756Y-99562231D01*
X100916574Y-99475519D01*
X100878884Y-99423643D01*
X100814022Y-99334367D01*
X100814018Y-99334362D01*
X100690637Y-99210981D01*
X100690632Y-99210977D01*
X100549484Y-99108428D01*
X100549483Y-99108427D01*
X100549481Y-99108426D01*
X100455846Y-99060716D01*
X100394016Y-99029211D01*
X100394013Y-99029210D01*
X100228075Y-98975295D01*
X100127477Y-98959362D01*
X100055741Y-98948000D01*
X99881259Y-98948000D01*
X99777399Y-98964449D01*
X99766999Y-98966097D01*
X99697706Y-98957141D01*
X99644254Y-98912144D01*
X99623615Y-98845393D01*
X99623602Y-98843623D01*
X99623602Y-97352907D01*
X99623601Y-97352903D01*
X99609774Y-97283392D01*
X99599257Y-97230517D01*
X99562320Y-97141345D01*
X99551503Y-97115229D01*
X99551498Y-97115220D01*
X99482174Y-97011470D01*
X99439743Y-96969039D01*
X99393935Y-96923231D01*
X97099505Y-94628801D01*
X94587036Y-92116331D01*
X94587032Y-92116328D01*
X94483281Y-92047003D01*
X94483272Y-92046998D01*
X94367985Y-91999245D01*
X94367977Y-91999243D01*
X94245598Y-91974900D01*
X94245594Y-91974900D01*
X91936249Y-91974900D01*
X91869210Y-91955215D01*
X91848568Y-91938581D01*
X91162668Y-91252681D01*
X91129183Y-91191358D01*
X91134167Y-91121666D01*
X91176039Y-91065733D01*
X91241503Y-91041316D01*
X91250349Y-91041000D01*
X91260871Y-91041000D01*
X91260872Y-91040999D01*
X91436391Y-91006087D01*
X91601727Y-90937602D01*
X91602248Y-90937253D01*
X91602563Y-90937155D01*
X91607094Y-90934733D01*
X91607553Y-90935592D01*
X91668920Y-90916373D01*
X91736302Y-90934853D01*
X91740035Y-90937253D01*
X91740556Y-90937601D01*
X91740557Y-90937601D01*
X91740558Y-90937602D01*
X91905894Y-91006087D01*
X92039160Y-91032595D01*
X92081410Y-91040999D01*
X92081414Y-91041000D01*
X92081415Y-91041000D01*
X92260374Y-91041000D01*
X92260375Y-91040999D01*
X92435894Y-91006087D01*
X92601230Y-90937602D01*
X92601751Y-90937253D01*
X92602066Y-90937155D01*
X92606597Y-90934733D01*
X92607056Y-90935592D01*
X92668423Y-90916373D01*
X92735805Y-90934853D01*
X92739538Y-90937253D01*
X92740059Y-90937601D01*
X92740060Y-90937601D01*
X92740061Y-90937602D01*
X92905397Y-91006087D01*
X93038663Y-91032595D01*
X93080913Y-91040999D01*
X93080917Y-91041000D01*
X93080918Y-91041000D01*
X93259877Y-91041000D01*
X93259878Y-91040999D01*
X93435397Y-91006087D01*
X93600733Y-90937602D01*
X93601254Y-90937253D01*
X93601569Y-90937155D01*
X93606100Y-90934733D01*
X93606559Y-90935592D01*
X93667926Y-90916373D01*
X93735308Y-90934853D01*
X93739041Y-90937253D01*
X93739562Y-90937601D01*
X93739563Y-90937601D01*
X93739564Y-90937602D01*
X93904900Y-91006087D01*
X94038166Y-91032595D01*
X94080416Y-91040999D01*
X94080420Y-91041000D01*
X94080421Y-91041000D01*
X94259380Y-91041000D01*
X94259381Y-91040999D01*
X94434900Y-91006087D01*
X94600236Y-90937602D01*
X94600241Y-90937598D01*
X94600244Y-90937597D01*
X94632008Y-90916373D01*
X94682397Y-90882703D01*
X94749073Y-90861825D01*
X94816454Y-90880309D01*
X94863144Y-90932287D01*
X94874321Y-91001257D01*
X94854392Y-91054694D01*
X94827573Y-91094832D01*
X94827570Y-91094838D01*
X94759087Y-91260170D01*
X94759085Y-91260178D01*
X94724174Y-91435687D01*
X94724174Y-91614654D01*
X94759085Y-91790163D01*
X94759087Y-91790171D01*
X94827570Y-91955503D01*
X94827575Y-91955513D01*
X94926995Y-92104305D01*
X94926998Y-92104309D01*
X95053535Y-92230846D01*
X95053539Y-92230849D01*
X95202331Y-92330269D01*
X95202335Y-92330271D01*
X95202338Y-92330273D01*
X95367674Y-92398758D01*
X95507144Y-92426500D01*
X95543190Y-92433670D01*
X95543194Y-92433671D01*
X95543195Y-92433671D01*
X95722154Y-92433671D01*
X95722155Y-92433670D01*
X95897674Y-92398758D01*
X95935486Y-92383095D01*
X96004950Y-92375626D01*
X96067430Y-92406899D01*
X96103084Y-92466987D01*
X96105411Y-92517053D01*
X96091500Y-92604888D01*
X96091500Y-92795116D01*
X96121256Y-92982991D01*
X96180040Y-93163907D01*
X96238286Y-93278219D01*
X96266398Y-93333392D01*
X96378208Y-93487285D01*
X96512715Y-93621792D01*
X96666608Y-93733602D01*
X96746683Y-93774402D01*
X96836092Y-93819959D01*
X96836094Y-93819959D01*
X96836097Y-93819961D01*
X96933070Y-93851469D01*
X97017008Y-93878743D01*
X97204884Y-93908500D01*
X97204889Y-93908500D01*
X97395116Y-93908500D01*
X97582991Y-93878743D01*
X97763903Y-93819961D01*
X97933392Y-93733602D01*
X98087285Y-93621792D01*
X98221792Y-93487285D01*
X98333602Y-93333392D01*
X98419961Y-93163903D01*
X98478743Y-92982991D01*
X98508500Y-92795116D01*
X98508500Y-92604883D01*
X98478743Y-92417008D01*
X98450559Y-92330269D01*
X98419961Y-92236097D01*
X98419959Y-92236094D01*
X98419959Y-92236092D01*
X98358936Y-92116329D01*
X98333602Y-92066608D01*
X98221792Y-91912715D01*
X98087285Y-91778208D01*
X97933392Y-91666398D01*
X97903839Y-91651340D01*
X97763907Y-91580040D01*
X97582991Y-91521256D01*
X97395116Y-91491500D01*
X97395111Y-91491500D01*
X97204889Y-91491500D01*
X97204884Y-91491500D01*
X97017008Y-91521256D01*
X96836089Y-91580041D01*
X96721468Y-91638444D01*
X96652799Y-91651340D01*
X96588059Y-91625063D01*
X96547802Y-91567957D01*
X96541174Y-91527959D01*
X96541174Y-91435691D01*
X96541173Y-91435687D01*
X96525100Y-91354883D01*
X96506261Y-91260171D01*
X96437776Y-91094835D01*
X96437774Y-91094832D01*
X96437772Y-91094828D01*
X96338352Y-90946036D01*
X96338349Y-90946032D01*
X96211812Y-90819495D01*
X96211808Y-90819492D01*
X96063016Y-90720072D01*
X96063006Y-90720067D01*
X95897674Y-90651584D01*
X95897666Y-90651582D01*
X95722157Y-90616671D01*
X95722153Y-90616671D01*
X95543195Y-90616671D01*
X95543190Y-90616671D01*
X95367681Y-90651582D01*
X95367673Y-90651584D01*
X95202341Y-90720067D01*
X95202331Y-90720072D01*
X95120176Y-90774967D01*
X95053498Y-90795845D01*
X94986118Y-90777360D01*
X94939428Y-90725381D01*
X94928252Y-90656411D01*
X94948183Y-90602974D01*
X94974998Y-90562842D01*
X94974998Y-90562841D01*
X94975002Y-90562836D01*
X95043487Y-90397500D01*
X95078400Y-90221979D01*
X95078400Y-90043021D01*
X95043487Y-89867500D01*
X94975002Y-89702164D01*
X94975000Y-89702161D01*
X94974998Y-89702157D01*
X94875578Y-89553365D01*
X94875575Y-89553361D01*
X94749038Y-89426824D01*
X94749034Y-89426821D01*
X94681359Y-89381602D01*
X94636554Y-89327990D01*
X94627847Y-89258665D01*
X94658001Y-89195638D01*
X94717444Y-89158918D01*
X94750250Y-89154500D01*
X102549696Y-89154500D01*
X102616735Y-89174185D01*
G37*
%TD.AperFunction*%
%TA.AperFunction,Conductor*%
G36*
X93936473Y-93261585D02*
G01*
X93957115Y-93278219D01*
X95918845Y-95239949D01*
X95952330Y-95301272D01*
X95947346Y-95370964D01*
X95905474Y-95426897D01*
X95850563Y-95450103D01*
X95717007Y-95471257D01*
X95536092Y-95530040D01*
X95366607Y-95616398D01*
X95278806Y-95680189D01*
X95212715Y-95728208D01*
X95212713Y-95728210D01*
X95212712Y-95728210D01*
X95078210Y-95862712D01*
X95078210Y-95862713D01*
X95078208Y-95862715D01*
X95051007Y-95900154D01*
X94966398Y-96016607D01*
X94880040Y-96186092D01*
X94821256Y-96367008D01*
X94791500Y-96554883D01*
X94791500Y-96745116D01*
X94821256Y-96932991D01*
X94835394Y-96976500D01*
X94847836Y-97014794D01*
X94853194Y-97031282D01*
X94853966Y-97058338D01*
X94858296Y-97085055D01*
X94854949Y-97092742D01*
X94855189Y-97101123D01*
X94841213Y-97124299D01*
X94830410Y-97149118D01*
X94821328Y-97157275D01*
X94819109Y-97160956D01*
X94804153Y-97172703D01*
X94760386Y-97201947D01*
X94693709Y-97222825D01*
X94626329Y-97204340D01*
X94579639Y-97152361D01*
X94569879Y-97123036D01*
X94558461Y-97065635D01*
X94548787Y-97017000D01*
X94480302Y-96851664D01*
X94480300Y-96851661D01*
X94480298Y-96851657D01*
X94380878Y-96702865D01*
X94380875Y-96702861D01*
X94254338Y-96576324D01*
X94254334Y-96576321D01*
X94105542Y-96476901D01*
X94105532Y-96476896D01*
X93940200Y-96408413D01*
X93940192Y-96408411D01*
X93764683Y-96373500D01*
X93764679Y-96373500D01*
X93585721Y-96373500D01*
X93585716Y-96373500D01*
X93410207Y-96408411D01*
X93410199Y-96408413D01*
X93260953Y-96470233D01*
X93191483Y-96477702D01*
X93129004Y-96446427D01*
X93093352Y-96386338D01*
X93089500Y-96355672D01*
X93089500Y-94628805D01*
X93089499Y-94628801D01*
X93065156Y-94506422D01*
X93065155Y-94506415D01*
X93017400Y-94391125D01*
X93017399Y-94391124D01*
X93017396Y-94391118D01*
X92948072Y-94287368D01*
X92938034Y-94277330D01*
X92859833Y-94199129D01*
X92114285Y-93453581D01*
X92080800Y-93392258D01*
X92085784Y-93322566D01*
X92127656Y-93266633D01*
X92193120Y-93242216D01*
X92201966Y-93241900D01*
X93869434Y-93241900D01*
X93936473Y-93261585D01*
G37*
%TD.AperFunction*%
%TA.AperFunction,Conductor*%
G36*
X106229000Y-91276000D02*
G01*
X106519506Y-91276000D01*
X106698293Y-91247682D01*
X106870444Y-91191748D01*
X106870447Y-91191747D01*
X107031734Y-91109565D01*
X107178166Y-91003178D01*
X107184579Y-90996765D01*
X107245901Y-90963277D01*
X107315593Y-90968258D01*
X107371528Y-91010127D01*
X107395949Y-91075590D01*
X107396265Y-91084133D01*
X107410114Y-96637595D01*
X107390596Y-96704683D01*
X107337907Y-96750570D01*
X107268773Y-96760685D01*
X107205145Y-96731819D01*
X107185796Y-96710790D01*
X107123961Y-96625682D01*
X107004317Y-96506038D01*
X106867423Y-96406578D01*
X106716659Y-96329760D01*
X106555726Y-96277469D01*
X106388609Y-96251000D01*
X106229000Y-96251000D01*
X106229000Y-97051000D01*
X105729000Y-97051000D01*
X105729000Y-96251000D01*
X105569391Y-96251000D01*
X105402273Y-96277469D01*
X105241340Y-96329760D01*
X105090576Y-96406578D01*
X104953683Y-96506038D01*
X104953682Y-96506038D01*
X104834038Y-96625682D01*
X104834038Y-96625683D01*
X104734576Y-96762578D01*
X104691494Y-96847132D01*
X104643520Y-96897927D01*
X104575699Y-96914722D01*
X104509564Y-96892184D01*
X104466113Y-96837469D01*
X104458536Y-96810233D01*
X104451912Y-96768409D01*
X104398408Y-96603742D01*
X104319804Y-96449475D01*
X104317810Y-96446731D01*
X104317373Y-96445507D01*
X104317258Y-96445319D01*
X104317297Y-96445294D01*
X104294328Y-96380925D01*
X104310150Y-96312871D01*
X104360254Y-96264174D01*
X104370661Y-96259285D01*
X104387127Y-96252465D01*
X104493669Y-96181276D01*
X104584276Y-96090669D01*
X104655465Y-95984127D01*
X104704501Y-95865744D01*
X104729500Y-95740069D01*
X104729500Y-95611931D01*
X104729500Y-95611928D01*
X104704502Y-95486261D01*
X104704501Y-95486260D01*
X104704501Y-95486256D01*
X104655465Y-95367873D01*
X104655464Y-95367872D01*
X104655461Y-95367866D01*
X104584276Y-95261331D01*
X104584273Y-95261327D01*
X104493672Y-95170726D01*
X104493668Y-95170723D01*
X104387133Y-95099538D01*
X104387124Y-95099533D01*
X104268744Y-95050499D01*
X104268738Y-95050497D01*
X104143071Y-95025500D01*
X104143069Y-95025500D01*
X104014931Y-95025500D01*
X104014929Y-95025500D01*
X103889261Y-95050497D01*
X103889255Y-95050499D01*
X103770875Y-95099533D01*
X103770866Y-95099538D01*
X103664331Y-95170723D01*
X103664327Y-95170726D01*
X103573726Y-95261327D01*
X103573723Y-95261331D01*
X103502538Y-95367866D01*
X103502533Y-95367875D01*
X103453499Y-95486255D01*
X103453497Y-95486261D01*
X103428500Y-95611928D01*
X103428500Y-95611931D01*
X103428500Y-95740069D01*
X103428500Y-95740071D01*
X103428499Y-95740071D01*
X103446500Y-95830562D01*
X103440273Y-95900154D01*
X103429000Y-95917355D01*
X103429000Y-96636288D01*
X103418044Y-96629963D01*
X103309952Y-96601000D01*
X103048048Y-96601000D01*
X102939956Y-96629963D01*
X102929000Y-96636288D01*
X102929000Y-95926000D01*
X102892429Y-95926000D01*
X102721414Y-95953086D01*
X102721407Y-95953087D01*
X102649817Y-95976348D01*
X102579976Y-95978343D01*
X102520143Y-95942262D01*
X102489316Y-95879560D01*
X102487500Y-95858417D01*
X102487500Y-92507470D01*
X102507185Y-92440431D01*
X102538612Y-92407154D01*
X102587285Y-92371792D01*
X102721792Y-92237285D01*
X102833602Y-92083392D01*
X102840361Y-92070125D01*
X102863163Y-92038738D01*
X102896572Y-92005331D01*
X102965901Y-91901573D01*
X103012044Y-91790171D01*
X103013653Y-91786287D01*
X103013656Y-91786279D01*
X103037999Y-91663895D01*
X103038000Y-91663892D01*
X103038000Y-91539103D01*
X103037999Y-91539100D01*
X103012467Y-91410739D01*
X103012850Y-91410662D01*
X103008500Y-91381325D01*
X103008500Y-91354883D01*
X102978743Y-91167008D01*
X102945836Y-91065733D01*
X102935068Y-91032594D01*
X102929000Y-90994276D01*
X102929000Y-90815711D01*
X102939956Y-90822037D01*
X103048048Y-90851000D01*
X103309952Y-90851000D01*
X103418044Y-90822037D01*
X103429000Y-90815711D01*
X103429000Y-91539664D01*
X103446049Y-91570887D01*
X103446500Y-91621436D01*
X103428500Y-91711926D01*
X103428500Y-91711931D01*
X103428500Y-91840069D01*
X103428500Y-91840071D01*
X103428499Y-91840071D01*
X103453497Y-91965738D01*
X103453499Y-91965744D01*
X103502533Y-92084124D01*
X103502538Y-92084133D01*
X103573723Y-92190668D01*
X103573726Y-92190672D01*
X103664327Y-92281273D01*
X103664331Y-92281276D01*
X103770866Y-92352461D01*
X103770872Y-92352464D01*
X103770873Y-92352465D01*
X103889256Y-92401501D01*
X103889260Y-92401501D01*
X103889261Y-92401502D01*
X104014928Y-92426500D01*
X104014931Y-92426500D01*
X104143071Y-92426500D01*
X104241607Y-92406899D01*
X104268744Y-92401501D01*
X104387127Y-92352465D01*
X104493669Y-92281276D01*
X104584276Y-92190669D01*
X104655465Y-92084127D01*
X104704501Y-91965744D01*
X104729500Y-91840069D01*
X104729500Y-91711931D01*
X104729500Y-91711928D01*
X104704502Y-91586261D01*
X104704501Y-91586260D01*
X104704501Y-91586256D01*
X104655465Y-91467873D01*
X104655464Y-91467872D01*
X104655461Y-91467866D01*
X104584276Y-91361331D01*
X104584273Y-91361327D01*
X104493672Y-91270726D01*
X104493668Y-91270723D01*
X104387133Y-91199538D01*
X104387120Y-91199531D01*
X104370673Y-91192719D01*
X104316269Y-91148878D01*
X104294204Y-91082584D01*
X104308091Y-91020986D01*
X104403119Y-90838093D01*
X104423738Y-90816606D01*
X104442415Y-90793422D01*
X104447664Y-90791673D01*
X104451496Y-90787681D01*
X104480455Y-90780753D01*
X104508705Y-90771345D01*
X104514066Y-90772712D01*
X104519448Y-90771425D01*
X104547554Y-90781253D01*
X104576407Y-90788612D01*
X104581270Y-90793043D01*
X104585402Y-90794488D01*
X104591688Y-90802534D01*
X104613472Y-90822381D01*
X104651825Y-90875171D01*
X104779830Y-91003176D01*
X104926265Y-91109565D01*
X105087552Y-91191747D01*
X105087555Y-91191748D01*
X105259706Y-91247682D01*
X105438494Y-91276000D01*
X105729000Y-91276000D01*
X105729000Y-90551000D01*
X106229000Y-90551000D01*
X106229000Y-91276000D01*
G37*
%TD.AperFunction*%
%TD*%
M02*
