%TF.GenerationSoftware,KiCad,Pcbnew,7.0.9*%
%TF.CreationDate,2024-08-09T11:55:52-06:00*%
%TF.ProjectId,SWAG_BAR_LED_ARM,53574147-5f42-4415-925f-4c45445f4152,rev?*%
%TF.SameCoordinates,Original*%
%TF.FileFunction,Copper,L3,Inr*%
%TF.FilePolarity,Positive*%
%FSLAX46Y46*%
G04 Gerber Fmt 4.6, Leading zero omitted, Abs format (unit mm)*
G04 Created by KiCad (PCBNEW 7.0.9) date 2024-08-09 11:55:52*
%MOMM*%
%LPD*%
G01*
G04 APERTURE LIST*
%TA.AperFunction,ComponentPad*%
%ADD10O,1.800000X1.150000*%
%TD*%
%TA.AperFunction,ComponentPad*%
%ADD11O,1.600000X1.200000*%
%TD*%
%TA.AperFunction,ComponentPad*%
%ADD12O,2.200000X1.300000*%
%TD*%
%TA.AperFunction,ComponentPad*%
%ADD13R,1.700000X1.700000*%
%TD*%
%TA.AperFunction,ComponentPad*%
%ADD14O,1.700000X1.700000*%
%TD*%
%TA.AperFunction,ComponentPad*%
%ADD15R,1.200000X1.200000*%
%TD*%
%TA.AperFunction,ComponentPad*%
%ADD16C,1.200000*%
%TD*%
%TA.AperFunction,ViaPad*%
%ADD17C,0.800000*%
%TD*%
%TA.AperFunction,Conductor*%
%ADD18C,0.250000*%
%TD*%
%TA.AperFunction,Conductor*%
%ADD19C,0.200000*%
%TD*%
G04 APERTURE END LIST*
D10*
%TO.N,GND*%
%TO.C,J3*%
X105979000Y-97326000D03*
D11*
X103179000Y-97026000D03*
X103179000Y-90426000D03*
D12*
X105979000Y-90126000D03*
%TD*%
D13*
%TO.N,/SWDIO*%
%TO.C,J1*%
X78435200Y-97790000D03*
D14*
%TO.N,/SWCLK*%
X78435200Y-100330000D03*
%TO.N,/RST*%
X78435200Y-102870000D03*
%TO.N,+3V3*%
X78435200Y-105410000D03*
%TO.N,GND*%
X78435200Y-107950000D03*
%TD*%
D15*
%TO.N,+3V3*%
%TO.C,BAR1*%
X105048500Y-100056500D03*
D16*
X102508500Y-100056500D03*
X99968500Y-100056500D03*
X97428500Y-100056500D03*
X94888500Y-100056500D03*
X92348500Y-100056500D03*
X89808500Y-100056500D03*
X87268500Y-100056500D03*
X84728500Y-100056500D03*
X82188500Y-100056500D03*
%TO.N,/L9*%
X82188500Y-107676500D03*
%TO.N,/L8*%
X84728500Y-107676500D03*
%TO.N,/L7*%
X87268500Y-107676500D03*
%TO.N,/L6*%
X89808500Y-107676500D03*
%TO.N,/L5*%
X92348500Y-107676500D03*
%TO.N,/L4*%
X94888500Y-107676500D03*
%TO.N,/L3*%
X97428500Y-107676500D03*
%TO.N,/L2*%
X99968500Y-107676500D03*
%TO.N,/L1*%
X102508500Y-107676500D03*
%TO.N,/L0*%
X105048500Y-107676500D03*
%TD*%
D17*
%TO.N,/Sig_L9*%
X90728800Y-100987501D03*
X83515200Y-101092000D03*
%TO.N,/Sig_L8*%
X80782949Y-102359649D03*
X88803124Y-100780607D03*
%TO.N,/Sig_L5*%
X83341586Y-90132500D03*
%TO.N,/Sig_L4*%
X88188800Y-90119200D03*
%TO.N,/SWCLK*%
X77673200Y-89662000D03*
%TO.N,+5V*%
X101784553Y-97135995D03*
X102404500Y-91601498D03*
%TO.N,/SWDIO*%
X93170397Y-90132500D03*
%TO.N,/SWCLK*%
X94169900Y-90132500D03*
%TO.N,GND*%
X88519000Y-103886000D03*
X92811600Y-93675200D03*
X83439000Y-104013000D03*
X103632000Y-104013000D03*
X98679000Y-104013000D03*
X93599000Y-104013000D03*
%TO.N,/RST*%
X95632674Y-91525171D03*
%TO.N,/Sig_L1*%
X103505000Y-99060000D03*
X91171391Y-90132500D03*
%TO.N,/Sig_L0*%
X92170894Y-90132500D03*
X101087601Y-97852418D03*
%TO.N,/SW_1*%
X93675200Y-97282000D03*
X86309200Y-90132000D03*
%TO.N,/Sig_L2*%
X90171888Y-90132500D03*
X96520000Y-101092000D03*
X96926400Y-98450400D03*
%TO.N,/Sig_L3*%
X89172385Y-90132500D03*
X98990102Y-101021797D03*
%TO.N,/Sig_L4*%
X93364044Y-98231352D03*
%TO.N,/Sig_L5*%
X94792800Y-97383600D03*
%TD*%
D18*
%TO.N,+5V*%
X101790948Y-97129600D02*
X101784553Y-97135995D01*
X102404500Y-91601498D02*
X101854000Y-92151998D01*
X101854000Y-92151998D02*
X101854000Y-97129600D01*
X101854000Y-97129600D02*
X101790948Y-97129600D01*
%TO.N,/Sig_L4*%
X88188800Y-90529378D02*
X88188800Y-90119200D01*
X91334622Y-93675200D02*
X88188800Y-90529378D01*
X93364044Y-98231352D02*
X92456000Y-97323308D01*
X92456000Y-94691200D02*
X91440000Y-93675200D01*
X92456000Y-97323308D02*
X92456000Y-94691200D01*
X91440000Y-93675200D02*
X91334622Y-93675200D01*
D19*
%TO.N,/Sig_L8*%
X80035200Y-101611900D02*
X80782949Y-102359649D01*
X80035200Y-98425200D02*
X80035200Y-99060000D01*
X80035200Y-99060000D02*
X80035200Y-101611900D01*
X81229200Y-97231200D02*
X80035200Y-98425200D01*
X85715993Y-97231200D02*
X81229200Y-97231200D01*
X88803124Y-100318331D02*
X85715993Y-97231200D01*
X88803124Y-100780607D02*
X88803124Y-100318331D01*
D18*
%TO.N,/SWCLK*%
X79610200Y-96679000D02*
X77673200Y-94742000D01*
X79610200Y-99155000D02*
X79610200Y-96679000D01*
X78435200Y-100330000D02*
X79610200Y-99155000D01*
X77673200Y-94742000D02*
X77673200Y-89662000D01*
X93470702Y-89407500D02*
X77927700Y-89407500D01*
X77927700Y-89407500D02*
X77673200Y-89662000D01*
X94169900Y-90106698D02*
X93470702Y-89407500D01*
X94169900Y-90132500D02*
X94169900Y-90106698D01*
D19*
%TO.N,GND*%
X93827600Y-98755200D02*
X93599000Y-98983800D01*
X95656400Y-98755200D02*
X93827600Y-98755200D01*
X96113600Y-98298000D02*
X95656400Y-98755200D01*
X92811600Y-93953950D02*
X96113600Y-97255950D01*
X96113600Y-97255950D02*
X96113600Y-98298000D01*
X93599000Y-98983800D02*
X93599000Y-104013000D01*
X92811600Y-93675200D02*
X92811600Y-93953950D01*
D18*
%TO.N,/Sig_L1*%
X103251000Y-99060000D02*
X103505000Y-99060000D01*
%TO.N,/Sig_L2*%
X96520000Y-101092000D02*
X96503500Y-101075500D01*
%TO.N,/Sig_L3*%
X91622483Y-92608400D02*
X94183200Y-92608400D01*
X94183200Y-92608400D02*
X98990102Y-97415302D01*
X89172385Y-90132500D02*
X89172385Y-90158302D01*
X98990102Y-97415302D02*
X98990102Y-101021797D01*
X89172385Y-90158302D02*
X91622483Y-92608400D01*
X98990102Y-101021797D02*
X98990102Y-100133102D01*
%TD*%
%TA.AperFunction,Conductor*%
%TO.N,GND*%
G36*
X102609519Y-89174185D02*
G01*
X102655274Y-89226989D01*
X102665218Y-89296147D01*
X102636193Y-89359703D01*
X102577415Y-89397477D01*
X102577414Y-89397477D01*
X102568314Y-89400148D01*
X102381585Y-89496413D01*
X102216462Y-89626268D01*
X102216459Y-89626271D01*
X102078894Y-89785030D01*
X102078885Y-89785041D01*
X101973855Y-89966960D01*
X101973852Y-89966967D01*
X101905144Y-90165482D01*
X101905144Y-90165484D01*
X101903632Y-90176000D01*
X102754393Y-90176000D01*
X102694762Y-90293031D01*
X102673702Y-90426000D01*
X102694762Y-90558969D01*
X102754393Y-90676000D01*
X101907742Y-90676000D01*
X101921868Y-90734227D01*
X101918543Y-90804017D01*
X101878015Y-90860931D01*
X101874250Y-90863778D01*
X101793246Y-90922632D01*
X101665459Y-91064555D01*
X101569973Y-91229941D01*
X101569970Y-91229948D01*
X101510959Y-91411566D01*
X101510958Y-91411570D01*
X101509581Y-91424674D01*
X101493743Y-91575363D01*
X101467158Y-91639977D01*
X101449476Y-91657934D01*
X101446984Y-91659995D01*
X101399015Y-91711077D01*
X101377872Y-91732220D01*
X101377857Y-91732237D01*
X101373531Y-91737812D01*
X101369747Y-91742242D01*
X101337419Y-91776669D01*
X101337412Y-91776679D01*
X101327579Y-91794565D01*
X101316903Y-91810818D01*
X101304386Y-91826955D01*
X101304385Y-91826957D01*
X101285625Y-91870308D01*
X101283055Y-91875554D01*
X101260303Y-91916939D01*
X101260303Y-91916940D01*
X101255225Y-91936718D01*
X101248925Y-91955120D01*
X101240818Y-91973855D01*
X101233431Y-92020493D01*
X101232246Y-92026214D01*
X101220500Y-92071963D01*
X101220500Y-92092382D01*
X101218973Y-92111781D01*
X101216414Y-92127940D01*
X101215780Y-92131941D01*
X101215811Y-92132265D01*
X101220225Y-92178964D01*
X101220500Y-92184802D01*
X101220500Y-96359655D01*
X101200815Y-96426694D01*
X101177178Y-96451724D01*
X101178129Y-96452781D01*
X101173299Y-96457129D01*
X101045512Y-96599052D01*
X100950026Y-96764438D01*
X100950024Y-96764442D01*
X100906383Y-96898756D01*
X100866945Y-96956431D01*
X100814239Y-96981726D01*
X100805315Y-96983623D01*
X100805313Y-96983624D01*
X100640984Y-97056788D01*
X100630845Y-97061302D01*
X100476346Y-97173553D01*
X100348560Y-97315475D01*
X100253074Y-97480861D01*
X100253071Y-97480868D01*
X100195101Y-97659282D01*
X100194059Y-97662490D01*
X100174097Y-97852418D01*
X100194059Y-98042346D01*
X100194060Y-98042349D01*
X100253071Y-98223967D01*
X100253074Y-98223974D01*
X100348561Y-98389362D01*
X100476348Y-98531284D01*
X100630849Y-98643536D01*
X100805313Y-98721212D01*
X100992114Y-98760918D01*
X101183088Y-98760918D01*
X101369889Y-98721212D01*
X101544353Y-98643536D01*
X101698854Y-98531284D01*
X101826641Y-98389362D01*
X101922128Y-98223974D01*
X101965771Y-98089655D01*
X102005207Y-98031982D01*
X102057919Y-98006685D01*
X102066841Y-98004789D01*
X102241305Y-97927113D01*
X102241310Y-97927109D01*
X102242310Y-97926664D01*
X102311560Y-97917380D01*
X102359785Y-97935628D01*
X102472657Y-98008166D01*
X102667685Y-98086244D01*
X102873959Y-98125999D01*
X102875610Y-98126157D01*
X102876383Y-98126466D01*
X102879763Y-98127118D01*
X102879637Y-98127769D01*
X102940476Y-98152120D01*
X102981008Y-98209032D01*
X102984338Y-98278822D01*
X102949407Y-98339333D01*
X102936718Y-98349913D01*
X102893746Y-98381134D01*
X102765959Y-98523057D01*
X102670473Y-98688443D01*
X102670470Y-98688450D01*
X102613977Y-98862318D01*
X102574539Y-98919994D01*
X102510181Y-98947192D01*
X102496046Y-98948000D01*
X102405782Y-98948000D01*
X102203845Y-98985749D01*
X102203842Y-98985749D01*
X102203842Y-98985750D01*
X102012279Y-99059961D01*
X101837616Y-99168109D01*
X101685800Y-99306506D01*
X101561998Y-99470447D01*
X101561993Y-99470455D01*
X101470430Y-99654337D01*
X101470424Y-99654352D01*
X101414206Y-99851939D01*
X101414205Y-99851941D01*
X101395251Y-100056499D01*
X101395251Y-100056500D01*
X101414205Y-100261058D01*
X101414206Y-100261060D01*
X101470424Y-100458647D01*
X101470430Y-100458662D01*
X101561993Y-100642544D01*
X101561998Y-100642552D01*
X101685800Y-100806493D01*
X101791340Y-100902704D01*
X101837618Y-100944892D01*
X102012282Y-101053040D01*
X102203845Y-101127251D01*
X102405782Y-101165000D01*
X102405784Y-101165000D01*
X102611216Y-101165000D01*
X102611218Y-101165000D01*
X102813155Y-101127251D01*
X103004718Y-101053040D01*
X103179382Y-100944892D01*
X103331201Y-100806491D01*
X103455003Y-100642550D01*
X103546574Y-100458652D01*
X103602794Y-100261059D01*
X103621749Y-100056500D01*
X103621748Y-100056495D01*
X103622073Y-100052995D01*
X103647859Y-99988058D01*
X103704659Y-99947370D01*
X103719753Y-99943148D01*
X103787288Y-99928794D01*
X103787292Y-99928792D01*
X103790219Y-99928170D01*
X103859886Y-99933486D01*
X103915620Y-99975623D01*
X103939725Y-100041203D01*
X103940000Y-100049460D01*
X103940000Y-100705154D01*
X103946511Y-100765702D01*
X103946511Y-100765704D01*
X103987662Y-100876030D01*
X103997611Y-100902704D01*
X104085239Y-101019761D01*
X104202296Y-101107389D01*
X104293989Y-101141589D01*
X104322338Y-101152163D01*
X104339299Y-101158489D01*
X104366550Y-101161418D01*
X104399845Y-101164999D01*
X104399862Y-101165000D01*
X105697138Y-101165000D01*
X105697154Y-101164999D01*
X105724192Y-101162091D01*
X105757701Y-101158489D01*
X105894704Y-101107389D01*
X106011761Y-101019761D01*
X106099389Y-100902704D01*
X106150489Y-100765701D01*
X106154091Y-100732192D01*
X106156999Y-100705154D01*
X106157000Y-100705137D01*
X106157000Y-99407862D01*
X106156999Y-99407845D01*
X106153657Y-99376770D01*
X106150489Y-99347299D01*
X106145898Y-99334991D01*
X106127246Y-99284984D01*
X106099389Y-99210296D01*
X106011761Y-99093239D01*
X105894704Y-99005611D01*
X105757703Y-98954511D01*
X105697154Y-98948000D01*
X105697138Y-98948000D01*
X104513954Y-98948000D01*
X104446915Y-98928315D01*
X104401160Y-98875511D01*
X104396023Y-98862318D01*
X104339529Y-98688450D01*
X104339528Y-98688449D01*
X104339527Y-98688444D01*
X104244040Y-98523056D01*
X104116253Y-98381134D01*
X103961752Y-98268882D01*
X103879575Y-98232294D01*
X103826339Y-98187045D01*
X103806018Y-98120196D01*
X103825063Y-98052973D01*
X103873193Y-98008800D01*
X103976412Y-97955587D01*
X104141537Y-97825731D01*
X104141540Y-97825728D01*
X104279105Y-97666969D01*
X104279114Y-97666958D01*
X104371691Y-97506609D01*
X104422258Y-97458394D01*
X104490865Y-97445170D01*
X104555729Y-97471138D01*
X104596258Y-97528052D01*
X104599583Y-97539375D01*
X104633503Y-97679195D01*
X104718787Y-97865943D01*
X104718789Y-97865947D01*
X104837870Y-98033173D01*
X104837875Y-98033179D01*
X104986456Y-98174851D01*
X105159165Y-98285844D01*
X105349761Y-98362147D01*
X105551349Y-98401000D01*
X105729000Y-98401000D01*
X105729000Y-97601000D01*
X106229000Y-97601000D01*
X106229000Y-98401000D01*
X106355205Y-98401000D01*
X106508370Y-98386374D01*
X106508374Y-98386373D01*
X106705351Y-98328536D01*
X106887837Y-98234458D01*
X107049206Y-98107555D01*
X107049209Y-98107551D01*
X107183656Y-97952392D01*
X107187081Y-97947584D01*
X107188707Y-97948742D01*
X107232709Y-97906767D01*
X107301313Y-97893529D01*
X107366183Y-97919482D01*
X107406725Y-97976387D01*
X107413554Y-98016661D01*
X107433063Y-105839780D01*
X107441411Y-109187201D01*
X107441499Y-109222191D01*
X107421981Y-109289279D01*
X107369292Y-109335166D01*
X107317499Y-109346500D01*
X84393654Y-109346500D01*
X79211935Y-109329255D01*
X79144962Y-109309348D01*
X79099383Y-109256392D01*
X79089670Y-109187201D01*
X79118906Y-109123742D01*
X79141224Y-109103681D01*
X79306282Y-108988105D01*
X79473305Y-108821082D01*
X79608800Y-108627578D01*
X79708629Y-108413492D01*
X79708632Y-108413486D01*
X79765836Y-108200000D01*
X78868886Y-108200000D01*
X78894693Y-108159844D01*
X78935200Y-108021889D01*
X78935200Y-107878111D01*
X78894693Y-107740156D01*
X78868886Y-107700000D01*
X79765836Y-107700000D01*
X79765835Y-107699999D01*
X79759539Y-107676500D01*
X81075251Y-107676500D01*
X81094205Y-107881058D01*
X81094206Y-107881060D01*
X81150424Y-108078647D01*
X81150430Y-108078662D01*
X81241993Y-108262544D01*
X81241998Y-108262552D01*
X81365800Y-108426493D01*
X81496404Y-108545553D01*
X81517618Y-108564892D01*
X81692282Y-108673040D01*
X81883845Y-108747251D01*
X82085782Y-108785000D01*
X82085784Y-108785000D01*
X82291216Y-108785000D01*
X82291218Y-108785000D01*
X82493155Y-108747251D01*
X82684718Y-108673040D01*
X82859382Y-108564892D01*
X83011201Y-108426491D01*
X83135003Y-108262550D01*
X83226574Y-108078652D01*
X83282794Y-107881059D01*
X83301749Y-107676500D01*
X83615251Y-107676500D01*
X83634205Y-107881058D01*
X83634206Y-107881060D01*
X83690424Y-108078647D01*
X83690430Y-108078662D01*
X83781993Y-108262544D01*
X83781998Y-108262552D01*
X83905800Y-108426493D01*
X84036404Y-108545553D01*
X84057618Y-108564892D01*
X84232282Y-108673040D01*
X84423845Y-108747251D01*
X84625782Y-108785000D01*
X84625784Y-108785000D01*
X84831216Y-108785000D01*
X84831218Y-108785000D01*
X85033155Y-108747251D01*
X85224718Y-108673040D01*
X85399382Y-108564892D01*
X85551201Y-108426491D01*
X85675003Y-108262550D01*
X85766574Y-108078652D01*
X85822794Y-107881059D01*
X85841749Y-107676500D01*
X86155251Y-107676500D01*
X86174205Y-107881058D01*
X86174206Y-107881060D01*
X86230424Y-108078647D01*
X86230430Y-108078662D01*
X86321993Y-108262544D01*
X86321998Y-108262552D01*
X86445800Y-108426493D01*
X86576404Y-108545553D01*
X86597618Y-108564892D01*
X86772282Y-108673040D01*
X86963845Y-108747251D01*
X87165782Y-108785000D01*
X87165784Y-108785000D01*
X87371216Y-108785000D01*
X87371218Y-108785000D01*
X87573155Y-108747251D01*
X87764718Y-108673040D01*
X87939382Y-108564892D01*
X88091201Y-108426491D01*
X88215003Y-108262550D01*
X88306574Y-108078652D01*
X88362794Y-107881059D01*
X88381749Y-107676500D01*
X88695251Y-107676500D01*
X88714205Y-107881058D01*
X88714206Y-107881060D01*
X88770424Y-108078647D01*
X88770430Y-108078662D01*
X88861993Y-108262544D01*
X88861998Y-108262552D01*
X88985800Y-108426493D01*
X89116404Y-108545553D01*
X89137618Y-108564892D01*
X89312282Y-108673040D01*
X89503845Y-108747251D01*
X89705782Y-108785000D01*
X89705784Y-108785000D01*
X89911216Y-108785000D01*
X89911218Y-108785000D01*
X90113155Y-108747251D01*
X90304718Y-108673040D01*
X90479382Y-108564892D01*
X90631201Y-108426491D01*
X90755003Y-108262550D01*
X90846574Y-108078652D01*
X90902794Y-107881059D01*
X90921749Y-107676500D01*
X91235251Y-107676500D01*
X91254205Y-107881058D01*
X91254206Y-107881060D01*
X91310424Y-108078647D01*
X91310430Y-108078662D01*
X91401993Y-108262544D01*
X91401998Y-108262552D01*
X91525800Y-108426493D01*
X91656404Y-108545553D01*
X91677618Y-108564892D01*
X91852282Y-108673040D01*
X92043845Y-108747251D01*
X92245782Y-108785000D01*
X92245784Y-108785000D01*
X92451216Y-108785000D01*
X92451218Y-108785000D01*
X92653155Y-108747251D01*
X92844718Y-108673040D01*
X93019382Y-108564892D01*
X93171201Y-108426491D01*
X93295003Y-108262550D01*
X93386574Y-108078652D01*
X93442794Y-107881059D01*
X93461749Y-107676500D01*
X93775251Y-107676500D01*
X93794205Y-107881058D01*
X93794206Y-107881060D01*
X93850424Y-108078647D01*
X93850430Y-108078662D01*
X93941993Y-108262544D01*
X93941998Y-108262552D01*
X94065800Y-108426493D01*
X94196404Y-108545553D01*
X94217618Y-108564892D01*
X94392282Y-108673040D01*
X94583845Y-108747251D01*
X94785782Y-108785000D01*
X94785784Y-108785000D01*
X94991216Y-108785000D01*
X94991218Y-108785000D01*
X95193155Y-108747251D01*
X95384718Y-108673040D01*
X95559382Y-108564892D01*
X95711201Y-108426491D01*
X95835003Y-108262550D01*
X95926574Y-108078652D01*
X95982794Y-107881059D01*
X96001749Y-107676500D01*
X96315251Y-107676500D01*
X96334205Y-107881058D01*
X96334206Y-107881060D01*
X96390424Y-108078647D01*
X96390430Y-108078662D01*
X96481993Y-108262544D01*
X96481998Y-108262552D01*
X96605800Y-108426493D01*
X96736404Y-108545553D01*
X96757618Y-108564892D01*
X96932282Y-108673040D01*
X97123845Y-108747251D01*
X97325782Y-108785000D01*
X97325784Y-108785000D01*
X97531216Y-108785000D01*
X97531218Y-108785000D01*
X97733155Y-108747251D01*
X97924718Y-108673040D01*
X98099382Y-108564892D01*
X98251201Y-108426491D01*
X98375003Y-108262550D01*
X98466574Y-108078652D01*
X98522794Y-107881059D01*
X98541749Y-107676500D01*
X98855251Y-107676500D01*
X98874205Y-107881058D01*
X98874206Y-107881060D01*
X98930424Y-108078647D01*
X98930430Y-108078662D01*
X99021993Y-108262544D01*
X99021998Y-108262552D01*
X99145800Y-108426493D01*
X99276404Y-108545553D01*
X99297618Y-108564892D01*
X99472282Y-108673040D01*
X99663845Y-108747251D01*
X99865782Y-108785000D01*
X99865784Y-108785000D01*
X100071216Y-108785000D01*
X100071218Y-108785000D01*
X100273155Y-108747251D01*
X100464718Y-108673040D01*
X100639382Y-108564892D01*
X100791201Y-108426491D01*
X100915003Y-108262550D01*
X101006574Y-108078652D01*
X101062794Y-107881059D01*
X101081749Y-107676500D01*
X101395251Y-107676500D01*
X101414205Y-107881058D01*
X101414206Y-107881060D01*
X101470424Y-108078647D01*
X101470430Y-108078662D01*
X101561993Y-108262544D01*
X101561998Y-108262552D01*
X101685800Y-108426493D01*
X101816404Y-108545553D01*
X101837618Y-108564892D01*
X102012282Y-108673040D01*
X102203845Y-108747251D01*
X102405782Y-108785000D01*
X102405784Y-108785000D01*
X102611216Y-108785000D01*
X102611218Y-108785000D01*
X102813155Y-108747251D01*
X103004718Y-108673040D01*
X103179382Y-108564892D01*
X103331201Y-108426491D01*
X103455003Y-108262550D01*
X103546574Y-108078652D01*
X103602794Y-107881059D01*
X103621749Y-107676500D01*
X103935251Y-107676500D01*
X103954205Y-107881058D01*
X103954206Y-107881060D01*
X104010424Y-108078647D01*
X104010430Y-108078662D01*
X104101993Y-108262544D01*
X104101998Y-108262552D01*
X104225800Y-108426493D01*
X104356404Y-108545553D01*
X104377618Y-108564892D01*
X104552282Y-108673040D01*
X104743845Y-108747251D01*
X104945782Y-108785000D01*
X104945784Y-108785000D01*
X105151216Y-108785000D01*
X105151218Y-108785000D01*
X105353155Y-108747251D01*
X105544718Y-108673040D01*
X105719382Y-108564892D01*
X105871201Y-108426491D01*
X105995003Y-108262550D01*
X106086574Y-108078652D01*
X106142794Y-107881059D01*
X106161749Y-107676500D01*
X106142794Y-107471941D01*
X106086574Y-107274348D01*
X106085614Y-107272420D01*
X105995006Y-107090455D01*
X105995001Y-107090447D01*
X105871199Y-106926506D01*
X105719383Y-106788109D01*
X105719382Y-106788108D01*
X105544718Y-106679960D01*
X105353155Y-106605749D01*
X105151218Y-106568000D01*
X104945782Y-106568000D01*
X104743845Y-106605749D01*
X104743842Y-106605749D01*
X104743842Y-106605750D01*
X104552279Y-106679961D01*
X104377616Y-106788109D01*
X104225800Y-106926506D01*
X104101998Y-107090447D01*
X104101993Y-107090455D01*
X104010430Y-107274337D01*
X104010424Y-107274352D01*
X103954206Y-107471939D01*
X103954205Y-107471941D01*
X103935251Y-107676499D01*
X103935251Y-107676500D01*
X103621749Y-107676500D01*
X103602794Y-107471941D01*
X103546574Y-107274348D01*
X103545614Y-107272420D01*
X103455006Y-107090455D01*
X103455001Y-107090447D01*
X103331199Y-106926506D01*
X103179383Y-106788109D01*
X103179382Y-106788108D01*
X103004718Y-106679960D01*
X102813155Y-106605749D01*
X102611218Y-106568000D01*
X102405782Y-106568000D01*
X102203845Y-106605749D01*
X102203842Y-106605749D01*
X102203842Y-106605750D01*
X102012279Y-106679961D01*
X101837616Y-106788109D01*
X101685800Y-106926506D01*
X101561998Y-107090447D01*
X101561993Y-107090455D01*
X101470430Y-107274337D01*
X101470424Y-107274352D01*
X101414206Y-107471939D01*
X101414205Y-107471941D01*
X101395251Y-107676499D01*
X101395251Y-107676500D01*
X101081749Y-107676500D01*
X101062794Y-107471941D01*
X101006574Y-107274348D01*
X101005614Y-107272420D01*
X100915006Y-107090455D01*
X100915001Y-107090447D01*
X100791199Y-106926506D01*
X100639383Y-106788109D01*
X100639382Y-106788108D01*
X100464718Y-106679960D01*
X100273155Y-106605749D01*
X100071218Y-106568000D01*
X99865782Y-106568000D01*
X99663845Y-106605749D01*
X99663842Y-106605749D01*
X99663842Y-106605750D01*
X99472279Y-106679961D01*
X99297616Y-106788109D01*
X99145800Y-106926506D01*
X99021998Y-107090447D01*
X99021993Y-107090455D01*
X98930430Y-107274337D01*
X98930424Y-107274352D01*
X98874206Y-107471939D01*
X98874205Y-107471941D01*
X98855251Y-107676499D01*
X98855251Y-107676500D01*
X98541749Y-107676500D01*
X98522794Y-107471941D01*
X98466574Y-107274348D01*
X98465614Y-107272420D01*
X98375006Y-107090455D01*
X98375001Y-107090447D01*
X98251199Y-106926506D01*
X98099383Y-106788109D01*
X98099382Y-106788108D01*
X97924718Y-106679960D01*
X97733155Y-106605749D01*
X97531218Y-106568000D01*
X97325782Y-106568000D01*
X97123845Y-106605749D01*
X97123842Y-106605749D01*
X97123842Y-106605750D01*
X96932279Y-106679961D01*
X96757616Y-106788109D01*
X96605800Y-106926506D01*
X96481998Y-107090447D01*
X96481993Y-107090455D01*
X96390430Y-107274337D01*
X96390424Y-107274352D01*
X96334206Y-107471939D01*
X96334205Y-107471941D01*
X96315251Y-107676499D01*
X96315251Y-107676500D01*
X96001749Y-107676500D01*
X95982794Y-107471941D01*
X95926574Y-107274348D01*
X95925614Y-107272420D01*
X95835006Y-107090455D01*
X95835001Y-107090447D01*
X95711199Y-106926506D01*
X95559383Y-106788109D01*
X95559382Y-106788108D01*
X95384718Y-106679960D01*
X95193155Y-106605749D01*
X94991218Y-106568000D01*
X94785782Y-106568000D01*
X94583845Y-106605749D01*
X94583842Y-106605749D01*
X94583842Y-106605750D01*
X94392279Y-106679961D01*
X94217616Y-106788109D01*
X94065800Y-106926506D01*
X93941998Y-107090447D01*
X93941993Y-107090455D01*
X93850430Y-107274337D01*
X93850424Y-107274352D01*
X93794206Y-107471939D01*
X93794205Y-107471941D01*
X93775251Y-107676499D01*
X93775251Y-107676500D01*
X93461749Y-107676500D01*
X93442794Y-107471941D01*
X93386574Y-107274348D01*
X93385614Y-107272420D01*
X93295006Y-107090455D01*
X93295001Y-107090447D01*
X93171199Y-106926506D01*
X93019383Y-106788109D01*
X93019382Y-106788108D01*
X92844718Y-106679960D01*
X92653155Y-106605749D01*
X92451218Y-106568000D01*
X92245782Y-106568000D01*
X92043845Y-106605749D01*
X92043842Y-106605749D01*
X92043842Y-106605750D01*
X91852279Y-106679961D01*
X91677616Y-106788109D01*
X91525800Y-106926506D01*
X91401998Y-107090447D01*
X91401993Y-107090455D01*
X91310430Y-107274337D01*
X91310424Y-107274352D01*
X91254206Y-107471939D01*
X91254205Y-107471941D01*
X91235251Y-107676499D01*
X91235251Y-107676500D01*
X90921749Y-107676500D01*
X90902794Y-107471941D01*
X90846574Y-107274348D01*
X90845614Y-107272420D01*
X90755006Y-107090455D01*
X90755001Y-107090447D01*
X90631199Y-106926506D01*
X90479383Y-106788109D01*
X90479382Y-106788108D01*
X90304718Y-106679960D01*
X90113155Y-106605749D01*
X89911218Y-106568000D01*
X89705782Y-106568000D01*
X89503845Y-106605749D01*
X89503842Y-106605749D01*
X89503842Y-106605750D01*
X89312279Y-106679961D01*
X89137616Y-106788109D01*
X88985800Y-106926506D01*
X88861998Y-107090447D01*
X88861993Y-107090455D01*
X88770430Y-107274337D01*
X88770424Y-107274352D01*
X88714206Y-107471939D01*
X88714205Y-107471941D01*
X88695251Y-107676499D01*
X88695251Y-107676500D01*
X88381749Y-107676500D01*
X88362794Y-107471941D01*
X88306574Y-107274348D01*
X88305614Y-107272420D01*
X88215006Y-107090455D01*
X88215001Y-107090447D01*
X88091199Y-106926506D01*
X87939383Y-106788109D01*
X87939382Y-106788108D01*
X87764718Y-106679960D01*
X87573155Y-106605749D01*
X87371218Y-106568000D01*
X87165782Y-106568000D01*
X86963845Y-106605749D01*
X86963842Y-106605749D01*
X86963842Y-106605750D01*
X86772279Y-106679961D01*
X86597616Y-106788109D01*
X86445800Y-106926506D01*
X86321998Y-107090447D01*
X86321993Y-107090455D01*
X86230430Y-107274337D01*
X86230424Y-107274352D01*
X86174206Y-107471939D01*
X86174205Y-107471941D01*
X86155251Y-107676499D01*
X86155251Y-107676500D01*
X85841749Y-107676500D01*
X85822794Y-107471941D01*
X85766574Y-107274348D01*
X85765614Y-107272420D01*
X85675006Y-107090455D01*
X85675001Y-107090447D01*
X85551199Y-106926506D01*
X85399383Y-106788109D01*
X85399382Y-106788108D01*
X85224718Y-106679960D01*
X85033155Y-106605749D01*
X84831218Y-106568000D01*
X84625782Y-106568000D01*
X84423845Y-106605749D01*
X84423842Y-106605749D01*
X84423842Y-106605750D01*
X84232279Y-106679961D01*
X84057616Y-106788109D01*
X83905800Y-106926506D01*
X83781998Y-107090447D01*
X83781993Y-107090455D01*
X83690430Y-107274337D01*
X83690424Y-107274352D01*
X83634206Y-107471939D01*
X83634205Y-107471941D01*
X83615251Y-107676499D01*
X83615251Y-107676500D01*
X83301749Y-107676500D01*
X83282794Y-107471941D01*
X83226574Y-107274348D01*
X83225614Y-107272420D01*
X83135006Y-107090455D01*
X83135001Y-107090447D01*
X83011199Y-106926506D01*
X82859383Y-106788109D01*
X82859382Y-106788108D01*
X82684718Y-106679960D01*
X82493155Y-106605749D01*
X82291218Y-106568000D01*
X82085782Y-106568000D01*
X81883845Y-106605749D01*
X81883842Y-106605749D01*
X81883842Y-106605750D01*
X81692279Y-106679961D01*
X81517616Y-106788109D01*
X81365800Y-106926506D01*
X81241998Y-107090447D01*
X81241993Y-107090455D01*
X81150430Y-107274337D01*
X81150424Y-107274352D01*
X81094206Y-107471939D01*
X81094205Y-107471941D01*
X81075251Y-107676499D01*
X81075251Y-107676500D01*
X79759539Y-107676500D01*
X79708632Y-107486513D01*
X79708629Y-107486507D01*
X79608800Y-107272422D01*
X79608799Y-107272420D01*
X79473313Y-107078926D01*
X79473308Y-107078920D01*
X79306282Y-106911894D01*
X79125397Y-106785236D01*
X79081772Y-106730659D01*
X79074580Y-106661160D01*
X79106102Y-106598806D01*
X79137500Y-106574608D01*
X79180776Y-106551189D01*
X79358440Y-106412906D01*
X79510922Y-106247268D01*
X79634060Y-106058791D01*
X79724496Y-105852616D01*
X79779764Y-105634368D01*
X79798356Y-105410000D01*
X79779764Y-105185632D01*
X79724496Y-104967384D01*
X79634060Y-104761209D01*
X79588881Y-104692058D01*
X79510923Y-104572734D01*
X79510915Y-104572723D01*
X79358443Y-104407097D01*
X79358438Y-104407092D01*
X79180777Y-104268812D01*
X79180778Y-104268812D01*
X79180776Y-104268811D01*
X79144270Y-104249055D01*
X79094679Y-104199836D01*
X79079571Y-104131619D01*
X79103741Y-104066064D01*
X79144270Y-104030945D01*
X79144284Y-104030936D01*
X79180776Y-104011189D01*
X79358440Y-103872906D01*
X79510922Y-103707268D01*
X79634060Y-103518791D01*
X79724496Y-103312616D01*
X79779764Y-103094368D01*
X79794509Y-102916417D01*
X79819662Y-102851237D01*
X79876064Y-102809998D01*
X79945807Y-102805800D01*
X80006749Y-102839974D01*
X80025471Y-102864659D01*
X80028555Y-102870000D01*
X80043909Y-102896593D01*
X80171696Y-103038515D01*
X80326197Y-103150767D01*
X80500661Y-103228443D01*
X80687462Y-103268149D01*
X80878436Y-103268149D01*
X81065237Y-103228443D01*
X81239701Y-103150767D01*
X81394202Y-103038515D01*
X81521989Y-102896593D01*
X81617476Y-102731205D01*
X81676491Y-102549577D01*
X81696453Y-102359649D01*
X81676491Y-102169721D01*
X81617476Y-101988093D01*
X81521989Y-101822705D01*
X81394202Y-101680783D01*
X81239701Y-101568531D01*
X81065237Y-101490855D01*
X81065235Y-101490854D01*
X80878436Y-101451149D01*
X80786360Y-101451149D01*
X80719321Y-101431464D01*
X80698679Y-101414830D01*
X80680019Y-101396170D01*
X80646534Y-101334847D01*
X80643700Y-101308489D01*
X80643700Y-100056500D01*
X81075251Y-100056500D01*
X81094205Y-100261058D01*
X81094206Y-100261060D01*
X81150424Y-100458647D01*
X81150430Y-100458662D01*
X81241993Y-100642544D01*
X81241998Y-100642552D01*
X81365800Y-100806493D01*
X81471340Y-100902704D01*
X81517618Y-100944892D01*
X81692282Y-101053040D01*
X81883845Y-101127251D01*
X82085782Y-101165000D01*
X82085784Y-101165000D01*
X82291216Y-101165000D01*
X82291218Y-101165000D01*
X82471177Y-101131359D01*
X82540690Y-101138390D01*
X82595368Y-101181887D01*
X82617280Y-101240284D01*
X82621657Y-101281925D01*
X82621658Y-101281929D01*
X82680670Y-101463549D01*
X82680673Y-101463556D01*
X82776160Y-101628944D01*
X82878490Y-101742594D01*
X82903923Y-101770840D01*
X82903947Y-101770866D01*
X83058448Y-101883118D01*
X83232912Y-101960794D01*
X83419713Y-102000500D01*
X83610687Y-102000500D01*
X83797488Y-101960794D01*
X83971952Y-101883118D01*
X84126453Y-101770866D01*
X84254240Y-101628944D01*
X84349727Y-101463556D01*
X84408742Y-101281928D01*
X84410933Y-101261079D01*
X84437515Y-101196465D01*
X84494811Y-101156478D01*
X84557037Y-101152149D01*
X84625782Y-101165000D01*
X84625784Y-101165000D01*
X84831216Y-101165000D01*
X84831218Y-101165000D01*
X85033155Y-101127251D01*
X85224718Y-101053040D01*
X85399382Y-100944892D01*
X85551201Y-100806491D01*
X85675003Y-100642550D01*
X85766574Y-100458652D01*
X85822794Y-100261059D01*
X85841749Y-100056500D01*
X85822794Y-99851941D01*
X85766574Y-99654348D01*
X85745516Y-99612058D01*
X85675006Y-99470455D01*
X85675001Y-99470447D01*
X85551199Y-99306506D01*
X85399383Y-99168109D01*
X85399382Y-99168108D01*
X85224718Y-99059960D01*
X85033155Y-98985749D01*
X84831218Y-98948000D01*
X84625782Y-98948000D01*
X84423845Y-98985749D01*
X84423842Y-98985749D01*
X84423842Y-98985750D01*
X84232279Y-99059961D01*
X84057616Y-99168109D01*
X83905800Y-99306506D01*
X83781998Y-99470447D01*
X83781993Y-99470455D01*
X83690430Y-99654337D01*
X83690424Y-99654352D01*
X83634206Y-99851939D01*
X83634205Y-99851941D01*
X83615251Y-100056499D01*
X83615251Y-100059500D01*
X83614844Y-100060883D01*
X83614722Y-100062208D01*
X83614462Y-100062183D01*
X83595566Y-100126539D01*
X83542762Y-100172294D01*
X83491251Y-100183500D01*
X83425749Y-100183500D01*
X83358710Y-100163815D01*
X83312955Y-100111011D01*
X83302336Y-100062202D01*
X83302278Y-100062208D01*
X83302233Y-100061726D01*
X83301749Y-100059500D01*
X83301749Y-100056499D01*
X83282794Y-99851941D01*
X83282793Y-99851939D01*
X83234216Y-99681209D01*
X83226574Y-99654348D01*
X83205516Y-99612058D01*
X83135006Y-99470455D01*
X83135001Y-99470447D01*
X83011199Y-99306506D01*
X82859383Y-99168109D01*
X82859382Y-99168108D01*
X82684718Y-99059960D01*
X82493155Y-98985749D01*
X82291218Y-98948000D01*
X82085782Y-98948000D01*
X81883845Y-98985749D01*
X81883842Y-98985749D01*
X81883842Y-98985750D01*
X81692279Y-99059961D01*
X81517616Y-99168109D01*
X81365800Y-99306506D01*
X81241998Y-99470447D01*
X81241993Y-99470455D01*
X81150430Y-99654337D01*
X81150424Y-99654352D01*
X81094206Y-99851939D01*
X81094205Y-99851941D01*
X81075251Y-100056499D01*
X81075251Y-100056500D01*
X80643700Y-100056500D01*
X80643700Y-98728611D01*
X80663385Y-98661572D01*
X80680019Y-98640930D01*
X81444930Y-97876019D01*
X81506253Y-97842534D01*
X81532611Y-97839700D01*
X85412582Y-97839700D01*
X85479621Y-97859385D01*
X85500263Y-97876019D01*
X86607805Y-98983561D01*
X86641290Y-99044884D01*
X86636306Y-99114576D01*
X86600452Y-99162709D01*
X86601854Y-99164246D01*
X86445800Y-99306506D01*
X86321998Y-99470447D01*
X86321993Y-99470455D01*
X86230430Y-99654337D01*
X86230424Y-99654352D01*
X86174206Y-99851939D01*
X86174205Y-99851941D01*
X86155251Y-100056499D01*
X86155251Y-100056500D01*
X86174205Y-100261058D01*
X86174206Y-100261060D01*
X86230424Y-100458647D01*
X86230430Y-100458662D01*
X86321993Y-100642544D01*
X86321998Y-100642552D01*
X86445800Y-100806493D01*
X86551340Y-100902704D01*
X86597618Y-100944892D01*
X86772282Y-101053040D01*
X86963845Y-101127251D01*
X87165782Y-101165000D01*
X87165784Y-101165000D01*
X87371216Y-101165000D01*
X87371218Y-101165000D01*
X87573155Y-101127251D01*
X87764718Y-101053040D01*
X87773260Y-101047750D01*
X87840619Y-101029191D01*
X87907319Y-101049996D01*
X87952184Y-101103558D01*
X87956473Y-101114854D01*
X87968592Y-101152153D01*
X87968597Y-101152163D01*
X88064084Y-101317551D01*
X88191871Y-101459473D01*
X88346372Y-101571725D01*
X88520836Y-101649401D01*
X88707637Y-101689107D01*
X88898611Y-101689107D01*
X89085412Y-101649401D01*
X89259876Y-101571725D01*
X89414377Y-101459473D01*
X89542164Y-101317551D01*
X89588388Y-101237489D01*
X89594444Y-101227000D01*
X89645011Y-101178784D01*
X89701831Y-101165000D01*
X89705782Y-101165000D01*
X89741129Y-101165000D01*
X89808168Y-101184685D01*
X89853923Y-101237489D01*
X89859060Y-101250682D01*
X89894270Y-101359051D01*
X89894273Y-101359057D01*
X89989760Y-101524445D01*
X90032597Y-101572020D01*
X90101160Y-101648168D01*
X90117547Y-101666367D01*
X90272048Y-101778619D01*
X90446512Y-101856295D01*
X90633313Y-101896001D01*
X90824287Y-101896001D01*
X91011088Y-101856295D01*
X91185552Y-101778619D01*
X91340053Y-101666367D01*
X91467840Y-101524445D01*
X91563327Y-101359057D01*
X91622342Y-101177429D01*
X91628018Y-101123419D01*
X91654601Y-101058808D01*
X91711898Y-101018823D01*
X91781717Y-101016162D01*
X91816617Y-101030957D01*
X91852278Y-101053038D01*
X91852280Y-101053038D01*
X91852282Y-101053040D01*
X92043845Y-101127251D01*
X92245782Y-101165000D01*
X92245784Y-101165000D01*
X92451216Y-101165000D01*
X92451218Y-101165000D01*
X92653155Y-101127251D01*
X92844718Y-101053040D01*
X93019382Y-100944892D01*
X93171201Y-100806491D01*
X93295003Y-100642550D01*
X93386574Y-100458652D01*
X93442794Y-100261059D01*
X93461749Y-100056500D01*
X93442794Y-99851941D01*
X93386574Y-99654348D01*
X93365516Y-99612058D01*
X93295006Y-99470455D01*
X93295001Y-99470447D01*
X93195419Y-99338579D01*
X93170727Y-99273217D01*
X93185292Y-99204883D01*
X93234490Y-99155270D01*
X93294373Y-99139852D01*
X93459531Y-99139852D01*
X93646332Y-99100146D01*
X93820796Y-99022470D01*
X93975297Y-98910218D01*
X94103084Y-98768296D01*
X94198571Y-98602908D01*
X94257586Y-98421280D01*
X94268009Y-98322101D01*
X94294593Y-98257489D01*
X94351891Y-98217504D01*
X94421710Y-98214844D01*
X94441761Y-98221784D01*
X94510512Y-98252394D01*
X94697313Y-98292100D01*
X94888287Y-98292100D01*
X95075088Y-98252394D01*
X95249552Y-98174718D01*
X95404053Y-98062466D01*
X95531840Y-97920544D01*
X95627327Y-97755156D01*
X95686342Y-97573528D01*
X95706304Y-97383600D01*
X95686342Y-97193672D01*
X95627327Y-97012044D01*
X95531840Y-96846656D01*
X95404053Y-96704734D01*
X95249552Y-96592482D01*
X95075088Y-96514806D01*
X95075086Y-96514805D01*
X94888287Y-96475100D01*
X94697313Y-96475100D01*
X94510513Y-96514805D01*
X94510510Y-96514806D01*
X94361607Y-96581101D01*
X94292357Y-96590385D01*
X94238288Y-96568139D01*
X94131956Y-96490884D01*
X94127974Y-96489111D01*
X93957488Y-96413206D01*
X93957486Y-96413205D01*
X93770687Y-96373500D01*
X93579713Y-96373500D01*
X93392913Y-96413205D01*
X93392910Y-96413206D01*
X93263934Y-96470629D01*
X93194684Y-96479913D01*
X93131408Y-96450284D01*
X93094195Y-96391148D01*
X93089500Y-96357349D01*
X93089500Y-94774831D01*
X93091239Y-94759079D01*
X93090968Y-94759054D01*
X93091700Y-94751298D01*
X93091702Y-94751291D01*
X93089500Y-94681228D01*
X93089500Y-94651344D01*
X93088614Y-94644341D01*
X93088157Y-94638522D01*
X93086674Y-94591311D01*
X93080976Y-94571699D01*
X93077033Y-94552666D01*
X93074474Y-94532403D01*
X93057085Y-94488486D01*
X93055196Y-94482966D01*
X93042018Y-94437607D01*
X93031626Y-94420035D01*
X93023066Y-94402562D01*
X93015552Y-94383583D01*
X92987794Y-94345379D01*
X92984587Y-94340496D01*
X92964238Y-94306088D01*
X92960542Y-94299838D01*
X92946108Y-94285404D01*
X92933471Y-94270609D01*
X92921472Y-94254093D01*
X92921470Y-94254090D01*
X92885073Y-94223981D01*
X92880751Y-94220047D01*
X92114285Y-93453581D01*
X92080800Y-93392258D01*
X92085784Y-93322566D01*
X92127656Y-93266633D01*
X92193120Y-93242216D01*
X92201966Y-93241900D01*
X93869434Y-93241900D01*
X93936473Y-93261585D01*
X93957115Y-93278219D01*
X98320283Y-97641387D01*
X98353768Y-97702710D01*
X98356602Y-97729068D01*
X98356602Y-99121761D01*
X98336917Y-99188800D01*
X98284113Y-99234555D01*
X98214955Y-99244499D01*
X98151399Y-99215474D01*
X98149064Y-99213399D01*
X98122080Y-99188800D01*
X98099382Y-99168108D01*
X97989620Y-99100146D01*
X97924720Y-99059961D01*
X97924718Y-99059960D01*
X97813528Y-99016885D01*
X97758128Y-98974313D01*
X97734537Y-98908546D01*
X97750248Y-98840466D01*
X97750811Y-98839476D01*
X97760927Y-98821956D01*
X97819942Y-98640328D01*
X97839904Y-98450400D01*
X97819942Y-98260472D01*
X97760927Y-98078844D01*
X97665440Y-97913456D01*
X97537653Y-97771534D01*
X97383152Y-97659282D01*
X97208688Y-97581606D01*
X97208686Y-97581605D01*
X97021887Y-97541900D01*
X96830913Y-97541900D01*
X96644114Y-97581605D01*
X96469646Y-97659283D01*
X96315145Y-97771535D01*
X96187359Y-97913457D01*
X96091873Y-98078843D01*
X96091870Y-98078850D01*
X96034521Y-98255353D01*
X96032858Y-98260472D01*
X96012896Y-98450400D01*
X96032858Y-98640328D01*
X96032859Y-98640331D01*
X96091870Y-98821949D01*
X96091873Y-98821956D01*
X96187360Y-98987344D01*
X96315147Y-99129266D01*
X96469648Y-99241518D01*
X96469651Y-99241520D01*
X96475278Y-99244769D01*
X96474062Y-99246874D01*
X96518925Y-99284984D01*
X96539266Y-99351827D01*
X96520240Y-99419057D01*
X96514227Y-99427768D01*
X96482001Y-99470442D01*
X96481993Y-99470455D01*
X96390430Y-99654337D01*
X96390424Y-99654352D01*
X96334206Y-99851939D01*
X96334205Y-99851941D01*
X96315251Y-100056499D01*
X96315251Y-100056503D01*
X96318831Y-100095146D01*
X96305415Y-100163715D01*
X96257057Y-100214146D01*
X96243473Y-100220172D01*
X96243647Y-100220563D01*
X96168925Y-100253830D01*
X96099674Y-100263114D01*
X96036398Y-100233484D01*
X95999186Y-100174349D01*
X95995020Y-100129112D01*
X96001749Y-100056500D01*
X95982794Y-99851941D01*
X95926574Y-99654348D01*
X95905516Y-99612058D01*
X95835006Y-99470455D01*
X95835001Y-99470447D01*
X95711199Y-99306506D01*
X95559383Y-99168109D01*
X95559382Y-99168108D01*
X95384718Y-99059960D01*
X95193155Y-98985749D01*
X94991218Y-98948000D01*
X94785782Y-98948000D01*
X94583845Y-98985749D01*
X94583842Y-98985749D01*
X94583842Y-98985750D01*
X94392279Y-99059961D01*
X94217616Y-99168109D01*
X94065800Y-99306506D01*
X93941998Y-99470447D01*
X93941993Y-99470455D01*
X93850430Y-99654337D01*
X93850424Y-99654352D01*
X93794206Y-99851939D01*
X93794205Y-99851941D01*
X93775251Y-100056499D01*
X93775251Y-100056500D01*
X93794205Y-100261058D01*
X93794206Y-100261060D01*
X93850424Y-100458647D01*
X93850430Y-100458662D01*
X93941993Y-100642544D01*
X93941998Y-100642552D01*
X94065800Y-100806493D01*
X94171340Y-100902704D01*
X94217618Y-100944892D01*
X94392282Y-101053040D01*
X94583845Y-101127251D01*
X94785782Y-101165000D01*
X94785784Y-101165000D01*
X94991216Y-101165000D01*
X94991218Y-101165000D01*
X95193155Y-101127251D01*
X95384718Y-101053040D01*
X95384723Y-101053037D01*
X95384725Y-101053036D01*
X95421150Y-101030483D01*
X95488510Y-101011926D01*
X95555210Y-101032734D01*
X95600071Y-101086299D01*
X95609748Y-101122944D01*
X95626458Y-101281928D01*
X95626459Y-101281931D01*
X95685470Y-101463549D01*
X95685473Y-101463556D01*
X95780960Y-101628944D01*
X95883290Y-101742594D01*
X95908723Y-101770840D01*
X95908747Y-101770866D01*
X96063248Y-101883118D01*
X96237712Y-101960794D01*
X96424513Y-102000500D01*
X96615487Y-102000500D01*
X96802288Y-101960794D01*
X96976752Y-101883118D01*
X97131253Y-101770866D01*
X97259040Y-101628944D01*
X97354527Y-101463556D01*
X97413542Y-101281928D01*
X97414166Y-101275993D01*
X97440747Y-101211378D01*
X97498043Y-101171391D01*
X97526049Y-101165479D01*
X97531212Y-101165000D01*
X97531218Y-101165000D01*
X97733155Y-101127251D01*
X97922642Y-101053843D01*
X97992266Y-101047982D01*
X98054006Y-101080692D01*
X98088261Y-101141589D01*
X98090756Y-101156503D01*
X98096560Y-101211725D01*
X98096561Y-101211728D01*
X98155572Y-101393346D01*
X98155575Y-101393353D01*
X98251062Y-101558741D01*
X98378849Y-101700663D01*
X98533350Y-101812915D01*
X98707814Y-101890591D01*
X98894615Y-101930297D01*
X99085589Y-101930297D01*
X99272390Y-101890591D01*
X99446854Y-101812915D01*
X99601355Y-101700663D01*
X99729142Y-101558741D01*
X99824629Y-101393353D01*
X99870986Y-101250682D01*
X99910423Y-101193006D01*
X99974782Y-101165808D01*
X99988917Y-101165000D01*
X100071216Y-101165000D01*
X100071218Y-101165000D01*
X100273155Y-101127251D01*
X100464718Y-101053040D01*
X100639382Y-100944892D01*
X100791201Y-100806491D01*
X100915003Y-100642550D01*
X101006574Y-100458652D01*
X101062794Y-100261059D01*
X101081749Y-100056500D01*
X101062794Y-99851941D01*
X101006574Y-99654348D01*
X100985516Y-99612058D01*
X100915006Y-99470455D01*
X100915001Y-99470447D01*
X100791199Y-99306506D01*
X100639383Y-99168109D01*
X100639382Y-99168108D01*
X100464718Y-99059960D01*
X100273155Y-98985749D01*
X100071218Y-98948000D01*
X99865782Y-98948000D01*
X99770385Y-98965832D01*
X99700872Y-98958802D01*
X99646194Y-98915305D01*
X99623711Y-98849151D01*
X99623602Y-98843944D01*
X99623602Y-97498933D01*
X99625340Y-97483183D01*
X99625070Y-97483158D01*
X99625803Y-97475396D01*
X99625804Y-97475393D01*
X99623602Y-97405344D01*
X99623602Y-97375446D01*
X99622716Y-97368438D01*
X99622258Y-97362616D01*
X99620775Y-97315413D01*
X99620774Y-97315411D01*
X99615081Y-97295817D01*
X99611134Y-97276761D01*
X99608576Y-97256505D01*
X99591186Y-97212585D01*
X99589297Y-97207065D01*
X99580839Y-97177954D01*
X99576120Y-97161709D01*
X99565724Y-97144131D01*
X99557168Y-97126664D01*
X99549654Y-97107685D01*
X99521896Y-97069481D01*
X99518689Y-97064598D01*
X99495862Y-97026000D01*
X99494644Y-97023940D01*
X99480210Y-97009506D01*
X99467573Y-96994711D01*
X99455574Y-96978195D01*
X99455572Y-96978192D01*
X99419175Y-96948083D01*
X99414853Y-96944149D01*
X94867752Y-92397047D01*
X94847015Y-92359070D01*
X94829831Y-92354378D01*
X94807191Y-92336486D01*
X94690288Y-92219583D01*
X94680387Y-92207223D01*
X94680177Y-92207398D01*
X94675202Y-92201386D01*
X94675200Y-92201382D01*
X94637344Y-92165833D01*
X94624122Y-92153416D01*
X94602968Y-92132263D01*
X94600992Y-92130731D01*
X94597383Y-92127931D01*
X94592950Y-92124144D01*
X94558521Y-92091814D01*
X94558519Y-92091812D01*
X94540631Y-92081978D01*
X94524370Y-92071297D01*
X94508239Y-92058784D01*
X94464893Y-92040027D01*
X94459645Y-92037456D01*
X94428788Y-92020493D01*
X94418260Y-92014705D01*
X94414860Y-92013832D01*
X94398487Y-92009628D01*
X94380081Y-92003326D01*
X94361344Y-91995218D01*
X94361346Y-91995218D01*
X94314696Y-91987830D01*
X94308981Y-91986646D01*
X94288812Y-91981468D01*
X94263232Y-91974900D01*
X94263230Y-91974900D01*
X94242816Y-91974900D01*
X94223417Y-91973373D01*
X94203258Y-91970180D01*
X94203257Y-91970180D01*
X94156234Y-91974625D01*
X94150396Y-91974900D01*
X91936249Y-91974900D01*
X91869210Y-91955215D01*
X91848568Y-91938581D01*
X91162669Y-91252681D01*
X91129184Y-91191358D01*
X91134168Y-91121666D01*
X91176040Y-91065733D01*
X91241504Y-91041316D01*
X91250350Y-91041000D01*
X91266878Y-91041000D01*
X91453679Y-91001294D01*
X91620709Y-90926927D01*
X91689957Y-90917644D01*
X91721575Y-90926927D01*
X91888606Y-91001294D01*
X92075407Y-91041000D01*
X92266381Y-91041000D01*
X92453182Y-91001294D01*
X92620212Y-90926927D01*
X92689460Y-90917644D01*
X92721078Y-90926927D01*
X92888109Y-91001294D01*
X93074910Y-91041000D01*
X93265884Y-91041000D01*
X93452685Y-91001294D01*
X93619715Y-90926927D01*
X93688963Y-90917644D01*
X93720581Y-90926927D01*
X93887612Y-91001294D01*
X94074413Y-91041000D01*
X94265387Y-91041000D01*
X94452188Y-91001294D01*
X94626652Y-90923618D01*
X94678841Y-90885700D01*
X94744646Y-90862220D01*
X94812700Y-90878045D01*
X94861395Y-90928150D01*
X94875271Y-90996628D01*
X94859113Y-91048017D01*
X94798149Y-91153609D01*
X94798144Y-91153621D01*
X94758381Y-91276000D01*
X94739132Y-91335243D01*
X94719170Y-91525171D01*
X94739132Y-91715099D01*
X94739133Y-91715102D01*
X94798144Y-91896720D01*
X94798147Y-91896727D01*
X94893634Y-92062115D01*
X94962359Y-92138442D01*
X94987022Y-92165833D01*
X95002371Y-92197817D01*
X95014860Y-92200534D01*
X95028311Y-92209043D01*
X95175922Y-92316289D01*
X95350386Y-92393965D01*
X95537187Y-92433671D01*
X95728161Y-92433671D01*
X95914962Y-92393965D01*
X96089426Y-92316289D01*
X96243927Y-92204037D01*
X96371714Y-92062115D01*
X96467201Y-91896727D01*
X96526216Y-91715099D01*
X96546178Y-91525171D01*
X96526216Y-91335243D01*
X96467201Y-91153615D01*
X96371714Y-90988227D01*
X96243927Y-90846305D01*
X96089426Y-90734053D01*
X95914962Y-90656377D01*
X95914960Y-90656376D01*
X95728161Y-90616671D01*
X95537187Y-90616671D01*
X95350388Y-90656376D01*
X95175920Y-90734054D01*
X95123732Y-90771971D01*
X95057925Y-90795450D01*
X94989871Y-90779624D01*
X94941177Y-90729518D01*
X94927302Y-90661040D01*
X94943458Y-90609656D01*
X95004427Y-90504056D01*
X95063442Y-90322428D01*
X95083404Y-90132500D01*
X95063442Y-89942572D01*
X95004427Y-89760944D01*
X94908940Y-89595556D01*
X94781153Y-89453634D01*
X94678177Y-89378817D01*
X94635513Y-89323488D01*
X94629534Y-89253874D01*
X94662140Y-89192079D01*
X94722979Y-89157722D01*
X94751064Y-89154500D01*
X102542480Y-89154500D01*
X102609519Y-89174185D01*
G37*
%TD.AperFunction*%
%TA.AperFunction,Conductor*%
G36*
X106229000Y-91276000D02*
G01*
X106482167Y-91276000D01*
X106641216Y-91261262D01*
X106641219Y-91261261D01*
X106846196Y-91202941D01*
X106846216Y-91202933D01*
X107036989Y-91107940D01*
X107197542Y-90986695D01*
X107262903Y-90962003D01*
X107331238Y-90976568D01*
X107380850Y-91025765D01*
X107396269Y-91085340D01*
X107410116Y-96637841D01*
X107390598Y-96704929D01*
X107337909Y-96750816D01*
X107268775Y-96760931D01*
X107205147Y-96732065D01*
X107185109Y-96710077D01*
X107120130Y-96618826D01*
X107120124Y-96618820D01*
X106971543Y-96477148D01*
X106798834Y-96366155D01*
X106608238Y-96289852D01*
X106406651Y-96251000D01*
X106229000Y-96251000D01*
X106229000Y-97051000D01*
X105729000Y-97051000D01*
X105729000Y-96251000D01*
X105602795Y-96251000D01*
X105449629Y-96265625D01*
X105449625Y-96265626D01*
X105252648Y-96323463D01*
X105070162Y-96417541D01*
X104908793Y-96544444D01*
X104908790Y-96544448D01*
X104774345Y-96699604D01*
X104687964Y-96849221D01*
X104637397Y-96897437D01*
X104568790Y-96910659D01*
X104503925Y-96884691D01*
X104463397Y-96827777D01*
X104460072Y-96816455D01*
X104423229Y-96664590D01*
X104335962Y-96473497D01*
X104335958Y-96473491D01*
X104316906Y-96446736D01*
X104294053Y-96380709D01*
X104310526Y-96312809D01*
X104361093Y-96264593D01*
X104372238Y-96259528D01*
X104394871Y-96250568D01*
X104448257Y-96211781D01*
X104527835Y-96153965D01*
X104527835Y-96153963D01*
X104527837Y-96153963D01*
X104632600Y-96027326D01*
X104702579Y-95878613D01*
X104733376Y-95717170D01*
X104723056Y-95553140D01*
X104672268Y-95396829D01*
X104584202Y-95258060D01*
X104520281Y-95198034D01*
X104464396Y-95145554D01*
X104464388Y-95145548D01*
X104320371Y-95066374D01*
X104320361Y-95066371D01*
X104161180Y-95025500D01*
X104161177Y-95025500D01*
X104038075Y-95025500D01*
X104038065Y-95025500D01*
X103915942Y-95040929D01*
X103915939Y-95040929D01*
X103763130Y-95101431D01*
X103763121Y-95101436D01*
X103630164Y-95198034D01*
X103630162Y-95198037D01*
X103525400Y-95324673D01*
X103455420Y-95473387D01*
X103440207Y-95553139D01*
X103424624Y-95634830D01*
X103424624Y-95634832D01*
X103424624Y-95634833D01*
X103434944Y-95798862D01*
X103441184Y-95818067D01*
X103443179Y-95887908D01*
X103429000Y-95912603D01*
X103429000Y-96638177D01*
X103386969Y-96616762D01*
X103287451Y-96601000D01*
X103070549Y-96601000D01*
X102971031Y-96616762D01*
X102929000Y-96638177D01*
X102929000Y-95926000D01*
X102926602Y-95926000D01*
X102769877Y-95940965D01*
X102769870Y-95940966D01*
X102646434Y-95977210D01*
X102576564Y-95977210D01*
X102517786Y-95939435D01*
X102488762Y-95875879D01*
X102487500Y-95858233D01*
X102487500Y-92613065D01*
X102507185Y-92546026D01*
X102559989Y-92500271D01*
X102585719Y-92491775D01*
X102585862Y-92491744D01*
X102686788Y-92470292D01*
X102861252Y-92392616D01*
X103015753Y-92280364D01*
X103143540Y-92138442D01*
X103239027Y-91973054D01*
X103239029Y-91973047D01*
X103240561Y-91970394D01*
X103291128Y-91922178D01*
X103359735Y-91908954D01*
X103424600Y-91934922D01*
X103465129Y-91991836D01*
X103465880Y-91994074D01*
X103485732Y-92055172D01*
X103485734Y-92055175D01*
X103573798Y-92193940D01*
X103693603Y-92306445D01*
X103693611Y-92306451D01*
X103789325Y-92359070D01*
X103837632Y-92385627D01*
X103996823Y-92426500D01*
X103996827Y-92426500D01*
X104119923Y-92426500D01*
X104119925Y-92426500D01*
X104119930Y-92426499D01*
X104119934Y-92426499D01*
X104133174Y-92424826D01*
X104242058Y-92411071D01*
X104394871Y-92350568D01*
X104394878Y-92350563D01*
X104527835Y-92253965D01*
X104527835Y-92253963D01*
X104527837Y-92253963D01*
X104632600Y-92127326D01*
X104702579Y-91978613D01*
X104733376Y-91817170D01*
X104723056Y-91653140D01*
X104672268Y-91496829D01*
X104584202Y-91358060D01*
X104584201Y-91358059D01*
X104464396Y-91245554D01*
X104464391Y-91245550D01*
X104356446Y-91186207D01*
X104307182Y-91136660D01*
X104292526Y-91068345D01*
X104308797Y-91015545D01*
X104384144Y-90885039D01*
X104384148Y-90885031D01*
X104393217Y-90858827D01*
X104433744Y-90801912D01*
X104498608Y-90775942D01*
X104567215Y-90789163D01*
X104602376Y-90818774D01*
X104603486Y-90817763D01*
X104750928Y-90979499D01*
X104921010Y-91107940D01*
X105111783Y-91202933D01*
X105111803Y-91202941D01*
X105316780Y-91261261D01*
X105316783Y-91261262D01*
X105475833Y-91276000D01*
X105729000Y-91276000D01*
X105729000Y-90551000D01*
X106229000Y-90551000D01*
X106229000Y-91276000D01*
G37*
%TD.AperFunction*%
%TD*%
M02*
