M48
; DRILL file {KiCad 7.0.9} date Fri Aug  9 11:55:56 2024
; FORMAT={-:-/ absolute / inch / decimal}
; #@! TF.CreationDate,2024-08-09T11:55:56-06:00
; #@! TF.GenerationSoftware,Kicad,Pcbnew,7.0.9
; #@! TF.FileFunction,Plated,1,4,PTH
FMAT,2
INCH
; #@! TA.AperFunction,Plated,PTH,ViaDrill
T1C0.0157
; #@! TA.AperFunction,Plated,PTH,ComponentDrill
T2C0.0217
; #@! TA.AperFunction,Plated,PTH,ComponentDrill
T3C0.0335
; #@! TA.AperFunction,Plated,PTH,ComponentDrill
T4C0.0360
; #@! TA.AperFunction,Plated,PTH,ComponentDrill
T5C0.0394
%
G90
G05
T1
X3.058Y-3.53
X3.1804Y-4.0299
X3.2812Y-3.5485
X3.285Y-4.095
X3.288Y-3.98
X3.398Y-3.5485
X3.472Y-3.548
X3.485Y-4.09
X3.4962Y-3.9677
X3.5107Y-3.5485
X3.5501Y-3.5485
X3.572Y-3.9759
X3.5894Y-3.5485
X3.6288Y-3.5485
X3.654Y-3.688
X3.6681Y-3.5485
X3.6757Y-3.8674
X3.685Y-4.095
X3.688Y-3.83
X3.7075Y-3.5485
X3.732Y-3.834
X3.7651Y-3.6034
X3.8Y-3.98
X3.816Y-3.876
X3.885Y-4.095
X3.8972Y-3.9772
X3.9798Y-3.8525
X4.0073Y-3.8243
X4.0317Y-3.6064
X4.075Y-3.9
X4.08Y-4.095
T4
X3.2358Y-3.9392
X3.2358Y-4.2392
X3.3358Y-3.9392
X3.3358Y-4.2392
X3.4358Y-3.9392
X3.4358Y-4.2392
X3.5358Y-3.9392
X3.5358Y-4.2392
X3.6358Y-3.9392
X3.6358Y-4.2392
X3.7358Y-3.9392
X3.7358Y-4.2392
X3.8358Y-3.9392
X3.8358Y-4.2392
X3.9358Y-3.9392
X3.9358Y-4.2392
X4.0358Y-3.9392
X4.0358Y-4.2392
X4.1358Y-3.9392
X4.1358Y-4.2392
T5
X3.088Y-3.85
X3.088Y-3.95
X3.088Y-4.05
X3.088Y-4.15
X3.088Y-4.25
T2
G00X4.1596Y-3.8317
M15
G01X4.1852Y-3.8317
M16
G05
T3
G00X4.0592Y-3.5601
M15
G01X4.0651Y-3.5601
M16
G05
G00X4.0592Y-3.8199
M15
G01X4.0651Y-3.8199
M16
G05
G00X4.1596Y-3.5483
M15
G01X4.1852Y-3.5483
M16
G05
T0
M30
