%TF.GenerationSoftware,KiCad,Pcbnew,7.0.9*%
%TF.CreationDate,2024-08-09T11:55:52-06:00*%
%TF.ProjectId,SWAG_BAR_LED_ARM,53574147-5f42-4415-925f-4c45445f4152,rev?*%
%TF.SameCoordinates,Original*%
%TF.FileFunction,Copper,L1,Top*%
%TF.FilePolarity,Positive*%
%FSLAX46Y46*%
G04 Gerber Fmt 4.6, Leading zero omitted, Abs format (unit mm)*
G04 Created by KiCad (PCBNEW 7.0.9) date 2024-08-09 11:55:52*
%MOMM*%
%LPD*%
G01*
G04 APERTURE LIST*
G04 Aperture macros list*
%AMRoundRect*
0 Rectangle with rounded corners*
0 $1 Rounding radius*
0 $2 $3 $4 $5 $6 $7 $8 $9 X,Y pos of 4 corners*
0 Add a 4 corners polygon primitive as box body*
4,1,4,$2,$3,$4,$5,$6,$7,$8,$9,$2,$3,0*
0 Add four circle primitives for the rounded corners*
1,1,$1+$1,$2,$3*
1,1,$1+$1,$4,$5*
1,1,$1+$1,$6,$7*
1,1,$1+$1,$8,$9*
0 Add four rect primitives between the rounded corners*
20,1,$1+$1,$2,$3,$4,$5,0*
20,1,$1+$1,$4,$5,$6,$7,0*
20,1,$1+$1,$6,$7,$8,$9,0*
20,1,$1+$1,$8,$9,$2,$3,0*%
%AMRotRect*
0 Rectangle, with rotation*
0 The origin of the aperture is its center*
0 $1 length*
0 $2 width*
0 $3 Rotation angle, in degrees counterclockwise*
0 Add horizontal line*
21,1,$1,$2,0,0,$3*%
G04 Aperture macros list end*
%TA.AperFunction,SMDPad,CuDef*%
%ADD10RoundRect,0.225000X-0.225000X-0.250000X0.225000X-0.250000X0.225000X0.250000X-0.225000X0.250000X0*%
%TD*%
%TA.AperFunction,SMDPad,CuDef*%
%ADD11RoundRect,0.200000X0.200000X0.275000X-0.200000X0.275000X-0.200000X-0.275000X0.200000X-0.275000X0*%
%TD*%
%TA.AperFunction,SMDPad,CuDef*%
%ADD12R,1.750000X0.450000*%
%TD*%
%TA.AperFunction,ComponentPad*%
%ADD13O,1.800000X1.150000*%
%TD*%
%TA.AperFunction,ComponentPad*%
%ADD14O,1.600000X1.200000*%
%TD*%
%TA.AperFunction,SMDPad,CuDef*%
%ADD15R,1.900000X1.900000*%
%TD*%
%TA.AperFunction,ComponentPad*%
%ADD16O,2.200000X1.300000*%
%TD*%
%TA.AperFunction,SMDPad,CuDef*%
%ADD17R,0.838200X0.355600*%
%TD*%
%TA.AperFunction,SMDPad,CuDef*%
%ADD18RoundRect,0.200000X0.275000X-0.200000X0.275000X0.200000X-0.275000X0.200000X-0.275000X-0.200000X0*%
%TD*%
%TA.AperFunction,SMDPad,CuDef*%
%ADD19RoundRect,0.062500X-0.282843X0.194454X0.194454X-0.282843X0.282843X-0.194454X-0.194454X0.282843X0*%
%TD*%
%TA.AperFunction,SMDPad,CuDef*%
%ADD20RoundRect,0.062500X-0.282843X-0.194454X-0.194454X-0.282843X0.282843X0.194454X0.194454X0.282843X0*%
%TD*%
%TA.AperFunction,SMDPad,CuDef*%
%ADD21RotRect,3.600000X3.600000X315.000000*%
%TD*%
%TA.AperFunction,ComponentPad*%
%ADD22R,1.700000X1.700000*%
%TD*%
%TA.AperFunction,ComponentPad*%
%ADD23O,1.700000X1.700000*%
%TD*%
%TA.AperFunction,SMDPad,CuDef*%
%ADD24RotRect,2.006600X1.498600X225.000000*%
%TD*%
%TA.AperFunction,SMDPad,CuDef*%
%ADD25R,0.650000X1.220000*%
%TD*%
%TA.AperFunction,ComponentPad*%
%ADD26R,1.200000X1.200000*%
%TD*%
%TA.AperFunction,ComponentPad*%
%ADD27C,1.200000*%
%TD*%
%TA.AperFunction,ViaPad*%
%ADD28C,0.800000*%
%TD*%
%TA.AperFunction,Conductor*%
%ADD29C,0.250000*%
%TD*%
%TA.AperFunction,Conductor*%
%ADD30C,0.200000*%
%TD*%
G04 APERTURE END LIST*
D10*
%TO.P,C1,1*%
%TO.N,+5V*%
X98806000Y-94386400D03*
%TO.P,C1,2*%
%TO.N,GND*%
X100356000Y-94386400D03*
%TD*%
D11*
%TO.P,R12,1*%
%TO.N,+3V3*%
X79666600Y-91846400D03*
%TO.P,R12,2*%
%TO.N,/SWCLK*%
X78016600Y-91846400D03*
%TD*%
D12*
%TO.P,J3,1,VBUS*%
%TO.N,+5V*%
X103129000Y-95026000D03*
%TO.P,J3,2,D-*%
%TO.N,/D-*%
X103129000Y-94376000D03*
%TO.P,J3,3,D+*%
%TO.N,/D+*%
X103129000Y-93726000D03*
%TO.P,J3,4,ID*%
%TO.N,unconnected-(J3-ID-Pad4)*%
X103129000Y-93076000D03*
%TO.P,J3,5,GND*%
%TO.N,GND*%
X103129000Y-92426000D03*
D13*
%TO.P,J3,6,Shield*%
X105979000Y-97326000D03*
D14*
X103179000Y-97026000D03*
D15*
X105979000Y-95026000D03*
X105979000Y-92426000D03*
D14*
X103179000Y-90426000D03*
D16*
X105979000Y-90126000D03*
%TD*%
D17*
%TO.P,U9,1,SOURCE1*%
%TO.N,GND*%
X84480400Y-103011999D03*
%TO.P,U9,2,GATE1*%
%TO.N,/Sig_L9*%
X84480400Y-102362000D03*
%TO.P,U9,3,DRAIN2*%
%TO.N,Net-(U9-DRAIN2)*%
X84480400Y-101712001D03*
%TO.P,U9,4,SOURCE2*%
%TO.N,GND*%
X82397600Y-101712001D03*
%TO.P,U9,5,GATE2*%
%TO.N,/Sig_L8*%
X82397600Y-102362000D03*
%TO.P,U9,6,DRAIN1*%
%TO.N,Net-(U9-DRAIN1)*%
X82397600Y-103011999D03*
%TD*%
%TO.P,U4,1,SOURCE1*%
%TO.N,GND*%
X99720400Y-103011999D03*
%TO.P,U4,2,GATE1*%
%TO.N,/Sig_L3*%
X99720400Y-102362000D03*
%TO.P,U4,3,DRAIN2*%
%TO.N,Net-(U4-DRAIN2)*%
X99720400Y-101712001D03*
%TO.P,U4,4,SOURCE2*%
%TO.N,GND*%
X97637600Y-101712001D03*
%TO.P,U4,5,GATE2*%
%TO.N,/Sig_L2*%
X97637600Y-102362000D03*
%TO.P,U4,6,DRAIN1*%
%TO.N,Net-(U4-DRAIN1)*%
X97637600Y-103011999D03*
%TD*%
D18*
%TO.P,R2,1*%
%TO.N,/L6*%
X89789000Y-106108000D03*
%TO.P,R2,2*%
%TO.N,Net-(U10-DRAIN2)*%
X89789000Y-104458000D03*
%TD*%
D10*
%TO.P,C3,1*%
%TO.N,Net-(U5-VDDCORE)*%
X95745000Y-90220800D03*
%TO.P,C3,2*%
%TO.N,GND*%
X97295000Y-90220800D03*
%TD*%
D18*
%TO.P,R7,1*%
%TO.N,/L9*%
X82042000Y-106108000D03*
%TO.P,R7,2*%
%TO.N,Net-(U9-DRAIN1)*%
X82042000Y-104458000D03*
%TD*%
%TO.P,R10,1*%
%TO.N,/L1*%
X102489000Y-106108000D03*
%TO.P,R10,2*%
%TO.N,Net-(U2-DRAIN1)*%
X102489000Y-104458000D03*
%TD*%
D19*
%TO.P,U5,1,PA00*%
%TO.N,/Sig_L0*%
X92316625Y-90705352D03*
%TO.P,U5,2,PA01*%
%TO.N,/Sig_L1*%
X91963072Y-91058905D03*
%TO.P,U5,3,PA02*%
%TO.N,/Sig_L2*%
X91609518Y-91412458D03*
%TO.P,U5,4,PA03*%
%TO.N,/Sig_L3*%
X91255965Y-91766012D03*
%TO.P,U5,5,PA04*%
%TO.N,/Sig_L4*%
X90902412Y-92119565D03*
%TO.P,U5,6,PA05*%
%TO.N,/Sig_L5*%
X90548858Y-92473118D03*
%TO.P,U5,7,PA06*%
%TO.N,/Sig_L6*%
X90195305Y-92826672D03*
%TO.P,U5,8,PA07*%
%TO.N,/Sig_L7*%
X89841752Y-93180225D03*
D20*
%TO.P,U5,9,VDDANA*%
%TO.N,+3V3*%
X89841752Y-94170175D03*
%TO.P,U5,10,GND*%
%TO.N,GND*%
X90195305Y-94523728D03*
%TO.P,U5,11,PA08*%
%TO.N,/Sig_L8*%
X90548858Y-94877282D03*
%TO.P,U5,12,PA09*%
%TO.N,/Sig_L9*%
X90902412Y-95230835D03*
%TO.P,U5,13,PA10*%
%TO.N,unconnected-(U5-PA10-Pad13)*%
X91255965Y-95584388D03*
%TO.P,U5,14,PA11*%
%TO.N,unconnected-(U5-PA11-Pad14)*%
X91609518Y-95937942D03*
%TO.P,U5,15,PA14*%
%TO.N,unconnected-(U5-PA14-Pad15)*%
X91963072Y-96291495D03*
%TO.P,U5,16,PA15*%
%TO.N,unconnected-(U5-PA15-Pad16)*%
X92316625Y-96645048D03*
D19*
%TO.P,U5,17,PA16*%
%TO.N,/SW_1*%
X93306575Y-96645048D03*
%TO.P,U5,18,PA17*%
%TO.N,unconnected-(U5-PA17-Pad18)*%
X93660128Y-96291495D03*
%TO.P,U5,19,PA18*%
%TO.N,unconnected-(U5-PA18-Pad19)*%
X94013682Y-95937942D03*
%TO.P,U5,20,PA19*%
%TO.N,unconnected-(U5-PA19-Pad20)*%
X94367235Y-95584388D03*
%TO.P,U5,21,PA22*%
%TO.N,unconnected-(U5-PA22-Pad21)*%
X94720788Y-95230835D03*
%TO.P,U5,22,PA23*%
%TO.N,unconnected-(U5-PA23-Pad22)*%
X95074342Y-94877282D03*
%TO.P,U5,23,PA24*%
%TO.N,/D-*%
X95427895Y-94523728D03*
%TO.P,U5,24,PA25*%
%TO.N,/D+*%
X95781448Y-94170175D03*
D20*
%TO.P,U5,25,PA27*%
%TO.N,unconnected-(U5-PA27-Pad25)*%
X95781448Y-93180225D03*
%TO.P,U5,26,~{RESET}*%
%TO.N,/RST*%
X95427895Y-92826672D03*
%TO.P,U5,27,PA28*%
%TO.N,unconnected-(U5-PA28-Pad27)*%
X95074342Y-92473118D03*
%TO.P,U5,28,GND*%
%TO.N,GND*%
X94720788Y-92119565D03*
%TO.P,U5,29,VDDCORE*%
%TO.N,Net-(U5-VDDCORE)*%
X94367235Y-91766012D03*
%TO.P,U5,30,VDDIN*%
%TO.N,+3V3*%
X94013682Y-91412458D03*
%TO.P,U5,31,PA30*%
%TO.N,/SWCLK*%
X93660128Y-91058905D03*
%TO.P,U5,32,PA31*%
%TO.N,/SWDIO*%
X93306575Y-90705352D03*
D21*
%TO.P,U5,33,EP*%
%TO.N,GND*%
X92811600Y-93675200D03*
%TD*%
D22*
%TO.P,J1,1,Pin_1*%
%TO.N,/SWDIO*%
X78435200Y-97790000D03*
D23*
%TO.P,J1,2,Pin_2*%
%TO.N,/SWCLK*%
X78435200Y-100330000D03*
%TO.P,J1,3,Pin_3*%
%TO.N,/RST*%
X78435200Y-102870000D03*
%TO.P,J1,4,Pin_4*%
%TO.N,+3V3*%
X78435200Y-105410000D03*
%TO.P,J1,5,Pin_5*%
%TO.N,GND*%
X78435200Y-107950000D03*
%TD*%
D18*
%TO.P,R8,1*%
%TO.N,/L3*%
X97409000Y-106108000D03*
%TO.P,R8,2*%
%TO.N,Net-(U4-DRAIN1)*%
X97409000Y-104458000D03*
%TD*%
%TO.P,R4,1*%
%TO.N,/L5*%
X92329000Y-106108000D03*
%TO.P,R4,2*%
%TO.N,Net-(U8-DRAIN1)*%
X92329000Y-104458000D03*
%TD*%
%TO.P,R11,1*%
%TO.N,/L8*%
X84709000Y-106108000D03*
%TO.P,R11,2*%
%TO.N,Net-(U9-DRAIN2)*%
X84709000Y-104458000D03*
%TD*%
%TO.P,R9,1*%
%TO.N,/L0*%
X105029000Y-106108000D03*
%TO.P,R9,2*%
%TO.N,Net-(U2-DRAIN2)*%
X105029000Y-104458000D03*
%TD*%
D24*
%TO.P,SW1,1,1*%
%TO.N,/SW_1*%
X86820737Y-90979263D03*
%TO.P,SW1,2,2*%
%TO.N,GND*%
X81022463Y-96777537D03*
%TD*%
D17*
%TO.P,U2,1,SOURCE1*%
%TO.N,GND*%
X104673400Y-102884999D03*
%TO.P,U2,2,GATE1*%
%TO.N,/Sig_L1*%
X104673400Y-102235000D03*
%TO.P,U2,3,DRAIN2*%
%TO.N,Net-(U2-DRAIN2)*%
X104673400Y-101585001D03*
%TO.P,U2,4,SOURCE2*%
%TO.N,GND*%
X102590600Y-101585001D03*
%TO.P,U2,5,GATE2*%
%TO.N,/Sig_L0*%
X102590600Y-102235000D03*
%TO.P,U2,6,DRAIN1*%
%TO.N,Net-(U2-DRAIN1)*%
X102590600Y-102884999D03*
%TD*%
%TO.P,U10,1,SOURCE1*%
%TO.N,GND*%
X89560400Y-103011999D03*
%TO.P,U10,2,GATE1*%
%TO.N,/Sig_L7*%
X89560400Y-102362000D03*
%TO.P,U10,3,DRAIN2*%
%TO.N,Net-(U10-DRAIN2)*%
X89560400Y-101712001D03*
%TO.P,U10,4,SOURCE2*%
%TO.N,GND*%
X87477600Y-101712001D03*
%TO.P,U10,5,GATE2*%
%TO.N,/Sig_L6*%
X87477600Y-102362000D03*
%TO.P,U10,6,DRAIN1*%
%TO.N,Net-(U10-DRAIN1)*%
X87477600Y-103011999D03*
%TD*%
D10*
%TO.P,C2,1*%
%TO.N,+3V3*%
X98742200Y-95656400D03*
%TO.P,C2,2*%
%TO.N,GND*%
X100292200Y-95656400D03*
%TD*%
D18*
%TO.P,R5,1*%
%TO.N,/L4*%
X94869000Y-106108000D03*
%TO.P,R5,2*%
%TO.N,Net-(U8-DRAIN2)*%
X94869000Y-104458000D03*
%TD*%
%TO.P,R6,1*%
%TO.N,/L7*%
X87249000Y-106108000D03*
%TO.P,R6,2*%
%TO.N,Net-(U10-DRAIN1)*%
X87249000Y-104458000D03*
%TD*%
D25*
%TO.P,U1,1,GND*%
%TO.N,GND*%
X100772000Y-90384000D03*
%TO.P,U1,2,VO*%
%TO.N,+3V3*%
X98872000Y-90384000D03*
%TO.P,U1,3,VI*%
%TO.N,+5V*%
X99822000Y-93004000D03*
%TD*%
D18*
%TO.P,R3,1*%
%TO.N,/L2*%
X99949000Y-106108000D03*
%TO.P,R3,2*%
%TO.N,Net-(U4-DRAIN2)*%
X99949000Y-104458000D03*
%TD*%
D17*
%TO.P,U8,1,SOURCE1*%
%TO.N,GND*%
X94640400Y-103138999D03*
%TO.P,U8,2,GATE1*%
%TO.N,/Sig_L5*%
X94640400Y-102489000D03*
%TO.P,U8,3,DRAIN2*%
%TO.N,Net-(U8-DRAIN2)*%
X94640400Y-101839001D03*
%TO.P,U8,4,SOURCE2*%
%TO.N,GND*%
X92557600Y-101839001D03*
%TO.P,U8,5,GATE2*%
%TO.N,/Sig_L4*%
X92557600Y-102489000D03*
%TO.P,U8,6,DRAIN1*%
%TO.N,Net-(U8-DRAIN1)*%
X92557600Y-103138999D03*
%TD*%
D26*
%TO.P,BAR1,1,A*%
%TO.N,+3V3*%
X105048500Y-100056500D03*
D27*
%TO.P,BAR1,2,A*%
X102508500Y-100056500D03*
%TO.P,BAR1,3,A*%
X99968500Y-100056500D03*
%TO.P,BAR1,4,A*%
X97428500Y-100056500D03*
%TO.P,BAR1,5,A*%
X94888500Y-100056500D03*
%TO.P,BAR1,6,A*%
X92348500Y-100056500D03*
%TO.P,BAR1,7,A*%
X89808500Y-100056500D03*
%TO.P,BAR1,8,A*%
X87268500Y-100056500D03*
%TO.P,BAR1,9,A*%
X84728500Y-100056500D03*
%TO.P,BAR1,10,A*%
X82188500Y-100056500D03*
%TO.P,BAR1,11,K*%
%TO.N,/L9*%
X82188500Y-107676500D03*
%TO.P,BAR1,12,K*%
%TO.N,/L8*%
X84728500Y-107676500D03*
%TO.P,BAR1,13,K*%
%TO.N,/L7*%
X87268500Y-107676500D03*
%TO.P,BAR1,14,K*%
%TO.N,/L6*%
X89808500Y-107676500D03*
%TO.P,BAR1,15,K*%
%TO.N,/L5*%
X92348500Y-107676500D03*
%TO.P,BAR1,16,K*%
%TO.N,/L4*%
X94888500Y-107676500D03*
%TO.P,BAR1,17,K*%
%TO.N,/L3*%
X97428500Y-107676500D03*
%TO.P,BAR1,18,K*%
%TO.N,/L2*%
X99968500Y-107676500D03*
%TO.P,BAR1,19,K*%
%TO.N,/L1*%
X102508500Y-107676500D03*
%TO.P,BAR1,20,K*%
%TO.N,/L0*%
X105048500Y-107676500D03*
%TD*%
D28*
%TO.N,/Sig_L9*%
X90728800Y-100987501D03*
X83515200Y-101092000D03*
%TO.N,/Sig_L8*%
X80782949Y-102359649D03*
X88803124Y-100780607D03*
%TO.N,/Sig_L5*%
X83341586Y-90132500D03*
%TO.N,/Sig_L4*%
X88188800Y-90119200D03*
%TO.N,/SWCLK*%
X77673200Y-89662000D03*
%TO.N,+5V*%
X101784553Y-97135995D03*
X102404500Y-91601498D03*
%TO.N,/SWDIO*%
X93170397Y-90132500D03*
%TO.N,/SWCLK*%
X94169900Y-90132500D03*
%TO.N,GND*%
X88519000Y-103886000D03*
X92811600Y-93675200D03*
X83439000Y-104013000D03*
X103632000Y-104013000D03*
X98679000Y-104013000D03*
X93599000Y-104013000D03*
%TO.N,/RST*%
X95632674Y-91525171D03*
%TO.N,/Sig_L1*%
X103505000Y-99060000D03*
X91171391Y-90132500D03*
%TO.N,/Sig_L0*%
X92170894Y-90132500D03*
X101087601Y-97852418D03*
%TO.N,/SW_1*%
X93675200Y-97282000D03*
X86309200Y-90132000D03*
%TO.N,/Sig_L2*%
X90171888Y-90132500D03*
X96520000Y-101092000D03*
X96926400Y-98450400D03*
%TO.N,/Sig_L3*%
X89172385Y-90132500D03*
X98990102Y-101021797D03*
%TO.N,/Sig_L4*%
X93364044Y-98231352D03*
%TO.N,/Sig_L5*%
X94792800Y-97383600D03*
%TD*%
D29*
%TO.N,+5V*%
X101132000Y-91694000D02*
X99822000Y-93004000D01*
X102311998Y-91694000D02*
X101132000Y-91694000D01*
X102404500Y-91601498D02*
X102311998Y-91694000D01*
%TO.N,/Sig_L2*%
X96503500Y-101075500D02*
X96520000Y-101092000D01*
X96926400Y-98450400D02*
X96503500Y-98873300D01*
X96503500Y-98873300D02*
X96503500Y-101075500D01*
%TO.N,/RST*%
X95745909Y-92508658D02*
X95427895Y-92826672D01*
X95745909Y-91638406D02*
X95745909Y-92508658D01*
X95632674Y-91525171D02*
X95745909Y-91638406D01*
%TO.N,/Sig_L4*%
X88447385Y-90377785D02*
X88188800Y-90119200D01*
X89268080Y-91608658D02*
X88447385Y-90787963D01*
X88447385Y-90787963D02*
X88447385Y-90377785D01*
X90391505Y-91608658D02*
X89268080Y-91608658D01*
X90902412Y-92119565D02*
X90391505Y-91608658D01*
%TO.N,+3V3*%
X82586738Y-99658262D02*
X82188500Y-100056500D01*
X82586738Y-94766538D02*
X82586738Y-99658262D01*
X79666600Y-91846400D02*
X82586738Y-94766538D01*
%TO.N,/Sig_L4*%
X91888500Y-102489000D02*
X92557600Y-102489000D01*
X91813989Y-102414489D02*
X91888500Y-102489000D01*
X91313000Y-99784543D02*
X91313000Y-100330000D01*
X91313000Y-100330000D02*
X91813989Y-100830989D01*
X92456000Y-98641543D02*
X91313000Y-99784543D01*
X92953853Y-98641543D02*
X92456000Y-98641543D01*
X93364044Y-98231352D02*
X92953853Y-98641543D01*
X91813989Y-100830989D02*
X91813989Y-102414489D01*
D30*
%TO.N,/Sig_L9*%
X83590731Y-101167531D02*
X83590731Y-102045887D01*
X83515200Y-101092000D02*
X83590731Y-101167531D01*
X90728800Y-99704007D02*
X90728800Y-100987501D01*
X90609398Y-99584605D02*
X90728800Y-99704007D01*
X90609398Y-95523849D02*
X90609398Y-99584605D01*
%TO.N,/Sig_L8*%
X82395249Y-102359649D02*
X82397600Y-102362000D01*
X80782949Y-102359649D02*
X82395249Y-102359649D01*
D29*
%TO.N,GND*%
X79908400Y-103541183D02*
X80814469Y-104447252D01*
X81022463Y-96777537D02*
X81022463Y-98174537D01*
X81022463Y-98174537D02*
X79908400Y-99288600D01*
X79908400Y-99288600D02*
X79908400Y-103541183D01*
D30*
%TO.N,/Sig_L8*%
X88696800Y-100787200D02*
X88703393Y-100780607D01*
X88703393Y-100780607D02*
X88803124Y-100780607D01*
X88696800Y-96729340D02*
X88696800Y-100787200D01*
X90548858Y-94877282D02*
X88696800Y-96729340D01*
D29*
%TO.N,/Sig_L5*%
X86038359Y-92829273D02*
X83341586Y-90132500D01*
X88531002Y-92829273D02*
X86038359Y-92829273D01*
D30*
%TO.N,+3V3*%
X88296500Y-96074936D02*
X87268500Y-97102936D01*
X87268500Y-97102936D02*
X87268500Y-100056500D01*
X88296500Y-95807888D02*
X88296500Y-96074936D01*
D29*
%TO.N,/Sig_L7*%
X88891300Y-102362000D02*
X89560400Y-102362000D01*
X88773000Y-102243700D02*
X88891300Y-102362000D01*
X88773000Y-101775082D02*
X88773000Y-102243700D01*
X86103500Y-100228400D02*
X86856600Y-100981500D01*
X86103500Y-97666896D02*
X86103500Y-100228400D01*
X87572000Y-96198396D02*
X86103500Y-97666896D01*
X87572000Y-95449978D02*
X87572000Y-96198396D01*
X86856600Y-100981500D02*
X87979418Y-100981500D01*
X87979418Y-100981500D02*
X88773000Y-101775082D01*
X89841752Y-93180225D02*
X87572000Y-95449978D01*
%TO.N,/Sig_L6*%
X86808500Y-102362000D02*
X87477600Y-102362000D01*
X86556000Y-102108540D02*
X86555520Y-102109020D01*
X86556000Y-101542000D02*
X86556000Y-102108540D01*
X85653500Y-100639500D02*
X86556000Y-101542000D01*
X87122000Y-96012000D02*
X85653500Y-97480500D01*
X87122000Y-94894400D02*
X87122000Y-96012000D01*
X89103200Y-92893471D02*
X89103200Y-92913200D01*
X86555520Y-102109020D02*
X86808500Y-102362000D01*
X89103200Y-92913200D02*
X87122000Y-94894400D01*
X89488013Y-92508658D02*
X89103200Y-92893471D01*
X89877291Y-92508658D02*
X89488013Y-92508658D01*
X90195305Y-92826672D02*
X89877291Y-92508658D01*
X85653500Y-97480500D02*
X85653500Y-100639500D01*
%TO.N,/SW_1*%
X86820737Y-90643537D02*
X86309200Y-90132000D01*
X86820737Y-90979263D02*
X86820737Y-90643537D01*
%TO.N,/SWCLK*%
X77673200Y-91440000D02*
X77673200Y-89662000D01*
X78016600Y-91783400D02*
X77673200Y-91440000D01*
X78016600Y-91846400D02*
X78016600Y-91783400D01*
%TO.N,+3V3*%
X79666600Y-89420200D02*
X79666600Y-91846400D01*
X79654400Y-89408000D02*
X79666600Y-89420200D01*
X94894400Y-89408000D02*
X79654400Y-89408000D01*
%TO.N,GND*%
X103129000Y-92426000D02*
X103129000Y-90476000D01*
X103129000Y-90476000D02*
X103179000Y-90426000D01*
X80822800Y-107950000D02*
X78435200Y-107950000D01*
X80814469Y-107941669D02*
X80822800Y-107950000D01*
X80814469Y-104447252D02*
X80814469Y-107941669D01*
%TO.N,+5V*%
X98806000Y-94020000D02*
X99822000Y-93004000D01*
X103129000Y-95026000D02*
X102967000Y-95026000D01*
X101784553Y-96843447D02*
X101784553Y-97135995D01*
X98806000Y-94386400D02*
X98806000Y-94020000D01*
X103129000Y-95499000D02*
X101784553Y-96843447D01*
X103129000Y-95026000D02*
X103129000Y-95499000D01*
%TO.N,Net-(U5-VDDCORE)*%
X94367235Y-91766012D02*
X95745000Y-90388247D01*
X95745000Y-90388247D02*
X95745000Y-90220800D01*
%TO.N,/SWDIO*%
X93306575Y-90268678D02*
X93170397Y-90132500D01*
X93306575Y-90705352D02*
X93306575Y-90268678D01*
%TO.N,/SWCLK*%
X94169900Y-90549133D02*
X94169900Y-90132500D01*
X93660128Y-91058905D02*
X94169900Y-90549133D01*
%TO.N,GND*%
X80814469Y-104447252D02*
X81650217Y-105283000D01*
X83141211Y-101859689D02*
X82993523Y-101712001D01*
X99720400Y-103011999D02*
X99051300Y-103011999D01*
X93301211Y-101913512D02*
X93301211Y-103124000D01*
X83424001Y-103011999D02*
X83424001Y-103998001D01*
X99051300Y-103011999D02*
X98730651Y-102691349D01*
X89560400Y-103011999D02*
X88533999Y-103011999D01*
X97295000Y-90055400D02*
X97942400Y-89408000D01*
X105979000Y-95026000D02*
X105979000Y-97326000D01*
X93584001Y-103138999D02*
X93584001Y-103998001D01*
X105679000Y-97026000D02*
X105979000Y-97326000D01*
X93165153Y-93675200D02*
X92811600Y-93675200D01*
X103186523Y-101585001D02*
X102590600Y-101585001D01*
X100814000Y-90426000D02*
X100772000Y-90384000D01*
X81650217Y-105283000D02*
X82550000Y-105283000D01*
X98410001Y-101712001D02*
X97637600Y-101712001D01*
X88533999Y-103011999D02*
X88533999Y-103871001D01*
D30*
X90195305Y-94523728D02*
X91043833Y-93675200D01*
D29*
X103479000Y-90126000D02*
X103179000Y-90426000D01*
X103744001Y-102884999D02*
X103392999Y-102884999D01*
X93584001Y-103998001D02*
X93599000Y-104013000D01*
X88533999Y-103011999D02*
X88236210Y-103011999D01*
X97942400Y-89408000D02*
X99796000Y-89408000D01*
X105979000Y-92426000D02*
X105979000Y-95026000D01*
X93584001Y-103138999D02*
X94640400Y-103138999D01*
X93301211Y-103124000D02*
X93316210Y-103138999D01*
X103179000Y-97026000D02*
X105679000Y-97026000D01*
X103179000Y-90426000D02*
X100814000Y-90426000D01*
X98730651Y-102691349D02*
X98730651Y-103961349D01*
D30*
X91043833Y-93675200D02*
X92811600Y-93675200D01*
D29*
X94720788Y-92119565D02*
X93165153Y-93675200D01*
X104673400Y-102884999D02*
X103744001Y-102884999D01*
X88073523Y-101712001D02*
X87477600Y-101712001D01*
X100292200Y-95656400D02*
X100292200Y-94450200D01*
D30*
X90195305Y-94523728D02*
X90089241Y-94523728D01*
D29*
X98425000Y-102385699D02*
X98425000Y-101727000D01*
X100292200Y-94450200D02*
X100356000Y-94386400D01*
X97295000Y-90373200D02*
X97295000Y-90055400D01*
X100667000Y-94075400D02*
X100667000Y-93549959D01*
X88221211Y-102997000D02*
X88221211Y-101859689D01*
X100356000Y-94386400D02*
X100667000Y-94075400D01*
X83439000Y-104394000D02*
X83439000Y-104013000D01*
X92557600Y-101839001D02*
X93226700Y-101839001D01*
X83156210Y-103011999D02*
X83141211Y-102997000D01*
X88533999Y-103871001D02*
X88519000Y-103886000D01*
X84480400Y-103011999D02*
X83424001Y-103011999D01*
X98730651Y-103961349D02*
X98679000Y-104013000D01*
X83424001Y-103011999D02*
X83156210Y-103011999D01*
X100667000Y-93549959D02*
X101790959Y-92426000D01*
X82993523Y-101712001D02*
X82397600Y-101712001D01*
X103378000Y-101776478D02*
X103186523Y-101585001D01*
X105979000Y-90126000D02*
X105979000Y-92426000D01*
X83424001Y-103998001D02*
X83439000Y-104013000D01*
X103744001Y-103900999D02*
X103632000Y-104013000D01*
X101790959Y-92426000D02*
X103129000Y-92426000D01*
X103392999Y-102884999D02*
X103378000Y-102870000D01*
X83141211Y-102997000D02*
X83141211Y-101859689D01*
X88221211Y-101859689D02*
X88073523Y-101712001D01*
X98425000Y-101727000D02*
X98410001Y-101712001D01*
X103744001Y-102884999D02*
X103744001Y-103900999D01*
X82550000Y-105283000D02*
X83439000Y-104394000D01*
X88236210Y-103011999D02*
X88221211Y-102997000D01*
X98730651Y-102691349D02*
X98425000Y-102385699D01*
X105979000Y-90126000D02*
X103479000Y-90126000D01*
X93316210Y-103138999D02*
X93584001Y-103138999D01*
X99796000Y-89408000D02*
X100772000Y-90384000D01*
X103378000Y-102870000D02*
X103378000Y-101776478D01*
X93226700Y-101839001D02*
X93301211Y-101913512D01*
%TO.N,/L9*%
X82188500Y-106254500D02*
X82042000Y-106108000D01*
X82188500Y-107676500D02*
X82188500Y-106254500D01*
%TO.N,/L8*%
X84709000Y-107657000D02*
X84728500Y-107676500D01*
X84709000Y-106108000D02*
X84709000Y-107657000D01*
%TO.N,/L7*%
X87249000Y-107657000D02*
X87268500Y-107676500D01*
X87249000Y-106108000D02*
X87249000Y-107657000D01*
%TO.N,/L6*%
X89789000Y-106108000D02*
X89789000Y-107657000D01*
X89789000Y-107657000D02*
X89808500Y-107676500D01*
%TO.N,/L5*%
X92329000Y-106108000D02*
X92329000Y-107657000D01*
X92329000Y-107657000D02*
X92348500Y-107676500D01*
D30*
%TO.N,+3V3*%
X89841752Y-94170175D02*
X89573425Y-94170175D01*
D29*
X96608800Y-91020800D02*
X98834000Y-91020800D01*
X98031000Y-93637400D02*
X98872000Y-92796400D01*
X97428500Y-100056500D02*
X97790000Y-99695000D01*
X98834000Y-91020800D02*
X98872000Y-90982800D01*
X96191252Y-89408000D02*
X96520000Y-89736748D01*
X98845000Y-90411000D02*
X98872000Y-90384000D01*
D30*
X89573425Y-94170175D02*
X88595200Y-95148400D01*
D29*
X98742200Y-95656400D02*
X98031000Y-94945200D01*
D30*
X88595200Y-95148400D02*
X88595200Y-95509188D01*
D29*
X96520000Y-90932000D02*
X96608800Y-91020800D01*
X98872000Y-92796400D02*
X98872000Y-91389200D01*
D30*
X88595200Y-95509188D02*
X88296500Y-95807888D01*
D29*
X94013682Y-91412458D02*
X94894400Y-90531740D01*
X98872000Y-91389200D02*
X98872000Y-90384000D01*
X96520000Y-89736748D02*
X96520000Y-90932000D01*
X98031000Y-94945200D02*
X98031000Y-93637400D01*
X94894400Y-89408000D02*
X96191252Y-89408000D01*
X94894400Y-90531740D02*
X94894400Y-89408000D01*
D30*
%TO.N,/D-*%
X97779767Y-96875600D02*
X95427895Y-94523728D01*
X101048086Y-96875600D02*
X97779767Y-96875600D01*
X103129000Y-94376000D02*
X101516400Y-94376000D01*
X101516400Y-94376000D02*
X101506000Y-94386400D01*
X101506000Y-96417685D02*
X101048086Y-96875600D01*
X101506000Y-94386400D02*
X101506000Y-96417685D01*
D29*
%TO.N,/L4*%
X94869000Y-106108000D02*
X94869000Y-107657000D01*
X94869000Y-107657000D02*
X94888500Y-107676500D01*
%TO.N,/L3*%
X97409000Y-107657000D02*
X97428500Y-107676500D01*
X97409000Y-106108000D02*
X97409000Y-107657000D01*
%TO.N,/L2*%
X99949000Y-107657000D02*
X99968500Y-107676500D01*
X99949000Y-106108000D02*
X99949000Y-107657000D01*
%TO.N,/L1*%
X102489000Y-106108000D02*
X102489000Y-107657000D01*
X102489000Y-107657000D02*
X102508500Y-107676500D01*
%TO.N,/L0*%
X105029000Y-107657000D02*
X105048500Y-107676500D01*
X105029000Y-106108000D02*
X105029000Y-107657000D01*
D30*
%TO.N,/D+*%
X101092000Y-93726000D02*
X103129000Y-93726000D01*
X95781448Y-94170175D02*
X95795775Y-94170175D01*
X98094800Y-96469200D02*
X100888800Y-96469200D01*
X95795775Y-94170175D02*
X98094800Y-96469200D01*
X101106000Y-96252000D02*
X101106000Y-93740000D01*
X101106000Y-93740000D02*
X101092000Y-93726000D01*
X100888800Y-96469200D02*
X101106000Y-96252000D01*
D29*
%TO.N,Net-(U10-DRAIN2)*%
X91059000Y-101727000D02*
X91059000Y-104521000D01*
X89560400Y-101712001D02*
X91044001Y-101712001D01*
X89852000Y-104521000D02*
X89789000Y-104458000D01*
X91044001Y-101712001D02*
X91059000Y-101727000D01*
X91059000Y-104521000D02*
X89852000Y-104521000D01*
%TO.N,Net-(U4-DRAIN2)*%
X101092000Y-101727000D02*
X101092000Y-104521000D01*
X101077001Y-101712001D02*
X101092000Y-101727000D01*
X100012000Y-104521000D02*
X99949000Y-104458000D01*
X101092000Y-104521000D02*
X100012000Y-104521000D01*
X99720400Y-101712001D02*
X101077001Y-101712001D01*
%TO.N,Net-(U8-DRAIN1)*%
X92329000Y-104458000D02*
X92329000Y-103367599D01*
X92329000Y-103367599D02*
X92557600Y-103138999D01*
%TO.N,Net-(U8-DRAIN2)*%
X94640400Y-101839001D02*
X96124001Y-101839001D01*
X96139000Y-101854000D02*
X96139000Y-104648000D01*
X96139000Y-104648000D02*
X95059000Y-104648000D01*
X96124001Y-101839001D02*
X96139000Y-101854000D01*
X95059000Y-104648000D02*
X94869000Y-104458000D01*
%TO.N,Net-(U10-DRAIN1)*%
X87477600Y-104229400D02*
X87249000Y-104458000D01*
X87477600Y-103011999D02*
X87477600Y-104229400D01*
%TO.N,Net-(U9-DRAIN1)*%
X82397600Y-103011999D02*
X82397600Y-104102400D01*
X82397600Y-104102400D02*
X82042000Y-104458000D01*
%TO.N,Net-(U4-DRAIN1)*%
X97637600Y-103011999D02*
X97637600Y-104229400D01*
X97637600Y-104229400D02*
X97409000Y-104458000D01*
%TO.N,Net-(U2-DRAIN2)*%
X105092000Y-104521000D02*
X105029000Y-104458000D01*
X105791000Y-101600000D02*
X105791000Y-104521000D01*
X105791000Y-104521000D02*
X105092000Y-104521000D01*
X105776001Y-101585001D02*
X105791000Y-101600000D01*
X104673400Y-101585001D02*
X105776001Y-101585001D01*
%TO.N,/Sig_L1*%
X91171391Y-90267224D02*
X91171391Y-90132500D01*
X91963072Y-91058905D02*
X91171391Y-90267224D01*
X104673400Y-102235000D02*
X104004300Y-102235000D01*
X103886000Y-102116700D02*
X103886000Y-99441000D01*
X103886000Y-99441000D02*
X103505000Y-99060000D01*
X104004300Y-102235000D02*
X103886000Y-102116700D01*
%TO.N,/Sig_L0*%
X101921500Y-102235000D02*
X101854000Y-102167500D01*
X101854000Y-102167500D02*
X101854000Y-101981000D01*
X101087601Y-101086883D02*
X101473359Y-101472641D01*
X92316625Y-90705352D02*
X92316625Y-90278231D01*
X101854000Y-101981000D02*
X101854000Y-101854000D01*
X101854000Y-101854000D02*
X101473000Y-101473000D01*
X92316625Y-90278231D02*
X92170894Y-90132500D01*
X102590600Y-102235000D02*
X101921500Y-102235000D01*
X101087601Y-97852418D02*
X101087601Y-101086883D01*
%TO.N,Net-(U2-DRAIN1)*%
X102489000Y-104458000D02*
X102489000Y-102986599D01*
X102489000Y-102986599D02*
X102590600Y-102884999D01*
%TO.N,/Sig_L8*%
X82397600Y-102362000D02*
X81728500Y-102362000D01*
D30*
%TO.N,/SW_1*%
X93306575Y-96913375D02*
X93675200Y-97282000D01*
X93306575Y-96645048D02*
X93306575Y-96913375D01*
%TO.N,/Sig_L9*%
X90902412Y-95230835D02*
X90609398Y-95523849D01*
D29*
X83906844Y-102362000D02*
X84480400Y-102362000D01*
X83590731Y-102045887D02*
X83906844Y-102362000D01*
%TO.N,Net-(U9-DRAIN2)*%
X84480400Y-101712001D02*
X86091001Y-101712001D01*
X86106000Y-101727000D02*
X86106000Y-104521000D01*
X84772000Y-104521000D02*
X84709000Y-104458000D01*
X86106000Y-104521000D02*
X84772000Y-104521000D01*
X86091001Y-101712001D02*
X86106000Y-101727000D01*
%TO.N,/Sig_L2*%
X97637600Y-102362000D02*
X97041677Y-102362000D01*
X91125269Y-90857500D02*
X91609518Y-91341749D01*
X96647000Y-101219000D02*
X96520000Y-101092000D01*
X96647000Y-101967323D02*
X96647000Y-101219000D01*
D30*
X90983849Y-90857500D02*
X90948494Y-90857500D01*
D29*
X91125269Y-90857500D02*
X90983849Y-90857500D01*
X90171888Y-90132500D02*
X90171888Y-90158302D01*
X97041677Y-102362000D02*
X96647000Y-101967323D01*
D30*
X90722244Y-90708658D02*
X90757599Y-90708658D01*
D29*
X90171888Y-90158302D02*
X90722244Y-90708658D01*
D30*
X90948494Y-90857500D02*
X90923494Y-90832500D01*
D29*
X91609518Y-91341749D02*
X91609518Y-91412458D01*
D30*
X90757599Y-90708658D02*
X90782599Y-90733658D01*
D29*
%TO.N,/Sig_L3*%
X98990102Y-101021797D02*
X98976789Y-101035110D01*
X90172741Y-91158658D02*
X89172385Y-90158302D01*
X98976789Y-101035110D02*
X98976789Y-102287489D01*
X99051300Y-102362000D02*
X99720400Y-102362000D01*
X89172385Y-90158302D02*
X89172385Y-90132500D01*
X91255965Y-91766012D02*
X90648611Y-91158658D01*
X98976789Y-102287489D02*
X99051300Y-102362000D01*
X89172385Y-90353545D02*
X89172385Y-90132500D01*
X90648611Y-91158658D02*
X90172741Y-91158658D01*
%TO.N,/Sig_L5*%
X93971300Y-102489000D02*
X93853000Y-102370700D01*
X90548858Y-92473118D02*
X90134398Y-92058658D01*
X94807553Y-98613447D02*
X94807553Y-97464320D01*
X88531002Y-92829273D02*
X88531002Y-92849002D01*
X94640400Y-102489000D02*
X93971300Y-102489000D01*
X93853000Y-99568000D02*
X94807553Y-98613447D01*
X90134398Y-92058658D02*
X89301617Y-92058658D01*
X89301617Y-92058658D02*
X88531002Y-92829273D01*
X93853000Y-102370700D02*
X93853000Y-99568000D01*
%TD*%
M02*
