%TF.GenerationSoftware,KiCad,Pcbnew,7.0.9*%
%TF.CreationDate,2024-08-09T11:55:52-06:00*%
%TF.ProjectId,SWAG_BAR_LED_ARM,53574147-5f42-4415-925f-4c45445f4152,rev?*%
%TF.SameCoordinates,Original*%
%TF.FileFunction,Copper,L4,Bot*%
%TF.FilePolarity,Positive*%
%FSLAX46Y46*%
G04 Gerber Fmt 4.6, Leading zero omitted, Abs format (unit mm)*
G04 Created by KiCad (PCBNEW 7.0.9) date 2024-08-09 11:55:52*
%MOMM*%
%LPD*%
G01*
G04 APERTURE LIST*
%TA.AperFunction,ComponentPad*%
%ADD10O,1.800000X1.150000*%
%TD*%
%TA.AperFunction,ComponentPad*%
%ADD11O,1.600000X1.200000*%
%TD*%
%TA.AperFunction,ComponentPad*%
%ADD12O,2.200000X1.300000*%
%TD*%
%TA.AperFunction,ComponentPad*%
%ADD13R,1.700000X1.700000*%
%TD*%
%TA.AperFunction,ComponentPad*%
%ADD14O,1.700000X1.700000*%
%TD*%
%TA.AperFunction,ComponentPad*%
%ADD15R,1.200000X1.200000*%
%TD*%
%TA.AperFunction,ComponentPad*%
%ADD16C,1.200000*%
%TD*%
%TA.AperFunction,ViaPad*%
%ADD17C,0.800000*%
%TD*%
%TA.AperFunction,Conductor*%
%ADD18C,0.250000*%
%TD*%
%TA.AperFunction,Conductor*%
%ADD19C,0.200000*%
%TD*%
G04 APERTURE END LIST*
D10*
%TO.P,J3,6,Shield*%
%TO.N,GND*%
X105979000Y-97326000D03*
D11*
X103179000Y-97026000D03*
X103179000Y-90426000D03*
D12*
X105979000Y-90126000D03*
%TD*%
D13*
%TO.P,J1,1,Pin_1*%
%TO.N,/SWDIO*%
X78435200Y-97790000D03*
D14*
%TO.P,J1,2,Pin_2*%
%TO.N,/SWCLK*%
X78435200Y-100330000D03*
%TO.P,J1,3,Pin_3*%
%TO.N,/RST*%
X78435200Y-102870000D03*
%TO.P,J1,4,Pin_4*%
%TO.N,+3V3*%
X78435200Y-105410000D03*
%TO.P,J1,5,Pin_5*%
%TO.N,GND*%
X78435200Y-107950000D03*
%TD*%
D15*
%TO.P,BAR1,1,A*%
%TO.N,+3V3*%
X105048500Y-100056500D03*
D16*
%TO.P,BAR1,2,A*%
X102508500Y-100056500D03*
%TO.P,BAR1,3,A*%
X99968500Y-100056500D03*
%TO.P,BAR1,4,A*%
X97428500Y-100056500D03*
%TO.P,BAR1,5,A*%
X94888500Y-100056500D03*
%TO.P,BAR1,6,A*%
X92348500Y-100056500D03*
%TO.P,BAR1,7,A*%
X89808500Y-100056500D03*
%TO.P,BAR1,8,A*%
X87268500Y-100056500D03*
%TO.P,BAR1,9,A*%
X84728500Y-100056500D03*
%TO.P,BAR1,10,A*%
X82188500Y-100056500D03*
%TO.P,BAR1,11,K*%
%TO.N,/L9*%
X82188500Y-107676500D03*
%TO.P,BAR1,12,K*%
%TO.N,/L8*%
X84728500Y-107676500D03*
%TO.P,BAR1,13,K*%
%TO.N,/L7*%
X87268500Y-107676500D03*
%TO.P,BAR1,14,K*%
%TO.N,/L6*%
X89808500Y-107676500D03*
%TO.P,BAR1,15,K*%
%TO.N,/L5*%
X92348500Y-107676500D03*
%TO.P,BAR1,16,K*%
%TO.N,/L4*%
X94888500Y-107676500D03*
%TO.P,BAR1,17,K*%
%TO.N,/L3*%
X97428500Y-107676500D03*
%TO.P,BAR1,18,K*%
%TO.N,/L2*%
X99968500Y-107676500D03*
%TO.P,BAR1,19,K*%
%TO.N,/L1*%
X102508500Y-107676500D03*
%TO.P,BAR1,20,K*%
%TO.N,/L0*%
X105048500Y-107676500D03*
%TD*%
D17*
%TO.N,/Sig_L9*%
X90728800Y-100987501D03*
X83515200Y-101092000D03*
%TO.N,/Sig_L8*%
X80782949Y-102359649D03*
X88803124Y-100780607D03*
%TO.N,/Sig_L5*%
X83341586Y-90132500D03*
%TO.N,/Sig_L4*%
X88188800Y-90119200D03*
%TO.N,/SWCLK*%
X77673200Y-89662000D03*
%TO.N,+5V*%
X101784553Y-97135995D03*
X102404500Y-91601498D03*
%TO.N,/SWDIO*%
X93170397Y-90132500D03*
%TO.N,/SWCLK*%
X94169900Y-90132500D03*
%TO.N,GND*%
X88519000Y-103886000D03*
X92811600Y-93675200D03*
X83439000Y-104013000D03*
X103632000Y-104013000D03*
X98679000Y-104013000D03*
X93599000Y-104013000D03*
%TO.N,/RST*%
X95632674Y-91525171D03*
%TO.N,/Sig_L1*%
X103505000Y-99060000D03*
X91171391Y-90132500D03*
%TO.N,/Sig_L0*%
X92170894Y-90132500D03*
X101087601Y-97852418D03*
%TO.N,/SW_1*%
X93675200Y-97282000D03*
X86309200Y-90132000D03*
%TO.N,/Sig_L2*%
X90171888Y-90132500D03*
X96520000Y-101092000D03*
X96926400Y-98450400D03*
%TO.N,/Sig_L3*%
X89172385Y-90132500D03*
X98990102Y-101021797D03*
%TO.N,/Sig_L4*%
X93364044Y-98231352D03*
%TO.N,/Sig_L5*%
X94792800Y-97383600D03*
%TD*%
D18*
%TO.N,/SWDIO*%
X78435200Y-90170000D02*
X78435200Y-97790000D01*
X88502405Y-89407500D02*
X88489105Y-89394200D01*
X88489105Y-89394200D02*
X79211000Y-89394200D01*
X92471199Y-89407500D02*
X88502405Y-89407500D01*
X93170397Y-90106698D02*
X92471199Y-89407500D01*
X79211000Y-89394200D02*
X78435200Y-90170000D01*
X93170397Y-90132500D02*
X93170397Y-90106698D01*
D19*
%TO.N,/Sig_L9*%
X83903807Y-101480607D02*
X83515200Y-101092000D01*
X90235694Y-101480607D02*
X83903807Y-101480607D01*
X90728800Y-100987501D02*
X90235694Y-101480607D01*
%TO.N,/SW_1*%
X86525200Y-90132000D02*
X93675200Y-97282000D01*
X86309200Y-90132000D02*
X86525200Y-90132000D01*
%TD*%
%TA.AperFunction,Conductor*%
%TO.N,GND*%
G36*
X102609519Y-89174185D02*
G01*
X102655274Y-89226989D01*
X102665218Y-89296147D01*
X102636193Y-89359703D01*
X102577415Y-89397477D01*
X102577414Y-89397477D01*
X102568314Y-89400148D01*
X102381585Y-89496413D01*
X102216462Y-89626268D01*
X102216459Y-89626271D01*
X102078894Y-89785030D01*
X102078885Y-89785041D01*
X101973855Y-89966960D01*
X101973852Y-89966967D01*
X101905144Y-90165482D01*
X101905144Y-90165484D01*
X101903632Y-90176000D01*
X102754393Y-90176000D01*
X102694762Y-90293031D01*
X102673702Y-90426000D01*
X102694762Y-90558969D01*
X102754393Y-90676000D01*
X101907742Y-90676000D01*
X101921868Y-90734227D01*
X101918543Y-90804017D01*
X101878015Y-90860931D01*
X101874250Y-90863778D01*
X101793246Y-90922632D01*
X101665459Y-91064555D01*
X101569973Y-91229941D01*
X101569970Y-91229948D01*
X101525830Y-91365799D01*
X101510958Y-91411570D01*
X101490996Y-91601498D01*
X101510958Y-91791426D01*
X101510959Y-91791429D01*
X101569970Y-91973047D01*
X101569973Y-91973054D01*
X101665460Y-92138442D01*
X101793247Y-92280364D01*
X101947748Y-92392616D01*
X102122212Y-92470292D01*
X102309013Y-92509998D01*
X102499987Y-92509998D01*
X102686788Y-92470292D01*
X102861252Y-92392616D01*
X103015753Y-92280364D01*
X103084264Y-92204274D01*
X103143747Y-92167629D01*
X103213604Y-92168958D01*
X103271652Y-92207844D01*
X103283911Y-92227536D01*
X103284631Y-92227121D01*
X103287881Y-92232750D01*
X103314113Y-92268857D01*
X103317648Y-92274300D01*
X103339956Y-92312938D01*
X103339962Y-92312947D01*
X103369813Y-92346100D01*
X103373900Y-92351146D01*
X103400134Y-92387253D01*
X103433290Y-92417106D01*
X103437881Y-92421696D01*
X103467747Y-92454866D01*
X103503843Y-92481091D01*
X103508890Y-92485177D01*
X103542056Y-92515040D01*
X103580703Y-92537353D01*
X103586140Y-92540884D01*
X103622248Y-92567118D01*
X103663027Y-92585273D01*
X103668790Y-92588209D01*
X103707444Y-92610527D01*
X103749883Y-92624315D01*
X103755940Y-92626640D01*
X103796712Y-92644794D01*
X103840368Y-92654072D01*
X103846629Y-92655751D01*
X103867901Y-92662662D01*
X103889067Y-92669541D01*
X103889069Y-92669541D01*
X103889072Y-92669542D01*
X103933457Y-92674206D01*
X103939853Y-92675219D01*
X103983513Y-92684500D01*
X103983515Y-92684500D01*
X104174483Y-92684500D01*
X104174487Y-92684500D01*
X104218151Y-92675218D01*
X104224537Y-92674207D01*
X104268928Y-92669542D01*
X104311372Y-92655749D01*
X104317631Y-92654072D01*
X104361288Y-92644794D01*
X104402061Y-92626639D01*
X104408112Y-92624316D01*
X104450556Y-92610527D01*
X104489202Y-92588213D01*
X104494970Y-92585273D01*
X104535752Y-92567118D01*
X104571863Y-92540880D01*
X104577289Y-92537356D01*
X104615944Y-92515040D01*
X104649112Y-92485174D01*
X104654144Y-92481099D01*
X104690253Y-92454866D01*
X104720118Y-92421695D01*
X104724695Y-92417118D01*
X104757866Y-92387253D01*
X104784099Y-92351144D01*
X104788174Y-92346112D01*
X104818040Y-92312944D01*
X104840356Y-92274289D01*
X104843884Y-92268859D01*
X104870118Y-92232752D01*
X104888273Y-92191970D01*
X104891217Y-92186195D01*
X104913527Y-92147556D01*
X104927316Y-92105112D01*
X104929642Y-92099055D01*
X104947794Y-92058288D01*
X104957072Y-92014631D01*
X104958749Y-92008372D01*
X104972542Y-91965928D01*
X104977207Y-91921537D01*
X104978218Y-91915151D01*
X104987500Y-91871487D01*
X104987500Y-91826863D01*
X104987840Y-91820378D01*
X104990882Y-91791429D01*
X104992504Y-91776000D01*
X104989556Y-91747955D01*
X104987840Y-91731619D01*
X104987500Y-91725135D01*
X104987500Y-91680515D01*
X104987500Y-91680513D01*
X104978219Y-91636853D01*
X104977206Y-91630452D01*
X104972541Y-91586067D01*
X104965662Y-91564901D01*
X104958751Y-91543629D01*
X104957072Y-91537365D01*
X104954480Y-91525171D01*
X104947794Y-91493712D01*
X104929640Y-91452940D01*
X104927313Y-91446876D01*
X104913526Y-91404442D01*
X104913524Y-91404439D01*
X104891209Y-91365790D01*
X104888276Y-91360035D01*
X104875099Y-91330437D01*
X104865817Y-91261190D01*
X104895448Y-91197914D01*
X104954584Y-91160703D01*
X105024451Y-91161370D01*
X105043652Y-91169008D01*
X105111783Y-91202933D01*
X105111803Y-91202941D01*
X105316780Y-91261261D01*
X105316783Y-91261262D01*
X105475833Y-91276000D01*
X105729000Y-91276000D01*
X105729000Y-90551000D01*
X106229000Y-90551000D01*
X106229000Y-91276000D01*
X106482167Y-91276000D01*
X106641216Y-91261262D01*
X106641219Y-91261261D01*
X106846196Y-91202941D01*
X106846216Y-91202933D01*
X107036990Y-91107939D01*
X107173588Y-91004784D01*
X107238949Y-90980091D01*
X107307284Y-90994656D01*
X107356897Y-91043853D01*
X107372316Y-91103428D01*
X107386034Y-96604023D01*
X107366516Y-96671111D01*
X107313827Y-96716998D01*
X107244693Y-96727113D01*
X107181065Y-96698247D01*
X107161026Y-96676259D01*
X107120124Y-96618820D01*
X106971543Y-96477148D01*
X106798834Y-96366155D01*
X106608238Y-96289852D01*
X106406651Y-96251000D01*
X106229000Y-96251000D01*
X106229000Y-97051000D01*
X105729000Y-97051000D01*
X105729000Y-96251000D01*
X105602795Y-96251000D01*
X105449629Y-96265625D01*
X105449625Y-96265626D01*
X105252648Y-96323463D01*
X105070162Y-96417541D01*
X104908793Y-96544444D01*
X104908790Y-96544448D01*
X104774345Y-96699604D01*
X104687964Y-96849221D01*
X104637397Y-96897437D01*
X104568790Y-96910659D01*
X104503925Y-96884691D01*
X104463397Y-96827777D01*
X104460072Y-96816455D01*
X104423229Y-96664590D01*
X104420080Y-96657693D01*
X104410137Y-96588534D01*
X104439162Y-96524979D01*
X104470869Y-96498798D01*
X104489209Y-96488209D01*
X104494970Y-96485273D01*
X104535752Y-96467118D01*
X104571863Y-96440880D01*
X104577289Y-96437356D01*
X104615944Y-96415040D01*
X104649112Y-96385174D01*
X104654144Y-96381099D01*
X104690253Y-96354866D01*
X104720118Y-96321695D01*
X104724695Y-96317118D01*
X104757866Y-96287253D01*
X104784099Y-96251144D01*
X104788174Y-96246112D01*
X104818040Y-96212944D01*
X104840356Y-96174289D01*
X104843884Y-96168859D01*
X104870118Y-96132752D01*
X104888273Y-96091970D01*
X104891217Y-96086195D01*
X104913527Y-96047556D01*
X104927316Y-96005112D01*
X104929642Y-95999055D01*
X104947794Y-95958288D01*
X104957072Y-95914631D01*
X104958749Y-95908372D01*
X104972542Y-95865928D01*
X104977207Y-95821537D01*
X104978218Y-95815151D01*
X104987500Y-95771487D01*
X104987500Y-95726863D01*
X104987840Y-95720378D01*
X104988845Y-95710804D01*
X104992504Y-95676000D01*
X104989556Y-95647955D01*
X104987840Y-95631619D01*
X104987500Y-95625135D01*
X104987500Y-95580515D01*
X104987500Y-95580513D01*
X104978219Y-95536853D01*
X104977206Y-95530457D01*
X104972542Y-95486072D01*
X104972541Y-95486069D01*
X104972541Y-95486067D01*
X104965662Y-95464901D01*
X104958751Y-95443629D01*
X104957072Y-95437365D01*
X104957071Y-95437359D01*
X104947794Y-95393712D01*
X104929640Y-95352940D01*
X104927313Y-95346876D01*
X104913526Y-95304442D01*
X104913524Y-95304439D01*
X104891215Y-95265800D01*
X104891209Y-95265790D01*
X104888268Y-95260016D01*
X104870118Y-95219248D01*
X104843884Y-95183140D01*
X104840351Y-95177700D01*
X104818040Y-95139056D01*
X104788177Y-95105890D01*
X104784090Y-95100842D01*
X104757865Y-95064746D01*
X104745043Y-95053202D01*
X104724696Y-95034881D01*
X104720106Y-95030290D01*
X104690253Y-94997134D01*
X104654146Y-94970900D01*
X104649100Y-94966813D01*
X104615947Y-94936962D01*
X104615938Y-94936956D01*
X104577300Y-94914648D01*
X104571857Y-94911113D01*
X104559505Y-94902139D01*
X104535752Y-94884882D01*
X104494984Y-94866731D01*
X104489197Y-94863783D01*
X104450554Y-94841472D01*
X104408118Y-94827683D01*
X104402056Y-94825357D01*
X104361290Y-94807206D01*
X104317639Y-94797928D01*
X104311367Y-94796247D01*
X104268926Y-94782457D01*
X104268928Y-94782457D01*
X104224547Y-94777792D01*
X104218136Y-94776777D01*
X104174487Y-94767500D01*
X103983513Y-94767500D01*
X103983512Y-94767500D01*
X103939865Y-94776776D01*
X103933454Y-94777792D01*
X103889072Y-94782457D01*
X103889071Y-94782457D01*
X103846630Y-94796248D01*
X103840359Y-94797928D01*
X103796712Y-94807205D01*
X103755947Y-94825355D01*
X103749887Y-94827681D01*
X103707451Y-94841470D01*
X103707443Y-94841473D01*
X103668800Y-94863783D01*
X103663016Y-94866730D01*
X103622250Y-94884880D01*
X103622246Y-94884882D01*
X103586142Y-94911112D01*
X103580700Y-94914646D01*
X103542054Y-94936960D01*
X103508896Y-94966816D01*
X103503850Y-94970902D01*
X103467747Y-94997133D01*
X103437886Y-95030296D01*
X103433296Y-95034886D01*
X103400133Y-95064747D01*
X103373902Y-95100850D01*
X103369816Y-95105896D01*
X103339960Y-95139054D01*
X103317646Y-95177700D01*
X103314112Y-95183142D01*
X103287882Y-95219246D01*
X103287880Y-95219250D01*
X103269730Y-95260016D01*
X103266783Y-95265800D01*
X103244473Y-95304443D01*
X103244470Y-95304451D01*
X103230681Y-95346887D01*
X103228355Y-95352947D01*
X103210205Y-95393712D01*
X103200928Y-95437359D01*
X103199248Y-95443630D01*
X103185457Y-95486071D01*
X103185457Y-95486072D01*
X103180792Y-95530454D01*
X103179776Y-95536865D01*
X103170500Y-95580512D01*
X103170500Y-95625135D01*
X103170160Y-95631619D01*
X103165496Y-95675999D01*
X103170160Y-95720378D01*
X103170500Y-95726863D01*
X103170500Y-95771488D01*
X103171506Y-95776222D01*
X103166188Y-95845889D01*
X103124050Y-95901621D01*
X103058470Y-95925725D01*
X103050215Y-95926000D01*
X102926602Y-95926000D01*
X102769877Y-95940965D01*
X102769873Y-95940966D01*
X102568313Y-96000149D01*
X102381585Y-96096413D01*
X102216459Y-96226270D01*
X102209399Y-96234419D01*
X102150620Y-96272192D01*
X102080750Y-96272190D01*
X102069722Y-96268137D01*
X102066839Y-96267200D01*
X101880040Y-96227495D01*
X101689066Y-96227495D01*
X101502267Y-96267200D01*
X101491059Y-96272190D01*
X101379847Y-96321705D01*
X101327799Y-96344878D01*
X101173298Y-96457130D01*
X101045512Y-96599052D01*
X100950026Y-96764438D01*
X100950024Y-96764442D01*
X100906383Y-96898756D01*
X100866945Y-96956431D01*
X100814239Y-96981726D01*
X100805315Y-96983623D01*
X100805313Y-96983624D01*
X100653984Y-97051000D01*
X100630845Y-97061302D01*
X100476346Y-97173553D01*
X100348560Y-97315475D01*
X100253074Y-97480861D01*
X100253071Y-97480868D01*
X100214038Y-97601000D01*
X100194059Y-97662490D01*
X100174097Y-97852418D01*
X100194059Y-98042346D01*
X100194060Y-98042349D01*
X100253071Y-98223967D01*
X100253074Y-98223974D01*
X100348561Y-98389362D01*
X100476348Y-98531284D01*
X100630849Y-98643536D01*
X100805313Y-98721212D01*
X100992114Y-98760918D01*
X101183088Y-98760918D01*
X101369889Y-98721212D01*
X101544353Y-98643536D01*
X101698854Y-98531284D01*
X101826641Y-98389362D01*
X101922128Y-98223974D01*
X101965771Y-98089655D01*
X102005207Y-98031982D01*
X102057919Y-98006685D01*
X102066841Y-98004789D01*
X102241305Y-97927113D01*
X102241310Y-97927109D01*
X102242310Y-97926664D01*
X102311560Y-97917380D01*
X102359785Y-97935628D01*
X102472657Y-98008166D01*
X102667685Y-98086244D01*
X102873959Y-98125999D01*
X102875610Y-98126157D01*
X102876383Y-98126466D01*
X102879763Y-98127118D01*
X102879637Y-98127769D01*
X102940476Y-98152120D01*
X102981008Y-98209032D01*
X102984338Y-98278822D01*
X102949407Y-98339333D01*
X102936718Y-98349913D01*
X102893746Y-98381134D01*
X102765959Y-98523057D01*
X102670473Y-98688443D01*
X102670470Y-98688450D01*
X102613977Y-98862318D01*
X102574539Y-98919994D01*
X102510181Y-98947192D01*
X102496046Y-98948000D01*
X102405782Y-98948000D01*
X102203845Y-98985749D01*
X102203842Y-98985749D01*
X102203842Y-98985750D01*
X102012279Y-99059961D01*
X101837616Y-99168109D01*
X101685800Y-99306506D01*
X101561998Y-99470447D01*
X101561993Y-99470455D01*
X101470430Y-99654337D01*
X101470424Y-99654352D01*
X101414206Y-99851939D01*
X101414205Y-99851941D01*
X101395251Y-100056499D01*
X101395251Y-100056500D01*
X101414205Y-100261058D01*
X101414206Y-100261060D01*
X101470424Y-100458647D01*
X101470430Y-100458662D01*
X101561993Y-100642544D01*
X101561998Y-100642552D01*
X101685800Y-100806493D01*
X101791340Y-100902704D01*
X101837618Y-100944892D01*
X102012282Y-101053040D01*
X102203845Y-101127251D01*
X102405782Y-101165000D01*
X102405784Y-101165000D01*
X102611216Y-101165000D01*
X102611218Y-101165000D01*
X102813155Y-101127251D01*
X103004718Y-101053040D01*
X103179382Y-100944892D01*
X103331201Y-100806491D01*
X103455003Y-100642550D01*
X103546574Y-100458652D01*
X103602794Y-100261059D01*
X103621749Y-100056500D01*
X103621748Y-100056495D01*
X103622073Y-100052995D01*
X103647859Y-99988058D01*
X103704659Y-99947370D01*
X103719753Y-99943148D01*
X103787288Y-99928794D01*
X103787292Y-99928792D01*
X103790219Y-99928170D01*
X103859886Y-99933486D01*
X103915620Y-99975623D01*
X103939725Y-100041203D01*
X103940000Y-100049460D01*
X103940000Y-100705154D01*
X103946511Y-100765702D01*
X103946511Y-100765704D01*
X103986199Y-100872107D01*
X103997611Y-100902704D01*
X104085239Y-101019761D01*
X104202296Y-101107389D01*
X104339299Y-101158489D01*
X104366550Y-101161418D01*
X104399845Y-101164999D01*
X104399862Y-101165000D01*
X105697138Y-101165000D01*
X105697154Y-101164999D01*
X105724192Y-101162091D01*
X105757701Y-101158489D01*
X105894704Y-101107389D01*
X106011761Y-101019761D01*
X106099389Y-100902704D01*
X106150489Y-100765701D01*
X106154278Y-100730460D01*
X106156999Y-100705154D01*
X106157000Y-100705137D01*
X106157000Y-99407862D01*
X106156999Y-99407845D01*
X106153657Y-99376770D01*
X106150489Y-99347299D01*
X106145898Y-99334991D01*
X106127246Y-99284984D01*
X106099389Y-99210296D01*
X106011761Y-99093239D01*
X105894704Y-99005611D01*
X105757703Y-98954511D01*
X105697154Y-98948000D01*
X105697138Y-98948000D01*
X104513954Y-98948000D01*
X104446915Y-98928315D01*
X104401160Y-98875511D01*
X104396023Y-98862318D01*
X104339529Y-98688450D01*
X104339528Y-98688449D01*
X104339527Y-98688444D01*
X104244040Y-98523056D01*
X104116253Y-98381134D01*
X103961752Y-98268882D01*
X103879575Y-98232294D01*
X103826339Y-98187045D01*
X103806018Y-98120196D01*
X103825063Y-98052973D01*
X103873193Y-98008800D01*
X103976412Y-97955587D01*
X104141537Y-97825731D01*
X104141540Y-97825728D01*
X104279105Y-97666969D01*
X104279114Y-97666958D01*
X104371691Y-97506609D01*
X104422258Y-97458394D01*
X104490865Y-97445170D01*
X104555729Y-97471138D01*
X104596258Y-97528052D01*
X104599583Y-97539375D01*
X104633503Y-97679195D01*
X104718787Y-97865943D01*
X104718789Y-97865947D01*
X104837870Y-98033173D01*
X104837875Y-98033179D01*
X104986456Y-98174851D01*
X105159165Y-98285844D01*
X105349761Y-98362147D01*
X105551349Y-98401000D01*
X105729000Y-98401000D01*
X105729000Y-97601000D01*
X106229000Y-97601000D01*
X106229000Y-98401000D01*
X106355205Y-98401000D01*
X106508370Y-98386374D01*
X106508374Y-98386373D01*
X106705351Y-98328536D01*
X106887837Y-98234458D01*
X107049206Y-98107555D01*
X107049214Y-98107547D01*
X107171919Y-97965938D01*
X107230697Y-97928163D01*
X107300566Y-97928163D01*
X107359345Y-97965937D01*
X107388370Y-98029492D01*
X107389632Y-98046831D01*
X107397478Y-101193006D01*
X107417501Y-109222194D01*
X107397984Y-109289279D01*
X107345295Y-109335166D01*
X107293502Y-109346500D01*
X84329088Y-109346500D01*
X79211630Y-109329469D01*
X79144657Y-109309562D01*
X79099078Y-109256606D01*
X79089365Y-109187415D01*
X79118601Y-109123956D01*
X79140919Y-109103895D01*
X79306282Y-108988105D01*
X79473305Y-108821082D01*
X79608800Y-108627578D01*
X79708629Y-108413492D01*
X79708632Y-108413486D01*
X79765836Y-108200000D01*
X78868886Y-108200000D01*
X78894693Y-108159844D01*
X78935200Y-108021889D01*
X78935200Y-107878111D01*
X78894693Y-107740156D01*
X78868886Y-107700000D01*
X79765836Y-107700000D01*
X79765835Y-107699999D01*
X79759539Y-107676500D01*
X81075251Y-107676500D01*
X81094205Y-107881058D01*
X81094206Y-107881060D01*
X81150424Y-108078647D01*
X81150430Y-108078662D01*
X81241993Y-108262544D01*
X81241998Y-108262552D01*
X81365800Y-108426493D01*
X81496404Y-108545553D01*
X81517618Y-108564892D01*
X81692282Y-108673040D01*
X81883845Y-108747251D01*
X82085782Y-108785000D01*
X82085784Y-108785000D01*
X82291216Y-108785000D01*
X82291218Y-108785000D01*
X82493155Y-108747251D01*
X82684718Y-108673040D01*
X82859382Y-108564892D01*
X83011201Y-108426491D01*
X83135003Y-108262550D01*
X83226574Y-108078652D01*
X83282794Y-107881059D01*
X83301749Y-107676500D01*
X83615251Y-107676500D01*
X83634205Y-107881058D01*
X83634206Y-107881060D01*
X83690424Y-108078647D01*
X83690430Y-108078662D01*
X83781993Y-108262544D01*
X83781998Y-108262552D01*
X83905800Y-108426493D01*
X84036404Y-108545553D01*
X84057618Y-108564892D01*
X84232282Y-108673040D01*
X84423845Y-108747251D01*
X84625782Y-108785000D01*
X84625784Y-108785000D01*
X84831216Y-108785000D01*
X84831218Y-108785000D01*
X85033155Y-108747251D01*
X85224718Y-108673040D01*
X85399382Y-108564892D01*
X85551201Y-108426491D01*
X85675003Y-108262550D01*
X85766574Y-108078652D01*
X85822794Y-107881059D01*
X85841749Y-107676500D01*
X86155251Y-107676500D01*
X86174205Y-107881058D01*
X86174206Y-107881060D01*
X86230424Y-108078647D01*
X86230430Y-108078662D01*
X86321993Y-108262544D01*
X86321998Y-108262552D01*
X86445800Y-108426493D01*
X86576404Y-108545553D01*
X86597618Y-108564892D01*
X86772282Y-108673040D01*
X86963845Y-108747251D01*
X87165782Y-108785000D01*
X87165784Y-108785000D01*
X87371216Y-108785000D01*
X87371218Y-108785000D01*
X87573155Y-108747251D01*
X87764718Y-108673040D01*
X87939382Y-108564892D01*
X88091201Y-108426491D01*
X88215003Y-108262550D01*
X88306574Y-108078652D01*
X88362794Y-107881059D01*
X88381749Y-107676500D01*
X88695251Y-107676500D01*
X88714205Y-107881058D01*
X88714206Y-107881060D01*
X88770424Y-108078647D01*
X88770430Y-108078662D01*
X88861993Y-108262544D01*
X88861998Y-108262552D01*
X88985800Y-108426493D01*
X89116404Y-108545553D01*
X89137618Y-108564892D01*
X89312282Y-108673040D01*
X89503845Y-108747251D01*
X89705782Y-108785000D01*
X89705784Y-108785000D01*
X89911216Y-108785000D01*
X89911218Y-108785000D01*
X90113155Y-108747251D01*
X90304718Y-108673040D01*
X90479382Y-108564892D01*
X90631201Y-108426491D01*
X90755003Y-108262550D01*
X90846574Y-108078652D01*
X90902794Y-107881059D01*
X90921749Y-107676500D01*
X91235251Y-107676500D01*
X91254205Y-107881058D01*
X91254206Y-107881060D01*
X91310424Y-108078647D01*
X91310430Y-108078662D01*
X91401993Y-108262544D01*
X91401998Y-108262552D01*
X91525800Y-108426493D01*
X91656404Y-108545553D01*
X91677618Y-108564892D01*
X91852282Y-108673040D01*
X92043845Y-108747251D01*
X92245782Y-108785000D01*
X92245784Y-108785000D01*
X92451216Y-108785000D01*
X92451218Y-108785000D01*
X92653155Y-108747251D01*
X92844718Y-108673040D01*
X93019382Y-108564892D01*
X93171201Y-108426491D01*
X93295003Y-108262550D01*
X93386574Y-108078652D01*
X93442794Y-107881059D01*
X93461749Y-107676500D01*
X93775251Y-107676500D01*
X93794205Y-107881058D01*
X93794206Y-107881060D01*
X93850424Y-108078647D01*
X93850430Y-108078662D01*
X93941993Y-108262544D01*
X93941998Y-108262552D01*
X94065800Y-108426493D01*
X94196404Y-108545553D01*
X94217618Y-108564892D01*
X94392282Y-108673040D01*
X94583845Y-108747251D01*
X94785782Y-108785000D01*
X94785784Y-108785000D01*
X94991216Y-108785000D01*
X94991218Y-108785000D01*
X95193155Y-108747251D01*
X95384718Y-108673040D01*
X95559382Y-108564892D01*
X95711201Y-108426491D01*
X95835003Y-108262550D01*
X95926574Y-108078652D01*
X95982794Y-107881059D01*
X96001749Y-107676500D01*
X96315251Y-107676500D01*
X96334205Y-107881058D01*
X96334206Y-107881060D01*
X96390424Y-108078647D01*
X96390430Y-108078662D01*
X96481993Y-108262544D01*
X96481998Y-108262552D01*
X96605800Y-108426493D01*
X96736404Y-108545553D01*
X96757618Y-108564892D01*
X96932282Y-108673040D01*
X97123845Y-108747251D01*
X97325782Y-108785000D01*
X97325784Y-108785000D01*
X97531216Y-108785000D01*
X97531218Y-108785000D01*
X97733155Y-108747251D01*
X97924718Y-108673040D01*
X98099382Y-108564892D01*
X98251201Y-108426491D01*
X98375003Y-108262550D01*
X98466574Y-108078652D01*
X98522794Y-107881059D01*
X98541749Y-107676500D01*
X98855251Y-107676500D01*
X98874205Y-107881058D01*
X98874206Y-107881060D01*
X98930424Y-108078647D01*
X98930430Y-108078662D01*
X99021993Y-108262544D01*
X99021998Y-108262552D01*
X99145800Y-108426493D01*
X99276404Y-108545553D01*
X99297618Y-108564892D01*
X99472282Y-108673040D01*
X99663845Y-108747251D01*
X99865782Y-108785000D01*
X99865784Y-108785000D01*
X100071216Y-108785000D01*
X100071218Y-108785000D01*
X100273155Y-108747251D01*
X100464718Y-108673040D01*
X100639382Y-108564892D01*
X100791201Y-108426491D01*
X100915003Y-108262550D01*
X101006574Y-108078652D01*
X101062794Y-107881059D01*
X101081749Y-107676500D01*
X101395251Y-107676500D01*
X101414205Y-107881058D01*
X101414206Y-107881060D01*
X101470424Y-108078647D01*
X101470430Y-108078662D01*
X101561993Y-108262544D01*
X101561998Y-108262552D01*
X101685800Y-108426493D01*
X101816404Y-108545553D01*
X101837618Y-108564892D01*
X102012282Y-108673040D01*
X102203845Y-108747251D01*
X102405782Y-108785000D01*
X102405784Y-108785000D01*
X102611216Y-108785000D01*
X102611218Y-108785000D01*
X102813155Y-108747251D01*
X103004718Y-108673040D01*
X103179382Y-108564892D01*
X103331201Y-108426491D01*
X103455003Y-108262550D01*
X103546574Y-108078652D01*
X103602794Y-107881059D01*
X103621749Y-107676500D01*
X103935251Y-107676500D01*
X103954205Y-107881058D01*
X103954206Y-107881060D01*
X104010424Y-108078647D01*
X104010430Y-108078662D01*
X104101993Y-108262544D01*
X104101998Y-108262552D01*
X104225800Y-108426493D01*
X104356404Y-108545553D01*
X104377618Y-108564892D01*
X104552282Y-108673040D01*
X104743845Y-108747251D01*
X104945782Y-108785000D01*
X104945784Y-108785000D01*
X105151216Y-108785000D01*
X105151218Y-108785000D01*
X105353155Y-108747251D01*
X105544718Y-108673040D01*
X105719382Y-108564892D01*
X105871201Y-108426491D01*
X105995003Y-108262550D01*
X106086574Y-108078652D01*
X106142794Y-107881059D01*
X106161749Y-107676500D01*
X106142794Y-107471941D01*
X106086574Y-107274348D01*
X106085614Y-107272420D01*
X105995006Y-107090455D01*
X105995001Y-107090447D01*
X105871199Y-106926506D01*
X105719383Y-106788109D01*
X105719382Y-106788108D01*
X105544718Y-106679960D01*
X105353155Y-106605749D01*
X105151218Y-106568000D01*
X104945782Y-106568000D01*
X104743845Y-106605749D01*
X104743842Y-106605749D01*
X104743842Y-106605750D01*
X104552279Y-106679961D01*
X104377616Y-106788109D01*
X104225800Y-106926506D01*
X104101998Y-107090447D01*
X104101993Y-107090455D01*
X104010430Y-107274337D01*
X104010424Y-107274352D01*
X103954206Y-107471939D01*
X103954205Y-107471941D01*
X103935251Y-107676499D01*
X103935251Y-107676500D01*
X103621749Y-107676500D01*
X103602794Y-107471941D01*
X103546574Y-107274348D01*
X103545614Y-107272420D01*
X103455006Y-107090455D01*
X103455001Y-107090447D01*
X103331199Y-106926506D01*
X103179383Y-106788109D01*
X103179382Y-106788108D01*
X103004718Y-106679960D01*
X102813155Y-106605749D01*
X102611218Y-106568000D01*
X102405782Y-106568000D01*
X102203845Y-106605749D01*
X102203842Y-106605749D01*
X102203842Y-106605750D01*
X102012279Y-106679961D01*
X101837616Y-106788109D01*
X101685800Y-106926506D01*
X101561998Y-107090447D01*
X101561993Y-107090455D01*
X101470430Y-107274337D01*
X101470424Y-107274352D01*
X101414206Y-107471939D01*
X101414205Y-107471941D01*
X101395251Y-107676499D01*
X101395251Y-107676500D01*
X101081749Y-107676500D01*
X101062794Y-107471941D01*
X101006574Y-107274348D01*
X101005614Y-107272420D01*
X100915006Y-107090455D01*
X100915001Y-107090447D01*
X100791199Y-106926506D01*
X100639383Y-106788109D01*
X100639382Y-106788108D01*
X100464718Y-106679960D01*
X100273155Y-106605749D01*
X100071218Y-106568000D01*
X99865782Y-106568000D01*
X99663845Y-106605749D01*
X99663842Y-106605749D01*
X99663842Y-106605750D01*
X99472279Y-106679961D01*
X99297616Y-106788109D01*
X99145800Y-106926506D01*
X99021998Y-107090447D01*
X99021993Y-107090455D01*
X98930430Y-107274337D01*
X98930424Y-107274352D01*
X98874206Y-107471939D01*
X98874205Y-107471941D01*
X98855251Y-107676499D01*
X98855251Y-107676500D01*
X98541749Y-107676500D01*
X98522794Y-107471941D01*
X98466574Y-107274348D01*
X98465614Y-107272420D01*
X98375006Y-107090455D01*
X98375001Y-107090447D01*
X98251199Y-106926506D01*
X98099383Y-106788109D01*
X98099382Y-106788108D01*
X97924718Y-106679960D01*
X97733155Y-106605749D01*
X97531218Y-106568000D01*
X97325782Y-106568000D01*
X97123845Y-106605749D01*
X97123842Y-106605749D01*
X97123842Y-106605750D01*
X96932279Y-106679961D01*
X96757616Y-106788109D01*
X96605800Y-106926506D01*
X96481998Y-107090447D01*
X96481993Y-107090455D01*
X96390430Y-107274337D01*
X96390424Y-107274352D01*
X96334206Y-107471939D01*
X96334205Y-107471941D01*
X96315251Y-107676499D01*
X96315251Y-107676500D01*
X96001749Y-107676500D01*
X95982794Y-107471941D01*
X95926574Y-107274348D01*
X95925614Y-107272420D01*
X95835006Y-107090455D01*
X95835001Y-107090447D01*
X95711199Y-106926506D01*
X95559383Y-106788109D01*
X95559382Y-106788108D01*
X95384718Y-106679960D01*
X95193155Y-106605749D01*
X94991218Y-106568000D01*
X94785782Y-106568000D01*
X94583845Y-106605749D01*
X94583842Y-106605749D01*
X94583842Y-106605750D01*
X94392279Y-106679961D01*
X94217616Y-106788109D01*
X94065800Y-106926506D01*
X93941998Y-107090447D01*
X93941993Y-107090455D01*
X93850430Y-107274337D01*
X93850424Y-107274352D01*
X93794206Y-107471939D01*
X93794205Y-107471941D01*
X93775251Y-107676499D01*
X93775251Y-107676500D01*
X93461749Y-107676500D01*
X93442794Y-107471941D01*
X93386574Y-107274348D01*
X93385614Y-107272420D01*
X93295006Y-107090455D01*
X93295001Y-107090447D01*
X93171199Y-106926506D01*
X93019383Y-106788109D01*
X93019382Y-106788108D01*
X92844718Y-106679960D01*
X92653155Y-106605749D01*
X92451218Y-106568000D01*
X92245782Y-106568000D01*
X92043845Y-106605749D01*
X92043842Y-106605749D01*
X92043842Y-106605750D01*
X91852279Y-106679961D01*
X91677616Y-106788109D01*
X91525800Y-106926506D01*
X91401998Y-107090447D01*
X91401993Y-107090455D01*
X91310430Y-107274337D01*
X91310424Y-107274352D01*
X91254206Y-107471939D01*
X91254205Y-107471941D01*
X91235251Y-107676499D01*
X91235251Y-107676500D01*
X90921749Y-107676500D01*
X90902794Y-107471941D01*
X90846574Y-107274348D01*
X90845614Y-107272420D01*
X90755006Y-107090455D01*
X90755001Y-107090447D01*
X90631199Y-106926506D01*
X90479383Y-106788109D01*
X90479382Y-106788108D01*
X90304718Y-106679960D01*
X90113155Y-106605749D01*
X89911218Y-106568000D01*
X89705782Y-106568000D01*
X89503845Y-106605749D01*
X89503842Y-106605749D01*
X89503842Y-106605750D01*
X89312279Y-106679961D01*
X89137616Y-106788109D01*
X88985800Y-106926506D01*
X88861998Y-107090447D01*
X88861993Y-107090455D01*
X88770430Y-107274337D01*
X88770424Y-107274352D01*
X88714206Y-107471939D01*
X88714205Y-107471941D01*
X88695251Y-107676499D01*
X88695251Y-107676500D01*
X88381749Y-107676500D01*
X88362794Y-107471941D01*
X88306574Y-107274348D01*
X88305614Y-107272420D01*
X88215006Y-107090455D01*
X88215001Y-107090447D01*
X88091199Y-106926506D01*
X87939383Y-106788109D01*
X87939382Y-106788108D01*
X87764718Y-106679960D01*
X87573155Y-106605749D01*
X87371218Y-106568000D01*
X87165782Y-106568000D01*
X86963845Y-106605749D01*
X86963842Y-106605749D01*
X86963842Y-106605750D01*
X86772279Y-106679961D01*
X86597616Y-106788109D01*
X86445800Y-106926506D01*
X86321998Y-107090447D01*
X86321993Y-107090455D01*
X86230430Y-107274337D01*
X86230424Y-107274352D01*
X86174206Y-107471939D01*
X86174205Y-107471941D01*
X86155251Y-107676499D01*
X86155251Y-107676500D01*
X85841749Y-107676500D01*
X85822794Y-107471941D01*
X85766574Y-107274348D01*
X85765614Y-107272420D01*
X85675006Y-107090455D01*
X85675001Y-107090447D01*
X85551199Y-106926506D01*
X85399383Y-106788109D01*
X85399382Y-106788108D01*
X85224718Y-106679960D01*
X85033155Y-106605749D01*
X84831218Y-106568000D01*
X84625782Y-106568000D01*
X84423845Y-106605749D01*
X84423842Y-106605749D01*
X84423842Y-106605750D01*
X84232279Y-106679961D01*
X84057616Y-106788109D01*
X83905800Y-106926506D01*
X83781998Y-107090447D01*
X83781993Y-107090455D01*
X83690430Y-107274337D01*
X83690424Y-107274352D01*
X83634206Y-107471939D01*
X83634205Y-107471941D01*
X83615251Y-107676499D01*
X83615251Y-107676500D01*
X83301749Y-107676500D01*
X83282794Y-107471941D01*
X83226574Y-107274348D01*
X83225614Y-107272420D01*
X83135006Y-107090455D01*
X83135001Y-107090447D01*
X83011199Y-106926506D01*
X82859383Y-106788109D01*
X82859382Y-106788108D01*
X82684718Y-106679960D01*
X82493155Y-106605749D01*
X82291218Y-106568000D01*
X82085782Y-106568000D01*
X81883845Y-106605749D01*
X81883842Y-106605749D01*
X81883842Y-106605750D01*
X81692279Y-106679961D01*
X81517616Y-106788109D01*
X81365800Y-106926506D01*
X81241998Y-107090447D01*
X81241993Y-107090455D01*
X81150430Y-107274337D01*
X81150424Y-107274352D01*
X81094206Y-107471939D01*
X81094205Y-107471941D01*
X81075251Y-107676499D01*
X81075251Y-107676500D01*
X79759539Y-107676500D01*
X79708632Y-107486513D01*
X79708629Y-107486507D01*
X79608800Y-107272422D01*
X79608799Y-107272420D01*
X79473313Y-107078926D01*
X79473308Y-107078920D01*
X79306282Y-106911894D01*
X79125397Y-106785236D01*
X79081772Y-106730659D01*
X79074580Y-106661160D01*
X79106102Y-106598806D01*
X79137500Y-106574608D01*
X79180776Y-106551189D01*
X79358440Y-106412906D01*
X79510922Y-106247268D01*
X79634060Y-106058791D01*
X79724496Y-105852616D01*
X79779764Y-105634368D01*
X79798356Y-105410000D01*
X79779764Y-105185632D01*
X79724496Y-104967384D01*
X79634060Y-104761209D01*
X79588881Y-104692058D01*
X79510923Y-104572734D01*
X79510915Y-104572723D01*
X79358443Y-104407097D01*
X79358438Y-104407092D01*
X79180777Y-104268812D01*
X79180778Y-104268812D01*
X79180776Y-104268811D01*
X79144270Y-104249055D01*
X79094679Y-104199836D01*
X79079571Y-104131619D01*
X79103741Y-104066064D01*
X79144270Y-104030945D01*
X79144284Y-104030936D01*
X79180776Y-104011189D01*
X79358440Y-103872906D01*
X79510922Y-103707268D01*
X79634060Y-103518791D01*
X79724496Y-103312616D01*
X79779764Y-103094368D01*
X79794509Y-102916417D01*
X79819662Y-102851237D01*
X79876064Y-102809998D01*
X79945807Y-102805800D01*
X80006749Y-102839974D01*
X80025471Y-102864659D01*
X80028555Y-102870000D01*
X80043909Y-102896593D01*
X80171696Y-103038515D01*
X80326197Y-103150767D01*
X80500661Y-103228443D01*
X80687462Y-103268149D01*
X80878436Y-103268149D01*
X81065237Y-103228443D01*
X81239701Y-103150767D01*
X81394202Y-103038515D01*
X81521989Y-102896593D01*
X81617476Y-102731205D01*
X81676491Y-102549577D01*
X81696453Y-102359649D01*
X81676491Y-102169721D01*
X81617476Y-101988093D01*
X81521989Y-101822705D01*
X81394202Y-101680783D01*
X81239701Y-101568531D01*
X81065237Y-101490855D01*
X81065235Y-101490854D01*
X80878436Y-101451149D01*
X80687462Y-101451149D01*
X80500663Y-101490854D01*
X80326195Y-101568532D01*
X80171694Y-101680784D01*
X80043908Y-101822706D01*
X79948422Y-101988092D01*
X79948419Y-101988099D01*
X79898208Y-102142634D01*
X79889407Y-102169721D01*
X79884595Y-102215501D01*
X79858011Y-102280115D01*
X79800713Y-102320099D01*
X79730894Y-102322759D01*
X79670721Y-102287249D01*
X79647719Y-102252348D01*
X79634059Y-102221207D01*
X79553092Y-102097278D01*
X79510922Y-102032732D01*
X79510919Y-102032729D01*
X79510915Y-102032723D01*
X79358443Y-101867097D01*
X79358438Y-101867092D01*
X79180777Y-101728812D01*
X79180778Y-101728812D01*
X79180776Y-101728811D01*
X79144270Y-101709055D01*
X79094679Y-101659836D01*
X79079571Y-101591619D01*
X79103741Y-101526064D01*
X79144270Y-101490945D01*
X79144438Y-101490854D01*
X79180776Y-101471189D01*
X79358440Y-101332906D01*
X79469996Y-101211725D01*
X79510915Y-101167276D01*
X79510916Y-101167274D01*
X79510922Y-101167268D01*
X79634060Y-100978791D01*
X79724496Y-100772616D01*
X79779764Y-100554368D01*
X79787695Y-100458662D01*
X79798356Y-100330005D01*
X79798356Y-100329994D01*
X79779765Y-100105640D01*
X79779763Y-100105628D01*
X79774884Y-100086361D01*
X79724496Y-99887384D01*
X79634060Y-99681209D01*
X79616513Y-99654352D01*
X79510923Y-99492734D01*
X79510915Y-99492723D01*
X79365710Y-99334991D01*
X79334787Y-99272337D01*
X79342647Y-99202911D01*
X79386794Y-99148755D01*
X79413605Y-99134827D01*
X79525103Y-99093239D01*
X79531404Y-99090889D01*
X79648461Y-99003261D01*
X79736089Y-98886204D01*
X79787189Y-98749201D01*
X79790791Y-98715692D01*
X79793699Y-98688654D01*
X79793700Y-98688637D01*
X79793700Y-96891362D01*
X79793699Y-96891345D01*
X79790357Y-96860270D01*
X79787189Y-96830799D01*
X79736089Y-96693796D01*
X79648461Y-96576739D01*
X79531404Y-96489111D01*
X79521095Y-96485266D01*
X79394403Y-96438011D01*
X79333854Y-96431500D01*
X79333838Y-96431500D01*
X79192700Y-96431500D01*
X79125661Y-96411815D01*
X79079906Y-96359011D01*
X79068700Y-96307500D01*
X79068700Y-90483766D01*
X79088385Y-90416727D01*
X79105019Y-90396085D01*
X79437086Y-90064019D01*
X79498409Y-90030534D01*
X79524767Y-90027700D01*
X82305417Y-90027700D01*
X82372456Y-90047385D01*
X82418211Y-90100189D01*
X82428737Y-90138735D01*
X82448044Y-90322428D01*
X82448045Y-90322431D01*
X82507056Y-90504049D01*
X82507057Y-90504051D01*
X82507059Y-90504056D01*
X82602546Y-90669444D01*
X82730333Y-90811366D01*
X82884834Y-90923618D01*
X83059298Y-91001294D01*
X83246099Y-91041000D01*
X83437073Y-91041000D01*
X83623874Y-91001294D01*
X83798338Y-90923618D01*
X83952839Y-90811366D01*
X84080626Y-90669444D01*
X84176113Y-90504056D01*
X84235128Y-90322428D01*
X84254434Y-90138736D01*
X84281019Y-90074124D01*
X84338316Y-90034139D01*
X84377755Y-90027700D01*
X85273083Y-90027700D01*
X85340122Y-90047385D01*
X85385877Y-90100189D01*
X85396404Y-90138738D01*
X85415658Y-90321928D01*
X85415659Y-90321931D01*
X85474670Y-90503549D01*
X85474673Y-90503556D01*
X85570160Y-90668944D01*
X85697947Y-90810866D01*
X85852448Y-90923118D01*
X86026912Y-91000794D01*
X86213713Y-91040500D01*
X86404685Y-91040500D01*
X86404687Y-91040500D01*
X86477764Y-91024966D01*
X86547430Y-91030281D01*
X86591226Y-91058575D01*
X92725377Y-97192726D01*
X92758862Y-97254049D01*
X92761696Y-97280407D01*
X92761696Y-97281997D01*
X92761696Y-97282000D01*
X92779458Y-97451000D01*
X92780452Y-97460449D01*
X92767883Y-97529179D01*
X92749281Y-97556383D01*
X92625003Y-97694408D01*
X92529517Y-97859795D01*
X92529514Y-97859802D01*
X92474379Y-98029492D01*
X92470502Y-98041424D01*
X92450540Y-98231352D01*
X92470502Y-98421280D01*
X92470503Y-98421283D01*
X92529514Y-98602901D01*
X92529519Y-98602913D01*
X92627571Y-98772745D01*
X92644044Y-98840645D01*
X92621191Y-98906672D01*
X92566270Y-98949862D01*
X92497399Y-98956632D01*
X92451218Y-98948000D01*
X92245782Y-98948000D01*
X92043845Y-98985749D01*
X92043842Y-98985749D01*
X92043842Y-98985750D01*
X91852279Y-99059961D01*
X91677616Y-99168109D01*
X91525800Y-99306506D01*
X91401998Y-99470447D01*
X91401993Y-99470455D01*
X91310430Y-99654337D01*
X91310424Y-99654352D01*
X91254206Y-99851939D01*
X91254206Y-99851941D01*
X91236786Y-100039928D01*
X91211000Y-100104865D01*
X91154199Y-100145552D01*
X91084418Y-100149072D01*
X91062880Y-100141766D01*
X91011088Y-100118706D01*
X91004911Y-100116700D01*
X91005640Y-100114454D01*
X90953614Y-100086361D01*
X90919843Y-100025195D01*
X90917413Y-100009711D01*
X90914254Y-99975623D01*
X90902794Y-99851941D01*
X90846574Y-99654348D01*
X90825516Y-99612058D01*
X90755006Y-99470455D01*
X90755001Y-99470447D01*
X90631199Y-99306506D01*
X90479383Y-99168109D01*
X90479382Y-99168108D01*
X90304718Y-99059960D01*
X90113155Y-98985749D01*
X89911218Y-98948000D01*
X89705782Y-98948000D01*
X89503845Y-98985749D01*
X89503842Y-98985749D01*
X89503842Y-98985750D01*
X89312279Y-99059961D01*
X89137616Y-99168109D01*
X88985800Y-99306506D01*
X88861998Y-99470447D01*
X88861993Y-99470455D01*
X88770430Y-99654337D01*
X88770425Y-99654350D01*
X88728958Y-99800090D01*
X88691678Y-99859183D01*
X88635474Y-99887445D01*
X88520836Y-99911812D01*
X88514656Y-99913821D01*
X88513770Y-99911097D01*
X88456869Y-99918657D01*
X88393628Y-99888952D01*
X88356565Y-99830049D01*
X88314216Y-99681209D01*
X88306574Y-99654348D01*
X88285516Y-99612058D01*
X88215006Y-99470455D01*
X88215001Y-99470447D01*
X88091199Y-99306506D01*
X87939383Y-99168109D01*
X87939382Y-99168108D01*
X87764718Y-99059960D01*
X87573155Y-98985749D01*
X87371218Y-98948000D01*
X87165782Y-98948000D01*
X86963845Y-98985749D01*
X86963842Y-98985749D01*
X86963842Y-98985750D01*
X86772279Y-99059961D01*
X86597616Y-99168109D01*
X86445800Y-99306506D01*
X86321998Y-99470447D01*
X86321993Y-99470455D01*
X86230430Y-99654337D01*
X86230424Y-99654352D01*
X86174206Y-99851939D01*
X86174205Y-99851941D01*
X86155251Y-100056499D01*
X86155251Y-100056500D01*
X86174205Y-100261058D01*
X86174206Y-100261060D01*
X86230424Y-100458647D01*
X86230430Y-100458662D01*
X86321993Y-100642544D01*
X86321998Y-100642552D01*
X86345279Y-100673380D01*
X86369971Y-100738741D01*
X86355406Y-100807076D01*
X86306209Y-100856688D01*
X86246325Y-100872107D01*
X85750675Y-100872107D01*
X85683636Y-100852422D01*
X85637881Y-100799618D01*
X85627937Y-100730460D01*
X85651721Y-100673380D01*
X85675001Y-100642552D01*
X85675003Y-100642550D01*
X85766574Y-100458652D01*
X85822794Y-100261059D01*
X85841749Y-100056500D01*
X85822794Y-99851941D01*
X85766574Y-99654348D01*
X85745516Y-99612058D01*
X85675006Y-99470455D01*
X85675001Y-99470447D01*
X85551199Y-99306506D01*
X85399383Y-99168109D01*
X85399382Y-99168108D01*
X85224718Y-99059960D01*
X85033155Y-98985749D01*
X84831218Y-98948000D01*
X84625782Y-98948000D01*
X84423845Y-98985749D01*
X84423842Y-98985749D01*
X84423842Y-98985750D01*
X84232279Y-99059961D01*
X84057616Y-99168109D01*
X83905800Y-99306506D01*
X83781998Y-99470447D01*
X83781993Y-99470455D01*
X83690430Y-99654337D01*
X83690424Y-99654352D01*
X83634206Y-99851939D01*
X83634205Y-99851941D01*
X83615251Y-100056499D01*
X83615251Y-100059500D01*
X83614844Y-100060883D01*
X83614722Y-100062208D01*
X83614462Y-100062183D01*
X83595566Y-100126539D01*
X83542762Y-100172294D01*
X83491251Y-100183500D01*
X83425749Y-100183500D01*
X83358710Y-100163815D01*
X83312955Y-100111011D01*
X83302336Y-100062202D01*
X83302278Y-100062208D01*
X83302233Y-100061726D01*
X83301749Y-100059500D01*
X83301749Y-100056499D01*
X83282794Y-99851941D01*
X83282793Y-99851939D01*
X83234216Y-99681209D01*
X83226574Y-99654348D01*
X83205516Y-99612058D01*
X83135006Y-99470455D01*
X83135001Y-99470447D01*
X83011199Y-99306506D01*
X82859383Y-99168109D01*
X82859382Y-99168108D01*
X82684718Y-99059960D01*
X82493155Y-98985749D01*
X82291218Y-98948000D01*
X82085782Y-98948000D01*
X81883845Y-98985749D01*
X81883842Y-98985749D01*
X81883842Y-98985750D01*
X81692279Y-99059961D01*
X81517616Y-99168109D01*
X81365800Y-99306506D01*
X81241998Y-99470447D01*
X81241993Y-99470455D01*
X81150430Y-99654337D01*
X81150424Y-99654352D01*
X81094206Y-99851939D01*
X81094205Y-99851941D01*
X81075251Y-100056499D01*
X81075251Y-100056500D01*
X81094205Y-100261058D01*
X81094206Y-100261060D01*
X81150424Y-100458647D01*
X81150430Y-100458662D01*
X81241993Y-100642544D01*
X81241998Y-100642552D01*
X81365800Y-100806493D01*
X81471340Y-100902704D01*
X81517618Y-100944892D01*
X81692282Y-101053040D01*
X81883845Y-101127251D01*
X82085782Y-101165000D01*
X82085784Y-101165000D01*
X82291216Y-101165000D01*
X82291218Y-101165000D01*
X82471177Y-101131359D01*
X82540690Y-101138390D01*
X82595368Y-101181887D01*
X82617280Y-101240284D01*
X82621657Y-101281925D01*
X82621658Y-101281929D01*
X82680670Y-101463549D01*
X82680673Y-101463556D01*
X82776160Y-101628944D01*
X82903947Y-101770866D01*
X83058448Y-101883118D01*
X83232912Y-101960794D01*
X83419713Y-102000500D01*
X83544187Y-102000500D01*
X83591640Y-102009939D01*
X83596931Y-102012130D01*
X83596932Y-102012131D01*
X83744957Y-102073445D01*
X83863922Y-102089107D01*
X83863927Y-102089107D01*
X83865712Y-102089342D01*
X83865730Y-102089344D01*
X83889176Y-102092430D01*
X83903806Y-102094357D01*
X83903807Y-102094357D01*
X83903808Y-102094357D01*
X83914279Y-102092978D01*
X83939655Y-102089637D01*
X83947753Y-102089107D01*
X90191748Y-102089107D01*
X90199845Y-102089637D01*
X90225221Y-102092978D01*
X90235693Y-102094357D01*
X90235694Y-102094357D01*
X90235695Y-102094357D01*
X90271540Y-102089638D01*
X90273655Y-102089359D01*
X90273668Y-102089358D01*
X90275575Y-102089107D01*
X90275579Y-102089107D01*
X90356696Y-102078427D01*
X90375151Y-102075998D01*
X90394545Y-102073445D01*
X90418566Y-102063495D01*
X90542570Y-102012131D01*
X90637766Y-101939084D01*
X90637767Y-101939082D01*
X90645858Y-101932874D01*
X90645866Y-101932867D01*
X90660522Y-101921622D01*
X90725692Y-101896431D01*
X90736004Y-101896001D01*
X90824287Y-101896001D01*
X91011088Y-101856295D01*
X91185552Y-101778619D01*
X91340053Y-101666367D01*
X91467840Y-101524445D01*
X91563327Y-101359057D01*
X91622342Y-101177429D01*
X91628018Y-101123419D01*
X91654601Y-101058808D01*
X91711898Y-101018823D01*
X91781717Y-101016162D01*
X91816617Y-101030957D01*
X91852278Y-101053038D01*
X91852280Y-101053038D01*
X91852282Y-101053040D01*
X92043845Y-101127251D01*
X92245782Y-101165000D01*
X92245784Y-101165000D01*
X92451216Y-101165000D01*
X92451218Y-101165000D01*
X92653155Y-101127251D01*
X92844718Y-101053040D01*
X93019382Y-100944892D01*
X93171201Y-100806491D01*
X93295003Y-100642550D01*
X93386574Y-100458652D01*
X93442794Y-100261059D01*
X93461749Y-100056500D01*
X93775251Y-100056500D01*
X93794205Y-100261058D01*
X93794206Y-100261060D01*
X93850424Y-100458647D01*
X93850430Y-100458662D01*
X93941993Y-100642544D01*
X93941998Y-100642552D01*
X94065800Y-100806493D01*
X94171340Y-100902704D01*
X94217618Y-100944892D01*
X94392282Y-101053040D01*
X94583845Y-101127251D01*
X94785782Y-101165000D01*
X94785784Y-101165000D01*
X94991216Y-101165000D01*
X94991218Y-101165000D01*
X95193155Y-101127251D01*
X95384718Y-101053040D01*
X95384723Y-101053037D01*
X95384725Y-101053036D01*
X95421150Y-101030483D01*
X95488510Y-101011926D01*
X95555210Y-101032734D01*
X95600071Y-101086299D01*
X95609748Y-101122944D01*
X95626458Y-101281928D01*
X95626459Y-101281931D01*
X95685470Y-101463549D01*
X95685473Y-101463556D01*
X95780960Y-101628944D01*
X95908747Y-101770866D01*
X96063248Y-101883118D01*
X96237712Y-101960794D01*
X96424513Y-102000500D01*
X96615487Y-102000500D01*
X96802288Y-101960794D01*
X96976752Y-101883118D01*
X97131253Y-101770866D01*
X97259040Y-101628944D01*
X97354527Y-101463556D01*
X97413542Y-101281928D01*
X97414166Y-101275993D01*
X97440747Y-101211378D01*
X97498043Y-101171391D01*
X97526049Y-101165479D01*
X97531212Y-101165000D01*
X97531218Y-101165000D01*
X97733155Y-101127251D01*
X97922642Y-101053843D01*
X97992266Y-101047982D01*
X98054006Y-101080692D01*
X98088261Y-101141589D01*
X98090756Y-101156503D01*
X98096560Y-101211725D01*
X98096561Y-101211728D01*
X98155572Y-101393346D01*
X98155575Y-101393353D01*
X98251062Y-101558741D01*
X98378849Y-101700663D01*
X98533350Y-101812915D01*
X98707814Y-101890591D01*
X98894615Y-101930297D01*
X99085589Y-101930297D01*
X99272390Y-101890591D01*
X99446854Y-101812915D01*
X99601355Y-101700663D01*
X99729142Y-101558741D01*
X99824629Y-101393353D01*
X99870986Y-101250682D01*
X99910423Y-101193006D01*
X99974782Y-101165808D01*
X99988917Y-101165000D01*
X100071216Y-101165000D01*
X100071218Y-101165000D01*
X100273155Y-101127251D01*
X100464718Y-101053040D01*
X100639382Y-100944892D01*
X100791201Y-100806491D01*
X100915003Y-100642550D01*
X101006574Y-100458652D01*
X101062794Y-100261059D01*
X101081749Y-100056500D01*
X101062794Y-99851941D01*
X101006574Y-99654348D01*
X100985516Y-99612058D01*
X100915006Y-99470455D01*
X100915001Y-99470447D01*
X100791199Y-99306506D01*
X100639383Y-99168109D01*
X100639382Y-99168108D01*
X100464718Y-99059960D01*
X100273155Y-98985749D01*
X100071218Y-98948000D01*
X99865782Y-98948000D01*
X99663845Y-98985749D01*
X99663842Y-98985749D01*
X99663842Y-98985750D01*
X99472279Y-99059961D01*
X99297616Y-99168109D01*
X99145800Y-99306506D01*
X99021998Y-99470447D01*
X99021993Y-99470455D01*
X98930430Y-99654337D01*
X98930424Y-99654352D01*
X98874206Y-99851939D01*
X98874205Y-99851941D01*
X98857512Y-100032098D01*
X98831726Y-100097035D01*
X98774925Y-100137723D01*
X98759824Y-100141947D01*
X98707812Y-100153003D01*
X98702756Y-100154646D01*
X98632915Y-100156636D01*
X98573084Y-100120551D01*
X98542261Y-100057848D01*
X98540976Y-100048166D01*
X98522794Y-99851941D01*
X98466574Y-99654348D01*
X98445516Y-99612058D01*
X98375006Y-99470455D01*
X98375001Y-99470447D01*
X98251199Y-99306506D01*
X98099383Y-99168109D01*
X98099382Y-99168108D01*
X97924718Y-99059960D01*
X97813528Y-99016885D01*
X97758128Y-98974313D01*
X97734537Y-98908546D01*
X97750248Y-98840466D01*
X97750811Y-98839476D01*
X97760927Y-98821956D01*
X97819942Y-98640328D01*
X97839904Y-98450400D01*
X97819942Y-98260472D01*
X97760927Y-98078844D01*
X97665440Y-97913456D01*
X97537653Y-97771534D01*
X97383152Y-97659282D01*
X97208688Y-97581606D01*
X97208686Y-97581605D01*
X97021887Y-97541900D01*
X96830913Y-97541900D01*
X96644114Y-97581605D01*
X96469646Y-97659283D01*
X96315145Y-97771535D01*
X96187359Y-97913457D01*
X96091873Y-98078843D01*
X96091870Y-98078850D01*
X96033827Y-98257489D01*
X96032858Y-98260472D01*
X96012896Y-98450400D01*
X96032858Y-98640328D01*
X96032859Y-98640331D01*
X96091870Y-98821949D01*
X96091873Y-98821956D01*
X96187360Y-98987344D01*
X96315147Y-99129266D01*
X96426675Y-99210296D01*
X96469651Y-99241520D01*
X96475278Y-99244769D01*
X96474062Y-99246874D01*
X96518925Y-99284984D01*
X96539266Y-99351827D01*
X96520240Y-99419057D01*
X96514227Y-99427768D01*
X96482001Y-99470442D01*
X96481993Y-99470455D01*
X96390430Y-99654337D01*
X96390424Y-99654352D01*
X96334206Y-99851939D01*
X96334205Y-99851941D01*
X96315251Y-100056499D01*
X96315251Y-100056503D01*
X96318831Y-100095146D01*
X96305415Y-100163715D01*
X96257057Y-100214146D01*
X96243473Y-100220172D01*
X96243647Y-100220563D01*
X96168925Y-100253830D01*
X96099674Y-100263114D01*
X96036398Y-100233484D01*
X95999186Y-100174349D01*
X95995020Y-100129112D01*
X96001749Y-100056500D01*
X95982794Y-99851941D01*
X95926574Y-99654348D01*
X95905516Y-99612058D01*
X95835006Y-99470455D01*
X95835001Y-99470447D01*
X95711199Y-99306506D01*
X95559383Y-99168109D01*
X95559382Y-99168108D01*
X95384718Y-99059960D01*
X95193155Y-98985749D01*
X94991218Y-98948000D01*
X94785782Y-98948000D01*
X94583845Y-98985749D01*
X94583842Y-98985749D01*
X94583842Y-98985750D01*
X94392279Y-99059961D01*
X94217616Y-99168109D01*
X94065800Y-99306506D01*
X93941998Y-99470447D01*
X93941993Y-99470455D01*
X93850430Y-99654337D01*
X93850424Y-99654352D01*
X93794206Y-99851939D01*
X93794205Y-99851941D01*
X93775251Y-100056499D01*
X93775251Y-100056500D01*
X93461749Y-100056500D01*
X93442794Y-99851941D01*
X93386574Y-99654348D01*
X93365516Y-99612058D01*
X93295006Y-99470455D01*
X93295001Y-99470447D01*
X93195419Y-99338579D01*
X93170727Y-99273217D01*
X93185292Y-99204883D01*
X93234490Y-99155270D01*
X93294373Y-99139852D01*
X93459531Y-99139852D01*
X93646332Y-99100146D01*
X93820796Y-99022470D01*
X93975297Y-98910218D01*
X94103084Y-98768296D01*
X94198571Y-98602908D01*
X94257586Y-98421280D01*
X94268009Y-98322101D01*
X94294593Y-98257489D01*
X94351891Y-98217504D01*
X94421710Y-98214844D01*
X94441761Y-98221784D01*
X94510512Y-98252394D01*
X94697313Y-98292100D01*
X94888287Y-98292100D01*
X95075088Y-98252394D01*
X95249552Y-98174718D01*
X95404053Y-98062466D01*
X95531840Y-97920544D01*
X95627327Y-97755156D01*
X95686342Y-97573528D01*
X95706304Y-97383600D01*
X95686342Y-97193672D01*
X95627327Y-97012044D01*
X95531840Y-96846656D01*
X95404053Y-96704734D01*
X95249552Y-96592482D01*
X95075088Y-96514806D01*
X95075086Y-96514805D01*
X94888287Y-96475100D01*
X94697313Y-96475100D01*
X94510513Y-96514805D01*
X94510510Y-96514806D01*
X94361607Y-96581101D01*
X94292357Y-96590385D01*
X94238288Y-96568139D01*
X94131956Y-96490884D01*
X94125964Y-96488216D01*
X93957488Y-96413206D01*
X93957486Y-96413205D01*
X93770687Y-96373500D01*
X93678611Y-96373500D01*
X93611572Y-96353815D01*
X93590930Y-96337181D01*
X88439973Y-91186224D01*
X88406488Y-91124901D01*
X88411472Y-91055209D01*
X88453344Y-90999276D01*
X88477209Y-90985268D01*
X88615224Y-90923820D01*
X88684471Y-90914537D01*
X88716084Y-90923819D01*
X88890097Y-91001294D01*
X89076898Y-91041000D01*
X89267872Y-91041000D01*
X89454673Y-91001294D01*
X89621703Y-90926927D01*
X89690951Y-90917644D01*
X89722569Y-90926927D01*
X89889600Y-91001294D01*
X90076401Y-91041000D01*
X90267375Y-91041000D01*
X90454176Y-91001294D01*
X90621206Y-90926927D01*
X90690454Y-90917644D01*
X90722072Y-90926927D01*
X90889103Y-91001294D01*
X91075904Y-91041000D01*
X91266878Y-91041000D01*
X91453679Y-91001294D01*
X91620709Y-90926927D01*
X91689957Y-90917644D01*
X91721575Y-90926927D01*
X91888606Y-91001294D01*
X92075407Y-91041000D01*
X92266381Y-91041000D01*
X92453182Y-91001294D01*
X92620212Y-90926927D01*
X92689460Y-90917644D01*
X92721078Y-90926927D01*
X92888109Y-91001294D01*
X93074910Y-91041000D01*
X93265884Y-91041000D01*
X93452685Y-91001294D01*
X93619715Y-90926927D01*
X93688963Y-90917644D01*
X93720581Y-90926927D01*
X93887612Y-91001294D01*
X94074413Y-91041000D01*
X94265387Y-91041000D01*
X94452188Y-91001294D01*
X94626652Y-90923618D01*
X94678841Y-90885700D01*
X94744646Y-90862220D01*
X94812700Y-90878045D01*
X94861395Y-90928150D01*
X94875271Y-90996628D01*
X94859113Y-91048017D01*
X94798149Y-91153609D01*
X94798144Y-91153621D01*
X94739133Y-91335239D01*
X94739132Y-91335243D01*
X94719170Y-91525171D01*
X94739132Y-91715099D01*
X94739133Y-91715102D01*
X94798144Y-91896720D01*
X94798147Y-91896727D01*
X94893634Y-92062115D01*
X95021421Y-92204037D01*
X95175922Y-92316289D01*
X95350386Y-92393965D01*
X95537187Y-92433671D01*
X95728161Y-92433671D01*
X95914962Y-92393965D01*
X96089426Y-92316289D01*
X96243927Y-92204037D01*
X96371714Y-92062115D01*
X96467201Y-91896727D01*
X96526216Y-91715099D01*
X96546178Y-91525171D01*
X96526216Y-91335243D01*
X96467201Y-91153615D01*
X96371714Y-90988227D01*
X96243927Y-90846305D01*
X96089426Y-90734053D01*
X95914962Y-90656377D01*
X95914960Y-90656376D01*
X95728161Y-90616671D01*
X95537187Y-90616671D01*
X95350388Y-90656376D01*
X95175920Y-90734054D01*
X95123732Y-90771971D01*
X95057925Y-90795450D01*
X94989871Y-90779624D01*
X94941177Y-90729518D01*
X94927302Y-90661040D01*
X94943458Y-90609656D01*
X95004427Y-90504056D01*
X95063442Y-90322428D01*
X95083404Y-90132500D01*
X95063442Y-89942572D01*
X95004427Y-89760944D01*
X94908940Y-89595556D01*
X94781153Y-89453634D01*
X94678177Y-89378817D01*
X94635513Y-89323488D01*
X94629534Y-89253874D01*
X94662140Y-89192079D01*
X94722979Y-89157722D01*
X94751064Y-89154500D01*
X102542480Y-89154500D01*
X102609519Y-89174185D01*
G37*
%TD.AperFunction*%
%TD*%
M02*
