%TF.GenerationSoftware,KiCad,Pcbnew,7.0.9*%
%TF.CreationDate,2024-08-09T11:55:52-06:00*%
%TF.ProjectId,SWAG_BAR_LED_ARM,53574147-5f42-4415-925f-4c45445f4152,rev?*%
%TF.SameCoordinates,Original*%
%TF.FileFunction,Legend,Top*%
%TF.FilePolarity,Positive*%
%FSLAX46Y46*%
G04 Gerber Fmt 4.6, Leading zero omitted, Abs format (unit mm)*
G04 Created by KiCad (PCBNEW 7.0.9) date 2024-08-09 11:55:52*
%MOMM*%
%LPD*%
G01*
G04 APERTURE LIST*
%ADD10C,0.150000*%
%ADD11C,0.120000*%
%ADD12C,0.152400*%
G04 APERTURE END LIST*
D10*
X78570152Y-93825219D02*
X77998724Y-93825219D01*
X78284438Y-93825219D02*
X78284438Y-92825219D01*
X78284438Y-92825219D02*
X78189200Y-92968076D01*
X78189200Y-92968076D02*
X78093962Y-93063314D01*
X78093962Y-93063314D02*
X77998724Y-93110933D01*
X78998724Y-93825219D02*
X78998724Y-92825219D01*
X79093962Y-93444266D02*
X79379676Y-93825219D01*
X79379676Y-93158552D02*
X78998724Y-93539504D01*
X97128333Y-95101580D02*
X97080714Y-95149200D01*
X97080714Y-95149200D02*
X96937857Y-95196819D01*
X96937857Y-95196819D02*
X96842619Y-95196819D01*
X96842619Y-95196819D02*
X96699762Y-95149200D01*
X96699762Y-95149200D02*
X96604524Y-95053961D01*
X96604524Y-95053961D02*
X96556905Y-94958723D01*
X96556905Y-94958723D02*
X96509286Y-94768247D01*
X96509286Y-94768247D02*
X96509286Y-94625390D01*
X96509286Y-94625390D02*
X96556905Y-94434914D01*
X96556905Y-94434914D02*
X96604524Y-94339676D01*
X96604524Y-94339676D02*
X96699762Y-94244438D01*
X96699762Y-94244438D02*
X96842619Y-94196819D01*
X96842619Y-94196819D02*
X96937857Y-94196819D01*
X96937857Y-94196819D02*
X97080714Y-94244438D01*
X97080714Y-94244438D02*
X97128333Y-94292057D01*
X98080714Y-95196819D02*
X97509286Y-95196819D01*
X97795000Y-95196819D02*
X97795000Y-94196819D01*
X97795000Y-94196819D02*
X97699762Y-94339676D01*
X97699762Y-94339676D02*
X97604524Y-94434914D01*
X97604524Y-94434914D02*
X97509286Y-94482533D01*
X100983819Y-94059333D02*
X101698104Y-94059333D01*
X101698104Y-94059333D02*
X101840961Y-94106952D01*
X101840961Y-94106952D02*
X101936200Y-94202190D01*
X101936200Y-94202190D02*
X101983819Y-94345047D01*
X101983819Y-94345047D02*
X101983819Y-94440285D01*
X100983819Y-93678380D02*
X100983819Y-93059333D01*
X100983819Y-93059333D02*
X101364771Y-93392666D01*
X101364771Y-93392666D02*
X101364771Y-93249809D01*
X101364771Y-93249809D02*
X101412390Y-93154571D01*
X101412390Y-93154571D02*
X101460009Y-93106952D01*
X101460009Y-93106952D02*
X101555247Y-93059333D01*
X101555247Y-93059333D02*
X101793342Y-93059333D01*
X101793342Y-93059333D02*
X101888580Y-93106952D01*
X101888580Y-93106952D02*
X101936200Y-93154571D01*
X101936200Y-93154571D02*
X101983819Y-93249809D01*
X101983819Y-93249809D02*
X101983819Y-93535523D01*
X101983819Y-93535523D02*
X101936200Y-93630761D01*
X101936200Y-93630761D02*
X101888580Y-93678380D01*
X84200904Y-102907180D02*
X84200904Y-102097657D01*
X84200904Y-102097657D02*
X84153285Y-102002419D01*
X84153285Y-102002419D02*
X84105666Y-101954800D01*
X84105666Y-101954800D02*
X84010428Y-101907180D01*
X84010428Y-101907180D02*
X83819952Y-101907180D01*
X83819952Y-101907180D02*
X83724714Y-101954800D01*
X83724714Y-101954800D02*
X83677095Y-102002419D01*
X83677095Y-102002419D02*
X83629476Y-102097657D01*
X83629476Y-102097657D02*
X83629476Y-102907180D01*
X83105666Y-101907180D02*
X82915190Y-101907180D01*
X82915190Y-101907180D02*
X82819952Y-101954800D01*
X82819952Y-101954800D02*
X82772333Y-102002419D01*
X82772333Y-102002419D02*
X82677095Y-102145276D01*
X82677095Y-102145276D02*
X82629476Y-102335752D01*
X82629476Y-102335752D02*
X82629476Y-102716704D01*
X82629476Y-102716704D02*
X82677095Y-102811942D01*
X82677095Y-102811942D02*
X82724714Y-102859561D01*
X82724714Y-102859561D02*
X82819952Y-102907180D01*
X82819952Y-102907180D02*
X83010428Y-102907180D01*
X83010428Y-102907180D02*
X83105666Y-102859561D01*
X83105666Y-102859561D02*
X83153285Y-102811942D01*
X83153285Y-102811942D02*
X83200904Y-102716704D01*
X83200904Y-102716704D02*
X83200904Y-102478609D01*
X83200904Y-102478609D02*
X83153285Y-102383371D01*
X83153285Y-102383371D02*
X83105666Y-102335752D01*
X83105666Y-102335752D02*
X83010428Y-102288133D01*
X83010428Y-102288133D02*
X82819952Y-102288133D01*
X82819952Y-102288133D02*
X82724714Y-102335752D01*
X82724714Y-102335752D02*
X82677095Y-102383371D01*
X82677095Y-102383371D02*
X82629476Y-102478609D01*
X84734400Y-103965419D02*
X84734400Y-104203514D01*
X84496305Y-104108276D02*
X84734400Y-104203514D01*
X84734400Y-104203514D02*
X84972495Y-104108276D01*
X84591543Y-104393990D02*
X84734400Y-104203514D01*
X84734400Y-104203514D02*
X84877257Y-104393990D01*
X84734399Y-105055780D02*
X84734399Y-104817685D01*
X84972494Y-104912923D02*
X84734399Y-104817685D01*
X84734399Y-104817685D02*
X84496304Y-104912923D01*
X84877256Y-104627209D02*
X84734399Y-104817685D01*
X84734399Y-104817685D02*
X84591542Y-104627209D01*
X99440904Y-102907180D02*
X99440904Y-102097657D01*
X99440904Y-102097657D02*
X99393285Y-102002419D01*
X99393285Y-102002419D02*
X99345666Y-101954800D01*
X99345666Y-101954800D02*
X99250428Y-101907180D01*
X99250428Y-101907180D02*
X99059952Y-101907180D01*
X99059952Y-101907180D02*
X98964714Y-101954800D01*
X98964714Y-101954800D02*
X98917095Y-102002419D01*
X98917095Y-102002419D02*
X98869476Y-102097657D01*
X98869476Y-102097657D02*
X98869476Y-102907180D01*
X97964714Y-102573847D02*
X97964714Y-101907180D01*
X98202809Y-102954800D02*
X98440904Y-102240514D01*
X98440904Y-102240514D02*
X97821857Y-102240514D01*
X99974399Y-105055780D02*
X99974399Y-104817685D01*
X100212494Y-104912923D02*
X99974399Y-104817685D01*
X99974399Y-104817685D02*
X99736304Y-104912923D01*
X100117256Y-104627209D02*
X99974399Y-104817685D01*
X99974399Y-104817685D02*
X99831542Y-104627209D01*
X99974400Y-103965419D02*
X99974400Y-104203514D01*
X99736305Y-104108276D02*
X99974400Y-104203514D01*
X99974400Y-104203514D02*
X100212495Y-104108276D01*
X99831543Y-104393990D02*
X99974400Y-104203514D01*
X99974400Y-104203514D02*
X100117257Y-104393990D01*
X88813819Y-105449666D02*
X88337628Y-105782999D01*
X88813819Y-106021094D02*
X87813819Y-106021094D01*
X87813819Y-106021094D02*
X87813819Y-105640142D01*
X87813819Y-105640142D02*
X87861438Y-105544904D01*
X87861438Y-105544904D02*
X87909057Y-105497285D01*
X87909057Y-105497285D02*
X88004295Y-105449666D01*
X88004295Y-105449666D02*
X88147152Y-105449666D01*
X88147152Y-105449666D02*
X88242390Y-105497285D01*
X88242390Y-105497285D02*
X88290009Y-105544904D01*
X88290009Y-105544904D02*
X88337628Y-105640142D01*
X88337628Y-105640142D02*
X88337628Y-106021094D01*
X87909057Y-105068713D02*
X87861438Y-105021094D01*
X87861438Y-105021094D02*
X87813819Y-104925856D01*
X87813819Y-104925856D02*
X87813819Y-104687761D01*
X87813819Y-104687761D02*
X87861438Y-104592523D01*
X87861438Y-104592523D02*
X87909057Y-104544904D01*
X87909057Y-104544904D02*
X88004295Y-104497285D01*
X88004295Y-104497285D02*
X88099533Y-104497285D01*
X88099533Y-104497285D02*
X88242390Y-104544904D01*
X88242390Y-104544904D02*
X88813819Y-105116332D01*
X88813819Y-105116332D02*
X88813819Y-104497285D01*
X96099333Y-91799580D02*
X96051714Y-91847200D01*
X96051714Y-91847200D02*
X95908857Y-91894819D01*
X95908857Y-91894819D02*
X95813619Y-91894819D01*
X95813619Y-91894819D02*
X95670762Y-91847200D01*
X95670762Y-91847200D02*
X95575524Y-91751961D01*
X95575524Y-91751961D02*
X95527905Y-91656723D01*
X95527905Y-91656723D02*
X95480286Y-91466247D01*
X95480286Y-91466247D02*
X95480286Y-91323390D01*
X95480286Y-91323390D02*
X95527905Y-91132914D01*
X95527905Y-91132914D02*
X95575524Y-91037676D01*
X95575524Y-91037676D02*
X95670762Y-90942438D01*
X95670762Y-90942438D02*
X95813619Y-90894819D01*
X95813619Y-90894819D02*
X95908857Y-90894819D01*
X95908857Y-90894819D02*
X96051714Y-90942438D01*
X96051714Y-90942438D02*
X96099333Y-90990057D01*
X96432667Y-90894819D02*
X97051714Y-90894819D01*
X97051714Y-90894819D02*
X96718381Y-91275771D01*
X96718381Y-91275771D02*
X96861238Y-91275771D01*
X96861238Y-91275771D02*
X96956476Y-91323390D01*
X96956476Y-91323390D02*
X97004095Y-91371009D01*
X97004095Y-91371009D02*
X97051714Y-91466247D01*
X97051714Y-91466247D02*
X97051714Y-91704342D01*
X97051714Y-91704342D02*
X97004095Y-91799580D01*
X97004095Y-91799580D02*
X96956476Y-91847200D01*
X96956476Y-91847200D02*
X96861238Y-91894819D01*
X96861238Y-91894819D02*
X96575524Y-91894819D01*
X96575524Y-91894819D02*
X96480286Y-91847200D01*
X96480286Y-91847200D02*
X96432667Y-91799580D01*
X81066819Y-105449666D02*
X80590628Y-105782999D01*
X81066819Y-106021094D02*
X80066819Y-106021094D01*
X80066819Y-106021094D02*
X80066819Y-105640142D01*
X80066819Y-105640142D02*
X80114438Y-105544904D01*
X80114438Y-105544904D02*
X80162057Y-105497285D01*
X80162057Y-105497285D02*
X80257295Y-105449666D01*
X80257295Y-105449666D02*
X80400152Y-105449666D01*
X80400152Y-105449666D02*
X80495390Y-105497285D01*
X80495390Y-105497285D02*
X80543009Y-105544904D01*
X80543009Y-105544904D02*
X80590628Y-105640142D01*
X80590628Y-105640142D02*
X80590628Y-106021094D01*
X80066819Y-105116332D02*
X80066819Y-104449666D01*
X80066819Y-104449666D02*
X81066819Y-104878237D01*
X101513819Y-105925857D02*
X101037628Y-106259190D01*
X101513819Y-106497285D02*
X100513819Y-106497285D01*
X100513819Y-106497285D02*
X100513819Y-106116333D01*
X100513819Y-106116333D02*
X100561438Y-106021095D01*
X100561438Y-106021095D02*
X100609057Y-105973476D01*
X100609057Y-105973476D02*
X100704295Y-105925857D01*
X100704295Y-105925857D02*
X100847152Y-105925857D01*
X100847152Y-105925857D02*
X100942390Y-105973476D01*
X100942390Y-105973476D02*
X100990009Y-106021095D01*
X100990009Y-106021095D02*
X101037628Y-106116333D01*
X101037628Y-106116333D02*
X101037628Y-106497285D01*
X101513819Y-104973476D02*
X101513819Y-105544904D01*
X101513819Y-105259190D02*
X100513819Y-105259190D01*
X100513819Y-105259190D02*
X100656676Y-105354428D01*
X100656676Y-105354428D02*
X100751914Y-105449666D01*
X100751914Y-105449666D02*
X100799533Y-105544904D01*
X100513819Y-104354428D02*
X100513819Y-104259190D01*
X100513819Y-104259190D02*
X100561438Y-104163952D01*
X100561438Y-104163952D02*
X100609057Y-104116333D01*
X100609057Y-104116333D02*
X100704295Y-104068714D01*
X100704295Y-104068714D02*
X100894771Y-104021095D01*
X100894771Y-104021095D02*
X101132866Y-104021095D01*
X101132866Y-104021095D02*
X101323342Y-104068714D01*
X101323342Y-104068714D02*
X101418580Y-104116333D01*
X101418580Y-104116333D02*
X101466200Y-104163952D01*
X101466200Y-104163952D02*
X101513819Y-104259190D01*
X101513819Y-104259190D02*
X101513819Y-104354428D01*
X101513819Y-104354428D02*
X101466200Y-104449666D01*
X101466200Y-104449666D02*
X101418580Y-104497285D01*
X101418580Y-104497285D02*
X101323342Y-104544904D01*
X101323342Y-104544904D02*
X101132866Y-104592523D01*
X101132866Y-104592523D02*
X100894771Y-104592523D01*
X100894771Y-104592523D02*
X100704295Y-104544904D01*
X100704295Y-104544904D02*
X100609057Y-104497285D01*
X100609057Y-104497285D02*
X100561438Y-104449666D01*
X100561438Y-104449666D02*
X100513819Y-104354428D01*
X93877553Y-92598550D02*
X93305133Y-93170970D01*
X93305133Y-93170970D02*
X93271461Y-93271985D01*
X93271461Y-93271985D02*
X93271461Y-93339329D01*
X93271461Y-93339329D02*
X93305133Y-93440344D01*
X93305133Y-93440344D02*
X93439820Y-93575031D01*
X93439820Y-93575031D02*
X93540835Y-93608703D01*
X93540835Y-93608703D02*
X93608179Y-93608703D01*
X93608179Y-93608703D02*
X93709194Y-93575031D01*
X93709194Y-93575031D02*
X94281614Y-93002611D01*
X94955049Y-93676046D02*
X94618331Y-93339329D01*
X94618331Y-93339329D02*
X94247942Y-93642375D01*
X94247942Y-93642375D02*
X94315285Y-93642375D01*
X94315285Y-93642375D02*
X94416301Y-93676046D01*
X94416301Y-93676046D02*
X94584659Y-93844405D01*
X94584659Y-93844405D02*
X94618331Y-93945420D01*
X94618331Y-93945420D02*
X94618331Y-94012764D01*
X94618331Y-94012764D02*
X94584659Y-94113779D01*
X94584659Y-94113779D02*
X94416301Y-94282138D01*
X94416301Y-94282138D02*
X94315285Y-94315810D01*
X94315285Y-94315810D02*
X94247942Y-94315810D01*
X94247942Y-94315810D02*
X94146927Y-94282138D01*
X94146927Y-94282138D02*
X93978568Y-94113779D01*
X93978568Y-94113779D02*
X93944896Y-94012764D01*
X93944896Y-94012764D02*
X93944896Y-93945420D01*
X78101866Y-94914819D02*
X78101866Y-95629104D01*
X78101866Y-95629104D02*
X78054247Y-95771961D01*
X78054247Y-95771961D02*
X77959009Y-95867200D01*
X77959009Y-95867200D02*
X77816152Y-95914819D01*
X77816152Y-95914819D02*
X77720914Y-95914819D01*
X79101866Y-95914819D02*
X78530438Y-95914819D01*
X78816152Y-95914819D02*
X78816152Y-94914819D01*
X78816152Y-94914819D02*
X78720914Y-95057676D01*
X78720914Y-95057676D02*
X78625676Y-95152914D01*
X78625676Y-95152914D02*
X78530438Y-95200533D01*
X96433819Y-105449666D02*
X95957628Y-105782999D01*
X96433819Y-106021094D02*
X95433819Y-106021094D01*
X95433819Y-106021094D02*
X95433819Y-105640142D01*
X95433819Y-105640142D02*
X95481438Y-105544904D01*
X95481438Y-105544904D02*
X95529057Y-105497285D01*
X95529057Y-105497285D02*
X95624295Y-105449666D01*
X95624295Y-105449666D02*
X95767152Y-105449666D01*
X95767152Y-105449666D02*
X95862390Y-105497285D01*
X95862390Y-105497285D02*
X95910009Y-105544904D01*
X95910009Y-105544904D02*
X95957628Y-105640142D01*
X95957628Y-105640142D02*
X95957628Y-106021094D01*
X95862390Y-104878237D02*
X95814771Y-104973475D01*
X95814771Y-104973475D02*
X95767152Y-105021094D01*
X95767152Y-105021094D02*
X95671914Y-105068713D01*
X95671914Y-105068713D02*
X95624295Y-105068713D01*
X95624295Y-105068713D02*
X95529057Y-105021094D01*
X95529057Y-105021094D02*
X95481438Y-104973475D01*
X95481438Y-104973475D02*
X95433819Y-104878237D01*
X95433819Y-104878237D02*
X95433819Y-104687761D01*
X95433819Y-104687761D02*
X95481438Y-104592523D01*
X95481438Y-104592523D02*
X95529057Y-104544904D01*
X95529057Y-104544904D02*
X95624295Y-104497285D01*
X95624295Y-104497285D02*
X95671914Y-104497285D01*
X95671914Y-104497285D02*
X95767152Y-104544904D01*
X95767152Y-104544904D02*
X95814771Y-104592523D01*
X95814771Y-104592523D02*
X95862390Y-104687761D01*
X95862390Y-104687761D02*
X95862390Y-104878237D01*
X95862390Y-104878237D02*
X95910009Y-104973475D01*
X95910009Y-104973475D02*
X95957628Y-105021094D01*
X95957628Y-105021094D02*
X96052866Y-105068713D01*
X96052866Y-105068713D02*
X96243342Y-105068713D01*
X96243342Y-105068713D02*
X96338580Y-105021094D01*
X96338580Y-105021094D02*
X96386200Y-104973475D01*
X96386200Y-104973475D02*
X96433819Y-104878237D01*
X96433819Y-104878237D02*
X96433819Y-104687761D01*
X96433819Y-104687761D02*
X96386200Y-104592523D01*
X96386200Y-104592523D02*
X96338580Y-104544904D01*
X96338580Y-104544904D02*
X96243342Y-104497285D01*
X96243342Y-104497285D02*
X96052866Y-104497285D01*
X96052866Y-104497285D02*
X95957628Y-104544904D01*
X95957628Y-104544904D02*
X95910009Y-104592523D01*
X95910009Y-104592523D02*
X95862390Y-104687761D01*
X91353819Y-105449666D02*
X90877628Y-105782999D01*
X91353819Y-106021094D02*
X90353819Y-106021094D01*
X90353819Y-106021094D02*
X90353819Y-105640142D01*
X90353819Y-105640142D02*
X90401438Y-105544904D01*
X90401438Y-105544904D02*
X90449057Y-105497285D01*
X90449057Y-105497285D02*
X90544295Y-105449666D01*
X90544295Y-105449666D02*
X90687152Y-105449666D01*
X90687152Y-105449666D02*
X90782390Y-105497285D01*
X90782390Y-105497285D02*
X90830009Y-105544904D01*
X90830009Y-105544904D02*
X90877628Y-105640142D01*
X90877628Y-105640142D02*
X90877628Y-106021094D01*
X90687152Y-104592523D02*
X91353819Y-104592523D01*
X90306200Y-104830618D02*
X91020485Y-105068713D01*
X91020485Y-105068713D02*
X91020485Y-104449666D01*
X83733819Y-105925857D02*
X83257628Y-106259190D01*
X83733819Y-106497285D02*
X82733819Y-106497285D01*
X82733819Y-106497285D02*
X82733819Y-106116333D01*
X82733819Y-106116333D02*
X82781438Y-106021095D01*
X82781438Y-106021095D02*
X82829057Y-105973476D01*
X82829057Y-105973476D02*
X82924295Y-105925857D01*
X82924295Y-105925857D02*
X83067152Y-105925857D01*
X83067152Y-105925857D02*
X83162390Y-105973476D01*
X83162390Y-105973476D02*
X83210009Y-106021095D01*
X83210009Y-106021095D02*
X83257628Y-106116333D01*
X83257628Y-106116333D02*
X83257628Y-106497285D01*
X83733819Y-104973476D02*
X83733819Y-105544904D01*
X83733819Y-105259190D02*
X82733819Y-105259190D01*
X82733819Y-105259190D02*
X82876676Y-105354428D01*
X82876676Y-105354428D02*
X82971914Y-105449666D01*
X82971914Y-105449666D02*
X83019533Y-105544904D01*
X83733819Y-104021095D02*
X83733819Y-104592523D01*
X83733819Y-104306809D02*
X82733819Y-104306809D01*
X82733819Y-104306809D02*
X82876676Y-104402047D01*
X82876676Y-104402047D02*
X82971914Y-104497285D01*
X82971914Y-104497285D02*
X83019533Y-104592523D01*
X104053819Y-105449666D02*
X103577628Y-105782999D01*
X104053819Y-106021094D02*
X103053819Y-106021094D01*
X103053819Y-106021094D02*
X103053819Y-105640142D01*
X103053819Y-105640142D02*
X103101438Y-105544904D01*
X103101438Y-105544904D02*
X103149057Y-105497285D01*
X103149057Y-105497285D02*
X103244295Y-105449666D01*
X103244295Y-105449666D02*
X103387152Y-105449666D01*
X103387152Y-105449666D02*
X103482390Y-105497285D01*
X103482390Y-105497285D02*
X103530009Y-105544904D01*
X103530009Y-105544904D02*
X103577628Y-105640142D01*
X103577628Y-105640142D02*
X103577628Y-106021094D01*
X104053819Y-104973475D02*
X104053819Y-104782999D01*
X104053819Y-104782999D02*
X104006200Y-104687761D01*
X104006200Y-104687761D02*
X103958580Y-104640142D01*
X103958580Y-104640142D02*
X103815723Y-104544904D01*
X103815723Y-104544904D02*
X103625247Y-104497285D01*
X103625247Y-104497285D02*
X103244295Y-104497285D01*
X103244295Y-104497285D02*
X103149057Y-104544904D01*
X103149057Y-104544904D02*
X103101438Y-104592523D01*
X103101438Y-104592523D02*
X103053819Y-104687761D01*
X103053819Y-104687761D02*
X103053819Y-104878237D01*
X103053819Y-104878237D02*
X103101438Y-104973475D01*
X103101438Y-104973475D02*
X103149057Y-105021094D01*
X103149057Y-105021094D02*
X103244295Y-105068713D01*
X103244295Y-105068713D02*
X103482390Y-105068713D01*
X103482390Y-105068713D02*
X103577628Y-105021094D01*
X103577628Y-105021094D02*
X103625247Y-104973475D01*
X103625247Y-104973475D02*
X103672866Y-104878237D01*
X103672866Y-104878237D02*
X103672866Y-104687761D01*
X103672866Y-104687761D02*
X103625247Y-104592523D01*
X103625247Y-104592523D02*
X103577628Y-104544904D01*
X103577628Y-104544904D02*
X103482390Y-104497285D01*
X84576474Y-92647657D02*
X84441787Y-92715000D01*
X84441787Y-92715000D02*
X84273429Y-92883359D01*
X84273429Y-92883359D02*
X84239757Y-92984374D01*
X84239757Y-92984374D02*
X84239757Y-93051718D01*
X84239757Y-93051718D02*
X84273429Y-93152733D01*
X84273429Y-93152733D02*
X84340772Y-93220077D01*
X84340772Y-93220077D02*
X84441787Y-93253748D01*
X84441787Y-93253748D02*
X84509131Y-93253748D01*
X84509131Y-93253748D02*
X84610146Y-93220077D01*
X84610146Y-93220077D02*
X84778505Y-93119061D01*
X84778505Y-93119061D02*
X84879520Y-93085390D01*
X84879520Y-93085390D02*
X84946864Y-93085390D01*
X84946864Y-93085390D02*
X85047879Y-93119061D01*
X85047879Y-93119061D02*
X85115222Y-93186405D01*
X85115222Y-93186405D02*
X85148894Y-93287420D01*
X85148894Y-93287420D02*
X85148894Y-93354764D01*
X85148894Y-93354764D02*
X85115222Y-93455779D01*
X85115222Y-93455779D02*
X84946864Y-93624138D01*
X84946864Y-93624138D02*
X84812177Y-93691481D01*
X84610146Y-93960855D02*
X83734680Y-93422107D01*
X83734680Y-93422107D02*
X84105070Y-94061871D01*
X84105070Y-94061871D02*
X83465306Y-93691481D01*
X83465306Y-93691481D02*
X84004054Y-94566947D01*
X82657185Y-94499603D02*
X83061246Y-94095542D01*
X82859215Y-94297573D02*
X83566322Y-95004679D01*
X83566322Y-95004679D02*
X83532650Y-94836321D01*
X83532650Y-94836321D02*
X83532650Y-94701634D01*
X83532650Y-94701634D02*
X83566322Y-94600618D01*
X104393904Y-102780180D02*
X104393904Y-101970657D01*
X104393904Y-101970657D02*
X104346285Y-101875419D01*
X104346285Y-101875419D02*
X104298666Y-101827800D01*
X104298666Y-101827800D02*
X104203428Y-101780180D01*
X104203428Y-101780180D02*
X104012952Y-101780180D01*
X104012952Y-101780180D02*
X103917714Y-101827800D01*
X103917714Y-101827800D02*
X103870095Y-101875419D01*
X103870095Y-101875419D02*
X103822476Y-101970657D01*
X103822476Y-101970657D02*
X103822476Y-102780180D01*
X103393904Y-102684942D02*
X103346285Y-102732561D01*
X103346285Y-102732561D02*
X103251047Y-102780180D01*
X103251047Y-102780180D02*
X103012952Y-102780180D01*
X103012952Y-102780180D02*
X102917714Y-102732561D01*
X102917714Y-102732561D02*
X102870095Y-102684942D01*
X102870095Y-102684942D02*
X102822476Y-102589704D01*
X102822476Y-102589704D02*
X102822476Y-102494466D01*
X102822476Y-102494466D02*
X102870095Y-102351609D01*
X102870095Y-102351609D02*
X103441523Y-101780180D01*
X103441523Y-101780180D02*
X102822476Y-101780180D01*
X104927400Y-103838419D02*
X104927400Y-104076514D01*
X104689305Y-103981276D02*
X104927400Y-104076514D01*
X104927400Y-104076514D02*
X105165495Y-103981276D01*
X104784543Y-104266990D02*
X104927400Y-104076514D01*
X104927400Y-104076514D02*
X105070257Y-104266990D01*
X104927399Y-104928780D02*
X104927399Y-104690685D01*
X105165494Y-104785923D02*
X104927399Y-104690685D01*
X104927399Y-104690685D02*
X104689304Y-104785923D01*
X105070256Y-104500209D02*
X104927399Y-104690685D01*
X104927399Y-104690685D02*
X104784542Y-104500209D01*
X89757094Y-102907180D02*
X89757094Y-102097657D01*
X89757094Y-102097657D02*
X89709475Y-102002419D01*
X89709475Y-102002419D02*
X89661856Y-101954800D01*
X89661856Y-101954800D02*
X89566618Y-101907180D01*
X89566618Y-101907180D02*
X89376142Y-101907180D01*
X89376142Y-101907180D02*
X89280904Y-101954800D01*
X89280904Y-101954800D02*
X89233285Y-102002419D01*
X89233285Y-102002419D02*
X89185666Y-102097657D01*
X89185666Y-102097657D02*
X89185666Y-102907180D01*
X88185666Y-101907180D02*
X88757094Y-101907180D01*
X88471380Y-101907180D02*
X88471380Y-102907180D01*
X88471380Y-102907180D02*
X88566618Y-102764323D01*
X88566618Y-102764323D02*
X88661856Y-102669085D01*
X88661856Y-102669085D02*
X88757094Y-102621466D01*
X87566618Y-102907180D02*
X87471380Y-102907180D01*
X87471380Y-102907180D02*
X87376142Y-102859561D01*
X87376142Y-102859561D02*
X87328523Y-102811942D01*
X87328523Y-102811942D02*
X87280904Y-102716704D01*
X87280904Y-102716704D02*
X87233285Y-102526228D01*
X87233285Y-102526228D02*
X87233285Y-102288133D01*
X87233285Y-102288133D02*
X87280904Y-102097657D01*
X87280904Y-102097657D02*
X87328523Y-102002419D01*
X87328523Y-102002419D02*
X87376142Y-101954800D01*
X87376142Y-101954800D02*
X87471380Y-101907180D01*
X87471380Y-101907180D02*
X87566618Y-101907180D01*
X87566618Y-101907180D02*
X87661856Y-101954800D01*
X87661856Y-101954800D02*
X87709475Y-102002419D01*
X87709475Y-102002419D02*
X87757094Y-102097657D01*
X87757094Y-102097657D02*
X87804713Y-102288133D01*
X87804713Y-102288133D02*
X87804713Y-102526228D01*
X87804713Y-102526228D02*
X87757094Y-102716704D01*
X87757094Y-102716704D02*
X87709475Y-102811942D01*
X87709475Y-102811942D02*
X87661856Y-102859561D01*
X87661856Y-102859561D02*
X87566618Y-102907180D01*
X89814399Y-105055780D02*
X89814399Y-104817685D01*
X90052494Y-104912923D02*
X89814399Y-104817685D01*
X89814399Y-104817685D02*
X89576304Y-104912923D01*
X89957256Y-104627209D02*
X89814399Y-104817685D01*
X89814399Y-104817685D02*
X89671542Y-104627209D01*
X89814400Y-103965419D02*
X89814400Y-104203514D01*
X89576305Y-104108276D02*
X89814400Y-104203514D01*
X89814400Y-104203514D02*
X90052495Y-104108276D01*
X89671543Y-104393990D02*
X89814400Y-104203514D01*
X89814400Y-104203514D02*
X89957257Y-104393990D01*
X99604533Y-97387580D02*
X99556914Y-97435200D01*
X99556914Y-97435200D02*
X99414057Y-97482819D01*
X99414057Y-97482819D02*
X99318819Y-97482819D01*
X99318819Y-97482819D02*
X99175962Y-97435200D01*
X99175962Y-97435200D02*
X99080724Y-97339961D01*
X99080724Y-97339961D02*
X99033105Y-97244723D01*
X99033105Y-97244723D02*
X98985486Y-97054247D01*
X98985486Y-97054247D02*
X98985486Y-96911390D01*
X98985486Y-96911390D02*
X99033105Y-96720914D01*
X99033105Y-96720914D02*
X99080724Y-96625676D01*
X99080724Y-96625676D02*
X99175962Y-96530438D01*
X99175962Y-96530438D02*
X99318819Y-96482819D01*
X99318819Y-96482819D02*
X99414057Y-96482819D01*
X99414057Y-96482819D02*
X99556914Y-96530438D01*
X99556914Y-96530438D02*
X99604533Y-96578057D01*
X99985486Y-96578057D02*
X100033105Y-96530438D01*
X100033105Y-96530438D02*
X100128343Y-96482819D01*
X100128343Y-96482819D02*
X100366438Y-96482819D01*
X100366438Y-96482819D02*
X100461676Y-96530438D01*
X100461676Y-96530438D02*
X100509295Y-96578057D01*
X100509295Y-96578057D02*
X100556914Y-96673295D01*
X100556914Y-96673295D02*
X100556914Y-96768533D01*
X100556914Y-96768533D02*
X100509295Y-96911390D01*
X100509295Y-96911390D02*
X99937867Y-97482819D01*
X99937867Y-97482819D02*
X100556914Y-97482819D01*
X93893819Y-105449666D02*
X93417628Y-105782999D01*
X93893819Y-106021094D02*
X92893819Y-106021094D01*
X92893819Y-106021094D02*
X92893819Y-105640142D01*
X92893819Y-105640142D02*
X92941438Y-105544904D01*
X92941438Y-105544904D02*
X92989057Y-105497285D01*
X92989057Y-105497285D02*
X93084295Y-105449666D01*
X93084295Y-105449666D02*
X93227152Y-105449666D01*
X93227152Y-105449666D02*
X93322390Y-105497285D01*
X93322390Y-105497285D02*
X93370009Y-105544904D01*
X93370009Y-105544904D02*
X93417628Y-105640142D01*
X93417628Y-105640142D02*
X93417628Y-106021094D01*
X92893819Y-104544904D02*
X92893819Y-105021094D01*
X92893819Y-105021094D02*
X93370009Y-105068713D01*
X93370009Y-105068713D02*
X93322390Y-105021094D01*
X93322390Y-105021094D02*
X93274771Y-104925856D01*
X93274771Y-104925856D02*
X93274771Y-104687761D01*
X93274771Y-104687761D02*
X93322390Y-104592523D01*
X93322390Y-104592523D02*
X93370009Y-104544904D01*
X93370009Y-104544904D02*
X93465247Y-104497285D01*
X93465247Y-104497285D02*
X93703342Y-104497285D01*
X93703342Y-104497285D02*
X93798580Y-104544904D01*
X93798580Y-104544904D02*
X93846200Y-104592523D01*
X93846200Y-104592523D02*
X93893819Y-104687761D01*
X93893819Y-104687761D02*
X93893819Y-104925856D01*
X93893819Y-104925856D02*
X93846200Y-105021094D01*
X93846200Y-105021094D02*
X93798580Y-105068713D01*
X86273819Y-105449666D02*
X85797628Y-105782999D01*
X86273819Y-106021094D02*
X85273819Y-106021094D01*
X85273819Y-106021094D02*
X85273819Y-105640142D01*
X85273819Y-105640142D02*
X85321438Y-105544904D01*
X85321438Y-105544904D02*
X85369057Y-105497285D01*
X85369057Y-105497285D02*
X85464295Y-105449666D01*
X85464295Y-105449666D02*
X85607152Y-105449666D01*
X85607152Y-105449666D02*
X85702390Y-105497285D01*
X85702390Y-105497285D02*
X85750009Y-105544904D01*
X85750009Y-105544904D02*
X85797628Y-105640142D01*
X85797628Y-105640142D02*
X85797628Y-106021094D01*
X85273819Y-104592523D02*
X85273819Y-104782999D01*
X85273819Y-104782999D02*
X85321438Y-104878237D01*
X85321438Y-104878237D02*
X85369057Y-104925856D01*
X85369057Y-104925856D02*
X85511914Y-105021094D01*
X85511914Y-105021094D02*
X85702390Y-105068713D01*
X85702390Y-105068713D02*
X86083342Y-105068713D01*
X86083342Y-105068713D02*
X86178580Y-105021094D01*
X86178580Y-105021094D02*
X86226200Y-104973475D01*
X86226200Y-104973475D02*
X86273819Y-104878237D01*
X86273819Y-104878237D02*
X86273819Y-104687761D01*
X86273819Y-104687761D02*
X86226200Y-104592523D01*
X86226200Y-104592523D02*
X86178580Y-104544904D01*
X86178580Y-104544904D02*
X86083342Y-104497285D01*
X86083342Y-104497285D02*
X85845247Y-104497285D01*
X85845247Y-104497285D02*
X85750009Y-104544904D01*
X85750009Y-104544904D02*
X85702390Y-104592523D01*
X85702390Y-104592523D02*
X85654771Y-104687761D01*
X85654771Y-104687761D02*
X85654771Y-104878237D01*
X85654771Y-104878237D02*
X85702390Y-104973475D01*
X85702390Y-104973475D02*
X85750009Y-105021094D01*
X85750009Y-105021094D02*
X85845247Y-105068713D01*
X101726819Y-92455904D02*
X102536342Y-92455904D01*
X102536342Y-92455904D02*
X102631580Y-92408285D01*
X102631580Y-92408285D02*
X102679200Y-92360666D01*
X102679200Y-92360666D02*
X102726819Y-92265428D01*
X102726819Y-92265428D02*
X102726819Y-92074952D01*
X102726819Y-92074952D02*
X102679200Y-91979714D01*
X102679200Y-91979714D02*
X102631580Y-91932095D01*
X102631580Y-91932095D02*
X102536342Y-91884476D01*
X102536342Y-91884476D02*
X101726819Y-91884476D01*
X102726819Y-90884476D02*
X102726819Y-91455904D01*
X102726819Y-91170190D02*
X101726819Y-91170190D01*
X101726819Y-91170190D02*
X101869676Y-91265428D01*
X101869676Y-91265428D02*
X101964914Y-91360666D01*
X101964914Y-91360666D02*
X102012533Y-91455904D01*
X98973819Y-105449666D02*
X98497628Y-105782999D01*
X98973819Y-106021094D02*
X97973819Y-106021094D01*
X97973819Y-106021094D02*
X97973819Y-105640142D01*
X97973819Y-105640142D02*
X98021438Y-105544904D01*
X98021438Y-105544904D02*
X98069057Y-105497285D01*
X98069057Y-105497285D02*
X98164295Y-105449666D01*
X98164295Y-105449666D02*
X98307152Y-105449666D01*
X98307152Y-105449666D02*
X98402390Y-105497285D01*
X98402390Y-105497285D02*
X98450009Y-105544904D01*
X98450009Y-105544904D02*
X98497628Y-105640142D01*
X98497628Y-105640142D02*
X98497628Y-106021094D01*
X97973819Y-105116332D02*
X97973819Y-104497285D01*
X97973819Y-104497285D02*
X98354771Y-104830618D01*
X98354771Y-104830618D02*
X98354771Y-104687761D01*
X98354771Y-104687761D02*
X98402390Y-104592523D01*
X98402390Y-104592523D02*
X98450009Y-104544904D01*
X98450009Y-104544904D02*
X98545247Y-104497285D01*
X98545247Y-104497285D02*
X98783342Y-104497285D01*
X98783342Y-104497285D02*
X98878580Y-104544904D01*
X98878580Y-104544904D02*
X98926200Y-104592523D01*
X98926200Y-104592523D02*
X98973819Y-104687761D01*
X98973819Y-104687761D02*
X98973819Y-104973475D01*
X98973819Y-104973475D02*
X98926200Y-105068713D01*
X98926200Y-105068713D02*
X98878580Y-105116332D01*
X94360904Y-103034180D02*
X94360904Y-102224657D01*
X94360904Y-102224657D02*
X94313285Y-102129419D01*
X94313285Y-102129419D02*
X94265666Y-102081800D01*
X94265666Y-102081800D02*
X94170428Y-102034180D01*
X94170428Y-102034180D02*
X93979952Y-102034180D01*
X93979952Y-102034180D02*
X93884714Y-102081800D01*
X93884714Y-102081800D02*
X93837095Y-102129419D01*
X93837095Y-102129419D02*
X93789476Y-102224657D01*
X93789476Y-102224657D02*
X93789476Y-103034180D01*
X93170428Y-102605609D02*
X93265666Y-102653228D01*
X93265666Y-102653228D02*
X93313285Y-102700847D01*
X93313285Y-102700847D02*
X93360904Y-102796085D01*
X93360904Y-102796085D02*
X93360904Y-102843704D01*
X93360904Y-102843704D02*
X93313285Y-102938942D01*
X93313285Y-102938942D02*
X93265666Y-102986561D01*
X93265666Y-102986561D02*
X93170428Y-103034180D01*
X93170428Y-103034180D02*
X92979952Y-103034180D01*
X92979952Y-103034180D02*
X92884714Y-102986561D01*
X92884714Y-102986561D02*
X92837095Y-102938942D01*
X92837095Y-102938942D02*
X92789476Y-102843704D01*
X92789476Y-102843704D02*
X92789476Y-102796085D01*
X92789476Y-102796085D02*
X92837095Y-102700847D01*
X92837095Y-102700847D02*
X92884714Y-102653228D01*
X92884714Y-102653228D02*
X92979952Y-102605609D01*
X92979952Y-102605609D02*
X93170428Y-102605609D01*
X93170428Y-102605609D02*
X93265666Y-102557990D01*
X93265666Y-102557990D02*
X93313285Y-102510371D01*
X93313285Y-102510371D02*
X93360904Y-102415133D01*
X93360904Y-102415133D02*
X93360904Y-102224657D01*
X93360904Y-102224657D02*
X93313285Y-102129419D01*
X93313285Y-102129419D02*
X93265666Y-102081800D01*
X93265666Y-102081800D02*
X93170428Y-102034180D01*
X93170428Y-102034180D02*
X92979952Y-102034180D01*
X92979952Y-102034180D02*
X92884714Y-102081800D01*
X92884714Y-102081800D02*
X92837095Y-102129419D01*
X92837095Y-102129419D02*
X92789476Y-102224657D01*
X92789476Y-102224657D02*
X92789476Y-102415133D01*
X92789476Y-102415133D02*
X92837095Y-102510371D01*
X92837095Y-102510371D02*
X92884714Y-102557990D01*
X92884714Y-102557990D02*
X92979952Y-102605609D01*
X94894400Y-104092419D02*
X94894400Y-104330514D01*
X94656305Y-104235276D02*
X94894400Y-104330514D01*
X94894400Y-104330514D02*
X95132495Y-104235276D01*
X94751543Y-104520990D02*
X94894400Y-104330514D01*
X94894400Y-104330514D02*
X95037257Y-104520990D01*
X94894399Y-105182780D02*
X94894399Y-104944685D01*
X95132494Y-105039923D02*
X94894399Y-104944685D01*
X94894399Y-104944685D02*
X94656304Y-105039923D01*
X95037256Y-104754209D02*
X94894399Y-104944685D01*
X94894399Y-104944685D02*
X94751542Y-104754209D01*
X105722009Y-104965333D02*
X105769628Y-104822476D01*
X105769628Y-104822476D02*
X105817247Y-104774857D01*
X105817247Y-104774857D02*
X105912485Y-104727238D01*
X105912485Y-104727238D02*
X106055342Y-104727238D01*
X106055342Y-104727238D02*
X106150580Y-104774857D01*
X106150580Y-104774857D02*
X106198200Y-104822476D01*
X106198200Y-104822476D02*
X106245819Y-104917714D01*
X106245819Y-104917714D02*
X106245819Y-105298666D01*
X106245819Y-105298666D02*
X105245819Y-105298666D01*
X105245819Y-105298666D02*
X105245819Y-104965333D01*
X105245819Y-104965333D02*
X105293438Y-104870095D01*
X105293438Y-104870095D02*
X105341057Y-104822476D01*
X105341057Y-104822476D02*
X105436295Y-104774857D01*
X105436295Y-104774857D02*
X105531533Y-104774857D01*
X105531533Y-104774857D02*
X105626771Y-104822476D01*
X105626771Y-104822476D02*
X105674390Y-104870095D01*
X105674390Y-104870095D02*
X105722009Y-104965333D01*
X105722009Y-104965333D02*
X105722009Y-105298666D01*
X105960104Y-104346285D02*
X105960104Y-103870095D01*
X106245819Y-104441523D02*
X105245819Y-104108190D01*
X105245819Y-104108190D02*
X106245819Y-103774857D01*
X106245819Y-102870095D02*
X105769628Y-103203428D01*
X106245819Y-103441523D02*
X105245819Y-103441523D01*
X105245819Y-103441523D02*
X105245819Y-103060571D01*
X105245819Y-103060571D02*
X105293438Y-102965333D01*
X105293438Y-102965333D02*
X105341057Y-102917714D01*
X105341057Y-102917714D02*
X105436295Y-102870095D01*
X105436295Y-102870095D02*
X105579152Y-102870095D01*
X105579152Y-102870095D02*
X105674390Y-102917714D01*
X105674390Y-102917714D02*
X105722009Y-102965333D01*
X105722009Y-102965333D02*
X105769628Y-103060571D01*
X105769628Y-103060571D02*
X105769628Y-103441523D01*
X106245819Y-101917714D02*
X106245819Y-102489142D01*
X106245819Y-102203428D02*
X105245819Y-102203428D01*
X105245819Y-102203428D02*
X105388676Y-102298666D01*
X105388676Y-102298666D02*
X105483914Y-102393904D01*
X105483914Y-102393904D02*
X105531533Y-102489142D01*
D11*
%TO.C,C1*%
X99440420Y-93876400D02*
X99721580Y-93876400D01*
X99440420Y-94896400D02*
X99721580Y-94896400D01*
%TO.C,R12*%
X79078858Y-92368900D02*
X78604342Y-92368900D01*
X79078858Y-91323900D02*
X78604342Y-91323900D01*
D10*
%TO.C,J3*%
X104379000Y-97876000D02*
X105779000Y-97876000D01*
X108179000Y-97876000D02*
X108329000Y-97876000D01*
X108329000Y-97876000D02*
X108329000Y-97576000D01*
X108329000Y-97576000D02*
X108779000Y-97576000D01*
X102204000Y-95526000D02*
X102629000Y-95526000D01*
X102629000Y-95526000D02*
X102629000Y-96526000D01*
X102204000Y-94801000D02*
X102204000Y-95526000D01*
X102629000Y-91926000D02*
X102629000Y-90926000D01*
X108329000Y-89876000D02*
X108329000Y-89576000D01*
X108779000Y-89876000D02*
X108329000Y-89876000D01*
X105779000Y-89576000D02*
X104379000Y-89576000D01*
X108329000Y-89576000D02*
X108179000Y-89576000D01*
D12*
%TO.C,U9*%
X83922704Y-101231700D02*
X82955296Y-101231700D01*
X82955296Y-103492300D02*
X83922704Y-103492300D01*
%TO.C,U4*%
X99162704Y-101231700D02*
X98195296Y-101231700D01*
X98195296Y-103492300D02*
X99162704Y-103492300D01*
D11*
%TO.C,R2*%
X89266500Y-105520258D02*
X89266500Y-105045742D01*
X90311500Y-105520258D02*
X90311500Y-105045742D01*
%TO.C,C3*%
X96379420Y-89710800D02*
X96660580Y-89710800D01*
X96379420Y-90730800D02*
X96660580Y-90730800D01*
%TO.C,R7*%
X81519500Y-105520258D02*
X81519500Y-105045742D01*
X82564500Y-105520258D02*
X82564500Y-105045742D01*
%TO.C,R10*%
X101966500Y-105520258D02*
X101966500Y-105045742D01*
X103011500Y-105520258D02*
X103011500Y-105045742D01*
%TO.C,U5*%
X89120503Y-93675200D02*
X89456378Y-93339324D01*
X93147476Y-90319978D02*
X92811600Y-89984103D01*
X89456378Y-94011076D02*
X89120503Y-93675200D01*
X96166822Y-93339324D02*
X96502697Y-93675200D01*
X92475724Y-97030422D02*
X92811600Y-97366297D01*
X96502697Y-93675200D02*
X96166822Y-94011076D01*
X92811600Y-97366297D02*
X93147476Y-97030422D01*
%TO.C,J1*%
X77105200Y-96460000D02*
X78435200Y-96460000D01*
X77105200Y-97790000D02*
X77105200Y-96460000D01*
X77105200Y-99060000D02*
X77105200Y-109280000D01*
X77105200Y-99060000D02*
X79765200Y-99060000D01*
X77105200Y-109280000D02*
X79765200Y-109280000D01*
X79765200Y-99060000D02*
X79765200Y-109280000D01*
%TO.C,R8*%
X96886500Y-105520258D02*
X96886500Y-105045742D01*
X97931500Y-105520258D02*
X97931500Y-105045742D01*
%TO.C,R4*%
X91806500Y-105520258D02*
X91806500Y-105045742D01*
X92851500Y-105520258D02*
X92851500Y-105045742D01*
%TO.C,R11*%
X84186500Y-105520258D02*
X84186500Y-105045742D01*
X85231500Y-105520258D02*
X85231500Y-105045742D01*
%TO.C,R9*%
X104506500Y-105520258D02*
X104506500Y-105045742D01*
X105551500Y-105520258D02*
X105551500Y-105045742D01*
D12*
%TO.C,SW1*%
X87603505Y-92998335D02*
X86967703Y-92362533D01*
X85437467Y-90832297D02*
X84801665Y-90196495D01*
X84801665Y-90196495D02*
X80239695Y-94758465D01*
X83041535Y-97560305D02*
X87603505Y-92998335D01*
X82405733Y-96924503D02*
X83041535Y-97560305D01*
X80239695Y-94758465D02*
X80875497Y-95394267D01*
%TO.C,U2*%
X104115704Y-101104700D02*
X103148296Y-101104700D01*
X103148296Y-103365300D02*
X104115704Y-103365300D01*
%TO.C,U10*%
X89002704Y-101231700D02*
X88035296Y-101231700D01*
X88035296Y-103492300D02*
X89002704Y-103492300D01*
D11*
%TO.C,C2*%
X99376620Y-95146400D02*
X99657780Y-95146400D01*
X99376620Y-96166400D02*
X99657780Y-96166400D01*
%TO.C,R5*%
X94346500Y-105520258D02*
X94346500Y-105045742D01*
X95391500Y-105520258D02*
X95391500Y-105045742D01*
%TO.C,R6*%
X86726500Y-105520258D02*
X86726500Y-105045742D01*
X87771500Y-105520258D02*
X87771500Y-105045742D01*
%TO.C,U1*%
X101332000Y-92624000D02*
X101332000Y-90194000D01*
X101322000Y-92644000D02*
X100322000Y-92644000D01*
X99322000Y-92644000D02*
X98272000Y-92644000D01*
X98272000Y-92644000D02*
X98272000Y-90794000D01*
%TO.C,R3*%
X99426500Y-105520258D02*
X99426500Y-105045742D01*
X100471500Y-105520258D02*
X100471500Y-105045742D01*
D12*
%TO.C,U8*%
X94082704Y-101358700D02*
X93115296Y-101358700D01*
X93115296Y-103619300D02*
X94082704Y-103619300D01*
D11*
%TO.C,BAR1*%
X106748500Y-98356500D02*
X105048500Y-98356500D01*
X106458500Y-98646500D02*
X106458500Y-109086500D01*
X80778500Y-98646500D02*
X106458500Y-98646500D01*
X106748500Y-100056500D02*
X106748500Y-98356500D01*
X106458500Y-109086500D02*
X80778500Y-109086500D01*
X80778500Y-109086500D02*
X80778500Y-98646500D01*
%TD*%
M02*
